<?xml version="1.0" standalone="no"?>
<!DOCTYPE svg PUBLIC "-//W3C//DTD SVG 1.1//EN" "http://www.w3.org/Graphics/SVG/1.1/DTD/svg11.dtd" >
<svg xmlns="http://www.w3.org/2000/svg" xmlns:xlink="http://www.w3.org/1999/xlink" version="1.1">
<metadata>
Created by FontForge 20190801 at Tue Nov 13 16:47:20 2007
 By Jimmy Wärting
Copyright 1996, 2006 Double Alex Font Studio. All rights reserved.
</metadata>
<defs>
<font id="Rotonda-Bold" horiz-adv-x="574" >
  <font-face 
    font-family="Rotonda Bold"
    font-weight="400"
    font-stretch="normal"
    units-per-em="1000"
    panose-1="2 0 8 3 3 0 0 2 0 4"
    ascent="800"
    descent="-200"
    x-height="532"
    cap-height="724"
    bbox="-70 -218 1083 935"
    underline-thickness="50"
    underline-position="-100"
    unicode-range="U+0020-2260"
  />
<missing-glyph horiz-adv-x="740" 
d="M724 344q0 -74 -28 -138.5t-76 -112.5t-112.5 -75.5t-137.5 -27.5q-74 0 -138.5 27.5t-112.5 75.5t-75.5 112.5t-27.5 138.5q0 73 27.5 137t75.5 112t112.5 75.5t138.5 27.5q73 0 137.5 -27.5t112.5 -75.5t76 -112t28 -137zM620 344q0 59 -18 107t-50.5 81.5t-78.5 52
t-103 18.5q-58 0 -104 -18.5t-78.5 -52t-50 -81.5t-17.5 -107q0 -60 17.5 -108t50 -81.5t78.5 -52t104 -18.5q57 0 103 18.5t78.5 52t50.5 81.5t18 108zM205 285v128h334v-128h-334z" />
    <glyph glyph-name=".notdef" horiz-adv-x="740" 
d="M724 344q0 -74 -28 -138.5t-76 -112.5t-112.5 -75.5t-137.5 -27.5q-74 0 -138.5 27.5t-112.5 75.5t-75.5 112.5t-27.5 138.5q0 73 27.5 137t75.5 112t112.5 75.5t138.5 27.5q73 0 137.5 -27.5t112.5 -75.5t76 -112t28 -137zM620 344q0 59 -18 107t-50.5 81.5t-78.5 52
t-103 18.5q-58 0 -104 -18.5t-78.5 -52t-50 -81.5t-17.5 -107q0 -60 17.5 -108t50 -81.5t78.5 -52t104 -18.5q57 0 103 18.5t78.5 52t50.5 81.5t18 108zM205 285v128h334v-128h-334z" />
    <glyph glyph-name=".null" horiz-adv-x="0" 
 />
    <glyph glyph-name="nonmarkingreturn" horiz-adv-x="268" 
 />
    <glyph glyph-name="space" unicode=" " horiz-adv-x="268" 
 />
    <glyph glyph-name="exclam" unicode="!" horiz-adv-x="334" 
d="M239 271q0 -31 -21 -49.5t-51 -18.5q-31 0 -51.5 18t-20.5 50v385q0 32 20.5 50t51.5 18q30 0 51 -18.5t21 -49.5v-385zM245 66q0 -32 -23 -55t-55 -23t-55 23t-23 55t23 55t55 23t55 -23t23 -55z" />
    <glyph glyph-name="quotedbl" unicode="&#x22;" horiz-adv-x="444" 
d="M373 494q0 -27 -16 -43.5t-44 -16.5t-44 16.5t-16 43.5v170q0 27 16 43.5t44 16.5t44 -16.5t16 -43.5v-170zM191 494q0 -27 -16 -43.5t-44 -16.5t-44 16.5t-16 43.5v170q0 27 16 43.5t44 16.5t44 -16.5t16 -43.5v-170z" />
    <glyph glyph-name="numbersign" unicode="#" horiz-adv-x="600" 
d="M600 461q0 -18 -11.5 -33t-36.5 -15h-100l-16 -114h86q25 0 36.5 -15t11.5 -33t-11.5 -33t-36.5 -15h-100l-22 -161q-4 -27 -15.5 -37.5t-34.5 -10.5q-18 0 -32 11t-14 29v8v3.5t0.5 4t1.5 8.5l20 145h-96l-22 -161q-4 -27 -15.5 -37.5t-34.5 -10.5q-18 0 -32 11t-14 29
v8v3.5t0.5 4t1.5 8.5l20 145h-86q-25 0 -36.5 15t-11.5 33t11.5 33t36.5 15h100l16 114h-86q-25 0 -36.5 15t-11.5 33t11.5 33t36.5 15h100l22 161q4 27 15.5 37.5t34.5 10.5q18 0 32 -11t14 -29v-8v-3.5t-0.5 -4t-1.5 -8.5l-20 -145h96l22 161q4 27 15.5 37.5t34.5 10.5
q18 0 32 -11t14 -29v-8v-3.5t-0.5 -4t-1.5 -8.5l-20 -145h86q25 0 36.5 -15t11.5 -33zM261 413l-16 -114h95l16 114h-95z" />
    <glyph glyph-name="dollar" unicode="$" horiz-adv-x="537" 
d="M518 220q0 -50 -18 -90.5t-48.5 -70t-72 -47t-88.5 -21.5v-3v-29q0 -17 -3.5 -32t-23.5 -15t-23.5 15t-3.5 32v31q-30 1 -68 6.5t-71.5 17.5t-56 33t-22.5 53q0 29 18 50t49 21q16 0 33.5 -5t36.5 -12t39 -13t42 -8v167q-36 11 -74 22.5t-69.5 32.5t-51.5 54.5t-20 87.5
q0 48 17 87.5t46 68.5t68 46.5t84 22.5v2v29q0 20 3.5 33.5t23.5 13.5t23.5 -13.5t3.5 -33.5v-31q22 -1 52.5 -6.5t57.5 -16.5t46 -29.5t19 -45.5q0 -29 -18 -51.5t-49 -22.5q-13 0 -25 3.5t-25 8t-27 9t-31 6.5v-133q36 -10 76 -24t73.5 -38.5t55.5 -63t22 -98.5zM237 576
q-23 -6 -38 -21.5t-15 -39.5q0 -20 14.5 -32t38.5 -21v114zM356 218q0 25 -18 40t-47 25v-146q32 8 48.5 30t16.5 51z" />
    <glyph glyph-name="percent" unicode="%" horiz-adv-x="722" 
d="M339 562q0 -33 -11.5 -62t-32 -51t-49 -35t-61.5 -13t-61.5 13t-49 35t-32 51t-11.5 62t11.5 62t32 51.5t49 35.5t61.5 13t61.5 -13t49 -35.5t32 -51.5t11.5 -62zM585 674q0 -6 -1 -12.5t-7 -17.5l-336 -629q-11 -16 -19 -24.5t-26 -8.5q-20 0 -38.5 16t-18.5 39
q0 11 3.5 21t6.5 16l331 624q10 19 19.5 25.5t26.5 6.5q23 0 41 -16.5t18 -39.5zM691 149q0 -33 -11.5 -62t-32 -51t-49 -35t-61.5 -13t-61.5 13t-49 35t-32 51t-11.5 62t11.5 62t32 51.5t49 35.5t61.5 13t61.5 -13t49 -35.5t32 -51.5t11.5 -62zM237 562q0 24 -13.5 42
t-38.5 18t-38.5 -18t-13.5 -42t13.5 -41.5t38.5 -17.5t38.5 17.5t13.5 41.5zM589 149q0 24 -13.5 42t-38.5 18t-38.5 -18t-13.5 -42t13.5 -41.5t38.5 -17.5t38.5 17.5t13.5 41.5z" />
    <glyph glyph-name="ampersand" unicode="&#x26;" horiz-adv-x="704" 
d="M681 55q0 -26 -20.5 -46.5t-49.5 -20.5q-17 0 -29.5 5.5t-23.5 17.5l-69 72q-49 -43 -101 -69t-119 -26q-50 0 -94.5 14t-78 41.5t-53 67.5t-19.5 93q0 37 12 69.5t32.5 59.5t48 49t58.5 39q-29 29 -47.5 61t-18.5 74q0 43 18.5 74.5t48 52.5t67 31t76.5 10q34 0 70 -9.5
t66 -29t49 -49t19 -69.5q0 -30 -11 -56.5t-28.5 -49t-40.5 -40t-47 -29.5l105 -116l39 45q20 23 36 34.5t40 11.5q22 0 38.5 -17t16.5 -46q0 -20 -15 -44.5t-40 -50.5l-25 -27l68 -77q11 -12 16.5 -22.5t5.5 -27.5zM385 552q0 17 -6.5 28t-16.5 18t-21.5 9.5t-21.5 2.5
t-20.5 -3.5t-19.5 -10t-14.5 -16t-5.5 -20.5q0 -23 12 -40t41 -46q11 6 24 13.5t24 17.5t18 21.5t7 25.5zM254 339q-34 -22 -60 -50t-26 -71q0 -48 29 -73t75 -25q41 0 69.5 15.5t57.5 42.5z" />
    <glyph glyph-name="quotesingle" unicode="'" horiz-adv-x="240" 
d="M180 494q0 -27 -16 -43.5t-44 -16.5t-44 16.5t-16 43.5v170q0 27 16 43.5t44 16.5t44 -16.5t16 -43.5v-170v0z" />
    <glyph glyph-name="parenleft" unicode="(" horiz-adv-x="241" 
d="M236 -90q0 -29 -17.5 -46.5t-46.5 -17.5q-18 0 -30.5 11t-21.5 27q-20 34 -35.5 86.5t-25.5 109.5t-15 111.5t-5 93.5q0 23 2.5 59t8 77.5t14 85.5t19.5 84t25 71.5t31 48.5q6 7 15.5 10t17.5 3q25 0 44.5 -16t19.5 -42q0 -5 -2.5 -14t-5.5 -19t-6 -19t-5 -14
q-52 -153 -52 -315q0 -73 11 -150t35 -146q2 -5 6 -16.5t8.5 -24t7.5 -23.5t3 -15z" />
    <glyph glyph-name="parenright" unicode=")" horiz-adv-x="241" 
d="M202 285q0 -23 -2.5 -59t-8 -77.5t-14 -85.5t-19.5 -83.5t-25 -71.5t-31 -49q-6 -7 -15.5 -10t-17.5 -3q-25 0 -44.5 16t-19.5 42q0 5 2.5 14t6 18.5t6.5 19t4 14.5q52 153 52 315q0 73 -11 150t-35 146q-2 5 -6 16.5t-8.5 24t-7.5 23.5t-3 15q0 29 17.5 46.5t46.5 17.5
q18 0 30.5 -11t21.5 -27q20 -34 35.5 -86.5t25.5 -109.5t15 -111.5t5 -93.5z" />
    <glyph glyph-name="asterisk" unicode="*" horiz-adv-x="389" 
d="M360 469q0 -22 -14.5 -40.5t-37.5 -18.5q-17 0 -33.5 13.5t-37.5 28.5q2 -16 5 -33.5t3 -29.5q0 -25 -15.5 -35.5t-35.5 -10.5t-35.5 10.5t-15.5 35.5q0 12 3 29.5t5 33.5q-22 -15 -38.5 -28.5t-33.5 -13.5q-23 0 -36.5 18.5t-13.5 40.5q0 15 8 24t20 15.5t26 11t25 10.5
q-11 6 -25 11t-26 11.5t-20 15.5t-8 24q0 22 13.5 40t36.5 18q17 0 33.5 -13t38.5 -28q-2 16 -5 33.5t-3 29.5q0 25 15.5 35.5t35.5 10.5t35.5 -10.5t15.5 -35.5q0 -12 -3 -29.5t-5 -33.5q21 15 37.5 28t33.5 13q23 0 37.5 -18t14.5 -40q0 -14 -8 -23.5t-20 -16t-26 -11.5
t-26 -11q12 -6 26 -11t26 -11t20 -15t8 -24z" />
    <glyph glyph-name="plus" unicode="+" horiz-adv-x="600" 
d="M565 253q0 -27 -16 -43.5t-44 -16.5h-145v-145q0 -27 -16 -43.5t-44 -16.5t-44 16.5t-16 43.5v145h-145q-28 0 -44 16.5t-16 43.5t16 43.5t44 16.5h145v145q0 27 16 43.5t44 16.5t44 -16.5t16 -43.5v-145h145q28 0 44 -16.5t16 -43.5z" />
    <glyph glyph-name="comma" unicode="," horiz-adv-x="268" 
d="M212 90q0 -11 -4 -21t-9 -19l-84 -150q-10 -17 -27.5 -25.5t-29.5 -8.5q-27 0 -47.5 19.5t-20.5 46.5q0 11 3.5 20.5t8.5 19.5l83 150q10 17 28 25.5t30 8.5q27 0 48 -19.5t21 -46.5z" />
    <glyph glyph-name="hyphen" unicode="-" horiz-adv-x="389" 
d="M358 289q0 -26 -14.5 -44t-42.5 -18h-213q-28 0 -42.5 18t-14.5 44q0 27 14.5 45.5t42.5 18.5h213q28 0 42.5 -18.5t14.5 -45.5z" />
    <glyph glyph-name="period" unicode="." horiz-adv-x="268" 
d="M212 66q0 -32 -23 -55t-55 -23t-55 23t-23 55t23 55t55 23t55 -23t23 -55z" />
    <glyph glyph-name="slash" unicode="/" horiz-adv-x="407" 
d="M399 669q0 -7 -9 -28l-266 -616q-8 -17 -20 -27t-36 -10q-25 0 -42.5 16t-17.5 39q0 7 9 28l267 616q7 17 19.5 27t36.5 10q25 0 42 -16t17 -39z" />
    <glyph glyph-name="zero" unicode="0" 
d="M552 356q0 -61 -13 -126t-43.5 -119t-81.5 -88.5t-127 -34.5t-127 34.5t-81.5 88.5t-43.5 119t-13 126t13 126t43.5 119t81.5 88.5t127 34.5t127 -34.5t81.5 -88.5t43.5 -119t13 -126zM396 356q0 28 -2.5 68t-13.5 76.5t-33 62t-60 25.5t-60 -25.5t-33 -62t-13.5 -76.5
t-2.5 -68q0 -27 2.5 -66.5t13.5 -76t33 -63t60 -26.5t60 26.5t33 63t13.5 76t2.5 66.5z" />
    <glyph glyph-name="one" unicode="1" horiz-adv-x="370" 
d="M302 66q0 -38 -21.5 -58t-53.5 -20t-53.5 20t-21.5 58v508h-59q-36 0 -52 21.5t-16 47.5t18 47.5t50 21.5h142q32 0 49.5 -20.5t17.5 -50.5v-575v0z" />
    <glyph glyph-name="two" unicode="2" 
d="M529 66q0 -35 -21.5 -50.5t-50.5 -15.5h-334q-33 0 -55.5 15.5t-22.5 50.5q0 16 7.5 29t15.5 22q63 75 127.5 145.5t121.5 153.5q14 20 24.5 43t10.5 50q0 31 -20.5 54t-51.5 23q-29 0 -45 -12t-25.5 -30t-15 -39t-13 -39t-20.5 -30t-37 -12q-36 0 -54.5 22t-18.5 51
q0 47 19.5 88.5t52 72t75 48.5t88.5 18t86.5 -14.5t70.5 -41.5t47.5 -65.5t17.5 -86.5q0 -52 -25.5 -103.5t-62.5 -100.5t-78.5 -94.5t-73.5 -85.5h183q33 0 55.5 -15.5t22.5 -50.5z" />
    <glyph glyph-name="three" unicode="3" 
d="M524 209q0 -45 -19.5 -85t-53.5 -70.5t-80 -48t-99 -17.5q-56 0 -100 18.5t-75.5 46t-48 60.5t-16.5 63q0 15 7 27t18 21t24.5 14t27.5 5q17 0 28 -8.5t20 -21.5t17.5 -28.5t21.5 -28.5t31.5 -21.5t46.5 -8.5q39 0 66.5 26.5t27.5 66.5q0 35 -12.5 52t-31.5 24.5t-41 9.5
t-41 7.5t-31.5 18.5t-12.5 43q0 26 10.5 39.5t26.5 20t34 10.5t34 11.5t26.5 21.5t10.5 42q0 29 -19 48t-53 19q-24 0 -39.5 -7.5t-26.5 -18t-19 -23.5t-16.5 -23.5t-20 -18t-28.5 -7.5q-31 0 -48 23t-17 51q0 29 18.5 58t49 52t69.5 37.5t81 14.5q54 0 94 -17.5t66.5 -44.5
t39.5 -59.5t13 -61.5q0 -48 -20 -87.5t-62 -65.5q54 -25 88 -72t34 -107z" />
    <glyph glyph-name="four" unicode="4" 
d="M558 223q0 -30 -20.5 -48t-49.5 -18h-17v-91q0 -40 -17 -59t-55 -19t-55 19t-17 59v91h-241q-37 0 -53.5 19.5t-16.5 39.5q0 17 4.5 26.5t9.5 17.5l224 406q17 30 40 44t62 14q22 0 42.5 -7t36.5 -22.5t26 -40t10 -58.5v-307h17q29 0 49.5 -18t20.5 -48zM327 568h-2
l-135 -279h137v279z" />
    <glyph glyph-name="five" unicode="5" 
d="M517 265q0 -63 -17 -114t-50.5 -87t-83 -56t-114.5 -20q-27 0 -64.5 8.5t-72 25.5t-59 42t-24.5 58q0 28 20 48t48 20q15 0 31.5 -10t35.5 -22t41 -22t47 -10q26 0 46 11.5t33.5 30.5t20 42t6.5 47q0 45 -24 73t-72 28q-22 0 -36 -5t-26 -11.5t-24.5 -11.5t-31.5 -5
q-30 0 -44.5 17t-14.5 30q0 10 1 18l2 16l25 211q3 29 9 47.5t15.5 29t22.5 14.5t31 4h241q35 0 54 -18t19 -45q0 -26 -8.5 -41t-20 -22.5t-23 -9.5t-18.5 -2h-188l-15 -106q18 4 37 7t38 3q45 0 83 -17t65.5 -46t43 -68t15.5 -82z" />
    <glyph glyph-name="six" unicode="6" 
d="M538 236q0 -49 -18.5 -93.5t-51.5 -79t-79.5 -55t-101.5 -20.5q-58 0 -104.5 20t-79 54t-50 79t-17.5 95q0 56 26 121t64.5 127.5t82.5 117.5t81 91q17 17 33 24t30 7q30 0 49 -23.5t19 -50.5q0 -25 -17 -42q-18 -17 -37.5 -37t-38.5 -41t-35.5 -41.5t-28.5 -38.5l2 -2
q28 12 63 12q45 0 83.5 -18.5t66 -49.5t43.5 -71.5t16 -84.5zM382 236q0 19 -6 38t-18 33.5t-29.5 23.5t-41.5 9q-43 0 -69 -29.5t-26 -74.5q0 -42 25 -73t70 -31q43 0 69 29.5t26 74.5z" />
    <glyph glyph-name="seven" unicode="7" horiz-adv-x="538" 
d="M523 640q0 -15 -7 -31t-16 -35l-248 -510q-20 -42 -36 -59t-48 -17q-21 0 -36.5 7t-26 17.5t-15.5 23t-5 23.5q0 9 2.5 16.5t7.5 18.5l250 480h-256q-40 0 -57 21.5t-17 47.5t16.5 47.5t57.5 21.5h362q19 0 32.5 -7.5t22.5 -18.5t13 -23.5t4 -22.5z" />
    <glyph glyph-name="eight" unicode="8" 
d="M534 216q0 -52 -20 -94t-53.5 -72t-78.5 -46t-95 -16q-52 0 -97 17t-78.5 47t-52.5 72t-19 92q0 60 29.5 103.5t77.5 69.5q-35 26 -55.5 60.5t-20.5 82.5q0 44 17 79.5t46.5 60.5t68.5 38.5t84 13.5q43 0 82.5 -13.5t69.5 -38.5t47.5 -60.5t17.5 -79.5q0 -42 -20 -81
t-57 -62q51 -26 79 -70.5t28 -102.5zM360 516q0 32 -19 54t-54 22t-53.5 -22t-18.5 -54q0 -34 18.5 -55t53.5 -21t54 21t19 55zM378 226q0 48 -24.5 74t-66.5 26q-45 0 -68 -29t-23 -71q0 -19 5.5 -37t17 -32t28.5 -22.5t40 -8.5q21 0 38 8.5t29 22.5t18 32t6 37z" />
    <glyph glyph-name="nine" unicode="9" 
d="M538 476q0 -57 -25.5 -122t-63.5 -128t-82.5 -117.5t-82.5 -89.5q-11 -11 -28 -21t-34 -10q-30 0 -49 20t-19 46q0 24 18 48q15 18 34 39t38.5 42t36.5 41t29 38l-2 2q-29 -12 -63 -12q-45 0 -83.5 18.5t-66 49.5t-43.5 71.5t-16 84.5q0 49 18.5 93.5t51.5 79t79 55
t102 20.5q58 0 104.5 -20t79 -54t50 -79t17.5 -95zM382 476q0 42 -25 73t-70 31q-43 0 -69 -29.5t-26 -74.5q0 -20 6 -38.5t18 -33t29.5 -23.5t41.5 -9q43 0 69 29.5t26 74.5z" />
    <glyph glyph-name="colon" unicode=":" horiz-adv-x="268" 
d="M212 387q0 -32 -23 -55t-55 -23t-55 23t-23 55t23 55t55 23t55 -23t23 -55zM212 66q0 -32 -23 -55t-55 -23t-55 23t-23 55t23 55t55 23t55 -23t23 -55z" />
    <glyph glyph-name="semicolon" unicode=";" horiz-adv-x="268" 
d="M212 387q0 -32 -23 -55t-55 -23t-55 23t-23 55t23 55t55 23t55 -23t23 -55zM212 90q0 -11 -4 -21t-9 -19l-84 -150q-10 -17 -27.5 -25.5t-29.5 -8.5q-27 0 -47.5 19.5t-20.5 46.5q0 11 3.5 20.5t8.5 19.5l83 150q10 17 28 25.5t30 8.5q27 0 48 -19.5t21 -46.5z" />
    <glyph glyph-name="less" unicode="&#x3c;" horiz-adv-x="600" 
d="M565 63q0 -32 -14.5 -47.5t-33.5 -15.5q-7 0 -17.5 2t-32.5 12l-395 182q-16 8 -26.5 21t-10.5 36t10.5 36t26.5 21l395 181q22 10 32.5 12.5t17.5 2.5q19 0 33.5 -15.5t14.5 -47.5q0 -16 -7.5 -29t-28.5 -22l-333 -139l333 -139q21 -9 28.5 -22t7.5 -29z" />
    <glyph glyph-name="equal" unicode="=" horiz-adv-x="600" 
d="M565 365q0 -27 -16 -43.5t-44 -16.5h-410q-28 0 -44 16.5t-16 43.5t16 43.5t44 16.5h410q28 0 44 -16.5t16 -43.5zM565 141q0 -27 -16 -43.5t-44 -16.5h-410q-28 0 -44 16.5t-16 43.5t16 43.5t44 16.5h410q28 0 44 -16.5t16 -43.5z" />
    <glyph glyph-name="greater" unicode="&#x3e;" horiz-adv-x="600" 
d="M565 253q0 -23 -10.5 -36t-26.5 -21l-395 -182q-22 -10 -32.5 -12t-17.5 -2q-19 0 -33.5 15.5t-14.5 47.5q0 16 7.5 29t28.5 22l333 139l-333 139q-21 9 -28.5 22t-7.5 29q0 32 14.5 47.5t33.5 15.5q7 0 17.5 -2.5t32.5 -12.5l395 -181q16 -8 26.5 -21t10.5 -36z" />
    <glyph glyph-name="question" unicode="?" horiz-adv-x="481" 
d="M464 510q0 -84 -48 -133.5t-125 -68.5v-36q0 -30 -20 -49.5t-52 -19.5q-34 0 -53 19.5t-19 49.5v100q0 13 7 21.5t18 14t26 9.5l30 8t29.5 9.5t25.5 15t18 24t7 36.5q0 16 -7 30t-18.5 24.5t-26.5 16t-31 5.5q-32 0 -52 -15.5t-36 -34t-32.5 -34t-40.5 -15.5
q-27 0 -44 19.5t-17 52.5q0 39 22 70t55 52t72 32t73 11q48 0 91.5 -14.5t76.5 -42t52 -67.5t19 -90zM297 66q0 -32 -23 -55t-55 -23t-55 23t-23 55t23 55t55 23t55 -23t23 -55z" />
    <glyph glyph-name="at" unicode="@" horiz-adv-x="800" 
d="M768 403q0 -49 -15.5 -86.5t-40 -65.5t-54.5 -47.5t-58.5 -31.5t-52.5 -17t-36 -5q-38 0 -53.5 14.5t-15.5 34.5h-2q-20 -23 -47.5 -36t-57.5 -13q-32 0 -59 15t-47 39.5t-31 56t-11 63.5q0 43 13.5 83t39 71t61.5 50t81 19q37 0 67 -14t50 -46h2v12q0 23 13 35.5
t43 12.5q19 0 32.5 -7t13.5 -21q0 -17 -4 -32l-40 -182q-2 -6 -3 -15.5t-1 -17.5q0 -9 5.5 -15t17.5 -6q11 0 28 8.5t33 27t27.5 47t11.5 69.5q0 54 -23 96.5t-61.5 72.5t-89 46t-104.5 16q-58 0 -108.5 -22t-88 -59.5t-59.5 -88t-22 -108.5t22 -108.5t59.5 -88t88 -59.5
t108.5 -22q54 0 107 10.5t101 36.5q8 4 17 11.5t17.5 14.5t16.5 12t16 5q12 0 24.5 -7t12.5 -30q0 -14 -7 -26t-20 -28q-29 -27 -62.5 -44.5t-70.5 -27t-75.5 -13.5t-76.5 -4q-76 0 -143 29t-117 79t-79 117t-29 143t29 143t79 117t117 79t143 29q70 0 136.5 -24t118 -67
t82.5 -102t31 -128zM459 360q0 34 -20 59.5t-56 25.5q-20 0 -37 -9.5t-30 -25t-20 -34.5t-7 -38q0 -16 4.5 -31.5t13 -27.5t21.5 -19.5t31 -7.5q22 0 40.5 9t31.5 24t20.5 34.5t7.5 40.5z" />
    <glyph glyph-name="A" unicode="A" horiz-adv-x="630" 
d="M630 54q0 -29 -20.5 -47.5t-48.5 -18.5q-32 0 -48.5 14.5t-24.5 37.5l-32 100h-278l-32 -99q-8 -23 -24.5 -38t-47.5 -15q-30 0 -52 20t-22 50q0 12 2.5 20.5t4.5 12.5l203 550q13 35 41 59t66 24q40 0 67 -23.5t40 -59.5l198 -550q5 -12 6.5 -22t1.5 -15zM318 568h-2
l-95 -290h190z" />
    <glyph glyph-name="B" unicode="B" 
d="M563 217q0 -53 -17 -93.5t-47.5 -68t-73 -41.5t-94.5 -14h-206q-35 0 -57.5 20.5t-22.5 55.5v561q0 36 22 55.5t57 19.5h192q39 0 73.5 -12.5t60 -35.5t40 -55.5t14.5 -72.5q0 -54 -22.5 -89t-70.5 -58v-2q31 -4 59 -19t48.5 -37.5t32.5 -51.5t12 -62zM354 509
q0 35 -24 53t-57 18h-78v-150h78q37 0 59 20.5t22 58.5zM407 219q0 35 -26 57t-80 22h-106v-166h118q42 0 68 22.5t26 64.5z" />
    <glyph glyph-name="C" unicode="C" horiz-adv-x="611" 
d="M586 106q0 -36 -24.5 -59t-60 -36t-74 -18t-66.5 -5q-77 0 -140 28.5t-108.5 78t-70.5 116.5t-25 145t25 145.5t70.5 117t108.5 77.5t140 28q27 0 64 -5t70.5 -18t57 -34.5t23.5 -54.5q0 -27 -17 -47t-45 -20q-15 0 -29 5.5t-31 12t-39 12t-54 5.5q-47 0 -82 -18.5
t-58.5 -49.5t-35.5 -72t-12 -87q0 -45 12 -85t36 -70t59 -48t81 -18q32 0 55 6.5t41 14.5t33 14.5t30 6.5q17 0 29.5 -7.5t20.5 -18t12 -22t4 -20.5z" />
    <glyph glyph-name="D" unicode="D" horiz-adv-x="667" 
d="M640 346q0 -79 -24.5 -143t-69.5 -109t-108 -69.5t-140 -24.5h-174q-12 0 -26 3.5t-26 12.5t-19.5 23.5t-7.5 35.5v560q0 35 21.5 56t55.5 21h166q84 0 149.5 -26t110.5 -74t68.5 -115.5t23.5 -150.5zM484 353q0 48 -11.5 88.5t-35.5 70t-61.5 46t-89.5 16.5h-91v-436
h101q48 0 83.5 16.5t59 46t34.5 68.5t11 84z" />
    <glyph glyph-name="E" unicode="E" horiz-adv-x="463" 
d="M451 69q0 -26 -18 -47.5t-53 -21.5h-258q-33 0 -55 20.5t-22 54.5v550q0 38 19 62.5t59 24.5h248q36 0 53.5 -21.5t17.5 -47.5t-18 -47.5t-53 -21.5h-176v-146h164q37 0 55 -21.5t18 -47.5t-18.5 -47.5t-54.5 -21.5h-164v-152h185q36 0 53.5 -21.5t17.5 -47.5z" />
    <glyph glyph-name="F" unicode="F" horiz-adv-x="444" 
d="M446 643q0 -26 -16.5 -47.5t-50.5 -21.5h-184v-146h155q36 0 54 -21t18 -47t-18 -48t-54 -22h-155v-224q0 -38 -21.5 -58t-53.5 -20t-53.5 20t-21.5 58v568q0 31 20 54.5t58 23.5h256q33 0 50 -21.5t17 -47.5z" />
    <glyph glyph-name="G" unicode="G" horiz-adv-x="704" 
d="M687 326q0 -72 -23 -134t-65 -107.5t-102.5 -71t-135.5 -25.5q-77 0 -140 28.5t-108.5 78t-70.5 116.5t-25 145t25 145.5t70.5 117t108.5 77.5t140 28q57 0 107 -12t87.5 -32t59 -45.5t21.5 -51.5q0 -32 -18 -51t-44 -19t-44 11.5t-39 25t-51 25t-79 11.5q-47 0 -82 -19
t-58.5 -50.5t-35.5 -73.5t-12 -87q0 -46 11.5 -87.5t35 -73t58.5 -50.5t83 -19q30 0 60 8.5t54.5 27.5t40 49t15.5 73h-102q-31 0 -50.5 19.5t-19.5 50.5q0 32 20.5 50t49.5 18h170q48 0 68 -24t20 -72z" />
    <glyph glyph-name="H" unicode="H" horiz-adv-x="704" 
d="M659 66q0 -38 -21.5 -58t-53.5 -20t-53.5 20t-21.5 58v224h-314v-224q0 -38 -21.5 -58t-53.5 -20t-53.5 20t-21.5 58v580q0 38 21.5 58t53.5 20t53.5 -20t21.5 -58v-218h314v218q0 38 21.5 58t53.5 20t53.5 -20t21.5 -58v-580v0z" />
    <glyph glyph-name="I" unicode="I" horiz-adv-x="240" 
d="M195 66q0 -38 -21.5 -58t-53.5 -20t-53.5 20t-21.5 58v580q0 38 21.5 58t53.5 20t53.5 -20t21.5 -58v-580v0z" />
    <glyph glyph-name="J" unicode="J" horiz-adv-x="407" 
d="M368 200q0 -63 -18 -104t-46.5 -65t-64 -33.5t-69.5 -9.5q-26 0 -58 5.5t-60 19t-47 35t-19 54.5q0 21 15.5 41t40.5 20q15 0 29.5 -6t29 -12.5t29.5 -12.5t32 -6q21 0 32.5 8.5t16.5 21.5t6 27.5t1 26.5v436q0 38 21.5 58t53.5 20t53.5 -20t21.5 -58v-446v0z" />
    <glyph glyph-name="K" unicode="K" horiz-adv-x="613" 
d="M613 57q0 -35 -23.5 -52t-54.5 -17q-22 0 -38.5 12t-37.5 35l-264 286v-261q0 -29 -20.5 -50.5t-54.5 -21.5q-32 0 -53.5 19.5t-21.5 52.5v590q0 31 20.5 52.5t54.5 21.5q32 0 53.5 -19.5t21.5 -54.5v-222l252 268q8 9 22.5 18.5t35.5 9.5q29 0 51.5 -20t22.5 -52
q0 -20 -12 -37.5t-37 -42.5l-195 -192l236 -247q17 -18 29.5 -35.5t12.5 -40.5z" />
    <glyph glyph-name="L" unicode="L" horiz-adv-x="426" 
d="M445 66q-1 -25 -20 -45.5t-52 -20.5h-250q-37 0 -57.5 22t-20.5 60v564q0 38 21.5 58t53.5 20t53.5 -20t21.5 -58v-508h178q19 0 33 -6.5t22.5 -17t12.5 -23t4 -25.5z" />
    <glyph glyph-name="M" unicode="M" horiz-adv-x="870" 
d="M846 60q0 -33 -21 -52.5t-51 -19.5q-38 0 -55.5 17.5t-22.5 52.5l-59 413h-2l-120 -425q-3 -9 -8.5 -19t-14.5 -19t-23 -14.5t-34 -5.5t-34 5.5t-23 14.5t-14.5 19t-8.5 19l-120 425h-2l-59 -413q-5 -35 -22.5 -52.5t-55.5 -17.5q-30 0 -51 19.5t-21 52.5v8t1 9l93 570
q2 13 10 27t21 25t30 18t37 7q38 0 65 -22.5t35 -49.5l118 -402h2l118 402q8 27 35 49.5t65 22.5q19 0 36.5 -7t30.5 -18t21 -25t10 -27l93 -570q1 -5 1 -9v-8z" />
    <glyph glyph-name="N" unicode="N" horiz-adv-x="685" 
d="M646 66q0 -38 -21.5 -58t-53.5 -20q-14 0 -33 9.5t-30 23.5l-317 424h-2v-379q0 -38 -21.5 -58t-53.5 -20t-53.5 20t-21.5 58v580q0 38 21.5 58t53.5 20q14 0 33.5 -9.5t29.5 -23.5l317 -429h2v384q0 38 21.5 58t53.5 20t53.5 -20t21.5 -58v-580v0z" />
    <glyph glyph-name="O" unicode="O" horiz-adv-x="722" 
d="M705 356q0 -78 -25 -145t-70 -116.5t-108.5 -78t-140.5 -28.5t-140 28.5t-108.5 78t-70.5 116.5t-25 145t25 145.5t70.5 117t108.5 77.5t140 28q75 0 138.5 -29t109 -79t71 -117t25.5 -143zM549 356q0 45 -12 87t-35.5 73.5t-59 50.5t-81.5 19q-47 0 -82 -19t-58.5 -50.5
t-35.5 -73.5t-12 -87q0 -46 11.5 -87.5t35 -73t58.5 -50.5t83 -19t83 19t58.5 50.5t35 73t11.5 87.5z" />
    <glyph glyph-name="P" unicode="P" horiz-adv-x="556" 
d="M556 473q0 -55 -20 -99t-54 -74.5t-79.5 -47t-96.5 -16.5h-111v-170q0 -38 -21.5 -58t-53.5 -20t-53.5 20t-21.5 58v568q0 35 20 56.5t58 21.5h177q55 0 102 -17t81 -48.5t53.5 -75.5t19.5 -98zM400 474q0 45 -27.5 75.5t-75.5 30.5h-102v-212h102q48 0 75.5 30.5
t27.5 75.5z" />
    <glyph glyph-name="Q" unicode="Q" horiz-adv-x="722" 
d="M730 15q0 -26 -21.5 -44.5t-47.5 -18.5q-17 0 -32 7.5t-35 24.5l-57 48q-37 -21 -81 -32.5t-95 -11.5q-77 0 -140 28.5t-108.5 78t-70.5 116.5t-25 145t25 145.5t70.5 117t108.5 77.5t140 28q75 0 138.5 -29t109 -79t71 -117t25.5 -143q0 -134 -67 -231l57 -49
q14 -13 24.5 -26.5t10.5 -34.5zM549 356q0 45 -12 86.5t-35.5 73.5t-59 51t-81.5 19q-47 0 -82 -19t-58.5 -50.5t-35.5 -73.5t-12 -87q0 -46 11.5 -87.5t35 -73t58.5 -50.5t83 -19q17 0 33 2t31 5l-36 35q-8 8 -13.5 18.5t-5.5 21.5q0 29 18.5 50.5t49.5 21.5q22 0 38 -13
l49 -39q13 29 18.5 61t5.5 67z" />
    <glyph glyph-name="R" unicode="R" horiz-adv-x="556" 
d="M556 65q0 -15 -5.5 -28.5t-15.5 -24.5t-24 -17.5t-30 -6.5q-14 0 -30 6t-28 20l-226 275h-2v-223q0 -38 -21.5 -58t-53.5 -20t-53.5 20t-21.5 58v568q0 36 19.5 57t57.5 21h176q116 0 182.5 -54t66.5 -172q0 -41 -14.5 -73.5t-39.5 -56t-59 -38.5t-72 -21l174 -188
q20 -22 20 -44zM391 486q0 43 -25.5 65.5t-67.5 22.5h-103v-177h103q42 0 67.5 23.5t25.5 65.5z" />
    <glyph glyph-name="S" unicode="S" horiz-adv-x="537" 
d="M518 220q0 -54 -20.5 -97t-55.5 -73t-81.5 -46t-98.5 -16q-29 0 -70.5 4.5t-80 16.5t-65.5 34t-27 57q0 29 18 50t49 21q18 0 37 -6t40 -13.5t44 -13.5t47 -6q51 0 76.5 24.5t25.5 61.5q0 30 -24.5 46t-62 27.5t-80.5 23.5t-80.5 33t-62 56t-24.5 93q0 52 20 94.5
t54 71.5t79 45t95 16q21 0 54.5 -4.5t65 -16t54 -30.5t22.5 -49q0 -29 -18 -51.5t-49 -22.5q-15 0 -29.5 4.5t-30 10.5t-33.5 10.5t-40 4.5q-32 0 -57 -16.5t-25 -48.5q0 -26 24.5 -40t62 -25.5t80.5 -24.5t80.5 -37t62 -64t24.5 -104z" />
    <glyph glyph-name="T" unicode="T" horiz-adv-x="480" 
d="M492 643q0 -26 -16 -47.5t-52 -21.5h-109v-508q0 -38 -21.5 -58t-53.5 -20t-53.5 20t-21.5 58v508h-109q-36 0 -52 21.5t-16 47.5t18 47.5t50 21.5h368q32 0 50 -21.5t18 -47.5z" />
    <glyph glyph-name="U" unicode="U" horiz-adv-x="685" 
d="M646 283q0 -63 -24 -117t-65.5 -93.5t-96.5 -62t-117 -22.5q-63 0 -118 22t-96.5 61.5t-65.5 93.5t-24 118v363q0 38 21.5 58t53.5 20t53.5 -20t21.5 -58v-355q0 -35 10.5 -65t30.5 -52t48.5 -35t64.5 -13q34 0 62 13.5t48.5 36t31.5 52.5t11 63v355q0 38 21.5 58
t53.5 20t53.5 -20t21.5 -58v-363v0z" />
    <glyph glyph-name="V" unicode="V" horiz-adv-x="592" 
d="M596 652q0 -20 -7 -37l-219 -563q-10 -24 -25.5 -41t-48.5 -17t-48.5 17t-25.5 41l-219 563q-7 17 -7 37q0 32 23.5 52t53.5 20q26 0 42 -14.5t26 -34.5l155 -422l155 422q10 20 26 34.5t42 14.5q30 0 53.5 -20t23.5 -52z" />
    <glyph glyph-name="W" unicode="W" horiz-adv-x="908" 
d="M900 658q0 -11 -1 -17.5t-3 -16.5l-127 -558q-8 -32 -32.5 -55t-66.5 -23q-37 0 -63.5 21t-35.5 52l-116 392h-2l-116 -392q-9 -31 -35.5 -52t-63.5 -21q-42 0 -66.5 23t-32.5 55l-127 558q-2 10 -3 16.5t-1 17.5q0 24 19 45t52 21q36 0 54.5 -19.5t25.5 -52.5l85 -431h2
l130 444q8 27 29 43t49 16t49 -16t29 -43l130 -444h2l85 431q7 33 25.5 52.5t54.5 19.5q33 0 52 -21t19 -45z" />
    <glyph glyph-name="X" unicode="X" horiz-adv-x="612" 
d="M613 58q0 -32 -21.5 -51t-54.5 -19q-38 0 -62 33l-169 234l-168 -234q-24 -33 -62 -33q-33 0 -54.5 19t-21.5 51q0 16 5.5 29.5t11.5 21.5l202 272l-166 226q-16 20 -16 44q0 33 22 53t54 20q19 0 36.5 -11t28.5 -26l128 -182l128 182q11 15 28.5 26t36.5 11q32 0 54 -20
t22 -53q0 -24 -16 -44l-166 -226l203 -272q6 -8 11.5 -21.5t5.5 -29.5z" />
    <glyph glyph-name="Y" unicode="Y" horiz-adv-x="536" 
d="M546 651q0 -25 -14 -45l-189 -272v-267q0 -28 -17.5 -50.5t-57.5 -22.5t-57.5 22.5t-17.5 50.5v267l-189 272q-14 20 -14 45q0 30 20 51.5t52 21.5q41 0 62 -30l144 -215l144 215q21 30 62 30q32 0 52 -21.5t20 -51.5z" />
    <glyph glyph-name="Z" unicode="Z" horiz-adv-x="593" 
d="M571 66q0 -29 -22.5 -47.5t-49.5 -18.5h-393q-40 0 -62 20t-22 52q0 29 20 58l322 450h-263q-30 0 -50 16.5t-20 47.5q0 29 20.5 48.5t49.5 19.5h366q22 0 38 -6.5t26 -16.5t15 -23t5 -26q0 -17 -6 -34t-16 -30l-320 -444h290q32 0 52 -17t20 -49z" />
    <glyph glyph-name="bracketleft" unicode="[" horiz-adv-x="278" 
d="M270 -97q0 -31 -15.5 -44t-37.5 -13h-100q-33 0 -53 19.5t-20 52.5v734q0 33 20 52.5t53 19.5h100q22 0 37.5 -13t15.5 -44t-15.5 -44t-37.5 -13h-47v-650h47q22 0 37.5 -13t15.5 -44z" />
    <glyph glyph-name="backslash" unicode="\" horiz-adv-x="407" 
d="M399 43q0 -23 -17.5 -39t-42.5 -16q-24 0 -36 10t-19 27l-268 616q-5 11 -6.5 18.5t-1.5 9.5q0 23 17 39t42 16q24 0 36.5 -10t19.5 -27l267 -616q9 -21 9 -28z" />
    <glyph glyph-name="bracketright" unicode="]" horiz-adv-x="278" 
d="M234 -82q0 -33 -20 -52.5t-53 -19.5h-100q-22 0 -37.5 13t-15.5 44t15.5 44t37.5 13h47v650h-47q-22 0 -37.5 13t-15.5 44t15.5 44t37.5 13h100q33 0 53 -19.5t20 -52.5v-734v0z" />
    <glyph glyph-name="asciicircum" unicode="^" horiz-adv-x="600" 
d="M527 355q0 -20 -15 -30t-36 -10q-18 0 -30 4.5t-21 17.5l-125 231l-125 -231q-9 -13 -21 -17.5t-30 -4.5q-21 0 -36 10t-15 30q0 17 13 40l161 293q9 17 23.5 23.5t29.5 6.5t29.5 -6.5t23.5 -23.5l161 -293q13 -23 13 -40z" />
    <glyph glyph-name="underscore" unicode="_" horiz-adv-x="500" 
d="M529 -100q0 -12 -8.5 -18.5t-20.5 -6.5h-500q-12 0 -20.5 6.5t-8.5 18.5t8.5 18.5t20.5 6.5h500q12 0 20.5 -6.5t8.5 -18.5z" />
    <glyph glyph-name="grave" unicode="`" horiz-adv-x="444" 
d="M345 671q0 -13 -4 -26t-11 -23.5t-17 -17t-21 -6.5h-11t-6 1t-8 3l-15 6l-112 44q-41 17 -41 59q0 10 4 21t11.5 20t17.5 15t21 6q17 0 38 -10l118 -48l8 -4q13 -7 20.5 -18t7.5 -22z" />
    <glyph glyph-name="a" unicode="a" horiz-adv-x="531" 
d="M495 65q0 -32 -19 -54.5t-51 -22.5q-23 0 -41.5 12.5t-26.5 46.5q-9 -15 -24.5 -26t-34 -18.5t-38.5 -11t-38 -3.5q-44 0 -80.5 11t-62.5 32.5t-41 54t-15 74.5q0 62 32.5 99t81.5 56.5t106.5 25.5t107.5 6v39q0 21 -16.5 29.5t-46.5 8.5q-31 0 -51 -7.5t-34.5 -17
t-26 -17t-25.5 -7.5q-34 0 -48.5 19.5t-14.5 41.5t19.5 41.5t49 34.5t64.5 23.5t67 8.5q100 0 153.5 -41.5t53.5 -119.5v-318zM357 239h-67.5t-63 -6.5t-47 -23t-18.5 -49.5q0 -15 7.5 -25t20 -16t28 -8.5t31.5 -2.5q57 0 83 28t26 80v23z" />
    <glyph glyph-name="b" unicode="b" 
d="M554 259q0 -51 -16.5 -99.5t-47.5 -87t-75 -61.5t-98 -23q-37 0 -74.5 16.5t-57.5 49.5q-7 -29 -24.5 -47.5t-47.5 -18.5q-32 0 -52 22t-20 58v576q0 36 20 58t52 22t52 -22t20 -58v-150q59 50 137 50q58 0 101.5 -25t72.5 -65t43.5 -91.5t14.5 -103.5zM410 265
q0 25 -7 51.5t-21 47.5t-35 34.5t-49 13.5q-29 0 -50 -12.5t-35 -32.5t-21 -45.5t-7 -51.5t6.5 -53t20.5 -48.5t35 -35t51 -13.5q28 0 49 13t35 34t21 46.5t7 51.5z" />
    <glyph glyph-name="c" unicode="c" horiz-adv-x="463" 
d="M454 87q0 -28 -20 -47t-48.5 -30.5t-58.5 -16.5t-49 -5q-58 0 -105.5 22t-81.5 60t-52.5 88.5t-18.5 106.5q0 55 19 105.5t53 89t81.5 61.5t104.5 23q21 0 51.5 -4.5t58 -15t47 -28t19.5 -43.5q0 -11 -4 -23.5t-11 -22.5t-17 -16.5t-23 -6.5q-14 0 -27 4.5t-26.5 9.5
t-28.5 9.5t-32 4.5q-31 0 -53.5 -12.5t-37.5 -33t-22.5 -47t-7.5 -54.5q0 -27 8 -53t23.5 -46.5t38 -33t51.5 -12.5q14 0 30 4.5t31 10.5t27.5 10.5t18.5 4.5q26 0 44 -18.5t18 -44.5z" />
    <glyph glyph-name="d" unicode="d" 
d="M533 68q0 -36 -20 -58t-52 -22q-30 0 -47.5 18.5t-24.5 47.5q-20 -33 -57.5 -49.5t-74.5 -16.5q-54 0 -98 23t-75 61.5t-47.5 87t-16.5 99.5q0 52 14.5 103.5t43.5 91.5t72.5 65t101.5 25q78 0 137 -50v150q0 36 20 58t52 22t52 -22t20 -58v-576zM389 270q0 26 -7 51.5
t-21 45.5t-35.5 32.5t-49.5 12.5t-49 -13.5t-35 -34.5t-21 -47.5t-7 -51.5q0 -26 7 -51.5t21 -46.5t35 -34t49 -13q30 0 51 13.5t35 35t20.5 48.5t6.5 53z" />
    <glyph glyph-name="e" unicode="e" horiz-adv-x="537" 
d="M527 282q0 -32 -15 -48t-48 -16h-307q8 -54 46.5 -79t89.5 -25q28 0 51.5 9t43.5 20t37 20t31 9q23 0 41 -19.5t18 -42.5t-21.5 -45t-55.5 -39t-76 -27.5t-82 -10.5q-61 0 -110.5 21t-85 58t-55 87.5t-19.5 110.5q0 55 19 105.5t53 89t81.5 61.5t104.5 23q58 0 106 -24
t82 -62t52.5 -84.5t18.5 -91.5zM383 314q-6 48 -35 79t-80 31q-48 0 -78.5 -32t-35.5 -78h229z" />
    <glyph glyph-name="f" unicode="f" horiz-adv-x="296" 
d="M336 469q0 -34 -20.5 -48.5t-52.5 -14.5h-45v-338q0 -36 -20 -58t-52 -22t-52 22t-20 58v338h-32q-29 0 -46 17t-17 46q0 27 18 45t45 18h32v28q0 81 42.5 122.5t108.5 41.5q19 0 37 -3t32 -10.5t22.5 -20t8.5 -31.5q0 -61 -59 -61q-9 0 -17.5 -1t-15.5 -6t-11 -16
t-4 -30v-13h45q32 0 52.5 -14t20.5 -49z" />
    <glyph glyph-name="g" unicode="g" 
d="M533 42q0 -65 -20 -113.5t-57 -81t-88 -49t-112 -16.5q-23 0 -61 6t-75 18.5t-64 33t-27 50.5q0 10 5 21t13.5 20.5t18.5 15.5t21 6q17 0 35.5 -7t40.5 -15.5t47.5 -15.5t56.5 -7q54 0 88 29.5t34 84.5v34h-2q-47 -68 -145 -68q-57 0 -98.5 23t-69 61.5t-41 88
t-13.5 103.5t16.5 104.5t47.5 89.5t75 62.5t98 23.5q37 0 74.5 -16.5t57.5 -49.5q7 29 24.5 47.5t47.5 18.5q32 0 52 -22t20 -58v-422zM389 262q0 26 -6.5 53t-20.5 48.5t-35 35t-51 13.5q-28 0 -49 -13t-35 -34t-21 -47t-7 -51q0 -29 7 -55.5t21 -47t35 -32.5t49 -12
t49.5 12.5t35.5 32.5t21 45.5t7 51.5z" />
    <glyph glyph-name="h" unicode="h" horiz-adv-x="556" 
d="M515 68q0 -36 -20 -58t-52 -22t-52 22t-20 58v257q0 51 -27.5 75t-66.5 24q-45 0 -68.5 -28.5t-23.5 -70.5v-257q0 -36 -20 -58t-52 -22t-52 22t-20 58v575q0 36 20 58t52 22t52 -22t20 -58v-149h2q12 14 27.5 23.5t33 15.5t35.5 8.5t35 2.5q42 0 78.5 -13t62.5 -38
t41 -61t15 -82v-282v0z" />
    <glyph glyph-name="i" unicode="i" horiz-adv-x="222" 
d="M192 675q0 -34 -23.5 -58.5t-57.5 -24.5q-16 0 -30.5 7t-26 18t-18 26t-6.5 32q0 15 6.5 29.5t18 25.5t26 17.5t30.5 6.5t30.5 -6.5t26 -17.5t18 -25t6.5 -30zM183 68q0 -36 -20 -58t-52 -22t-52 22t-20 58v396q0 36 20 58t52 22t52 -22t20 -58v-396z" />
    <glyph glyph-name="j" unicode="j" horiz-adv-x="222" 
d="M192 675q0 -34 -23.5 -58.5t-57.5 -24.5q-16 0 -30.5 7t-26 18t-18 26t-6.5 32q0 15 6.5 29.5t18 25.5t26 17.5t30.5 6.5t30.5 -6.5t26 -17.5t18 -25t6.5 -30zM183 -138q0 -36 -20 -58t-52 -22t-52 22t-20 58v602q0 36 20 58t52 22t52 -22t20 -58v-602z" />
    <glyph glyph-name="k" unicode="k" horiz-adv-x="500" 
d="M500 56q0 -29 -19.5 -48.5t-48.5 -19.5q-20 0 -36 11.5t-33 32.5l-176 217h-2v-181q0 -36 -20 -58t-52 -22t-52 22t-20 58v576q0 36 20 58t52 22t52 -22t20 -58v-290l165 159q17 17 34 24t31 7q27 0 44 -20.5t17 -44.5q0 -16 -6 -29.5t-22 -27.5l-135 -120l169 -198
q10 -11 14 -23.5t4 -24.5z" />
    <glyph glyph-name="l" unicode="l" horiz-adv-x="222" 
d="M183 68q0 -36 -20 -58t-52 -22t-52 22t-20 58v575q0 36 20 58t52 22t52 -22t20 -58v-575v0z" />
    <glyph glyph-name="m" unicode="m" horiz-adv-x="852" 
d="M811 68q0 -36 -20 -58t-52 -22t-52 22t-20 58v257q0 45 -22.5 72t-61.5 27q-40 0 -62.5 -27t-22.5 -72v-257q0 -36 -20 -58t-52 -22t-52 22t-20 58v257q0 45 -22.5 72t-61.5 27q-45 0 -65 -27t-20 -72v-257q0 -36 -20 -58t-52 -22t-52 22t-20 58v396q0 36 20 58t52 22
q28 0 45 -17t21 -43q54 60 134 60q91 0 149 -73q30 35 72.5 54t79.5 19q44 0 80 -12.5t62 -37t40.5 -60.5t14.5 -84v-282v0z" />
    <glyph glyph-name="n" unicode="n" horiz-adv-x="556" 
d="M515 68q0 -36 -20 -58t-52 -22t-52 22t-20 58v257q0 51 -27.5 75t-66.5 24q-45 0 -68.5 -28.5t-23.5 -70.5v-257q0 -36 -20 -58t-52 -22t-52.5 22t-20.5 58v396q0 36 20 58t52 22q28 0 45.5 -17t21.5 -42q21 29 54.5 44t84.5 15q42 0 78.5 -13t62.5 -38t41 -61t15 -82
v-282v0z" />
    <glyph glyph-name="o" unicode="o" horiz-adv-x="556" 
d="M536 265q0 -56 -18.5 -106.5t-52.5 -88.5t-81.5 -60t-105.5 -22t-105.5 22t-81.5 60t-52.5 88.5t-18.5 106.5q0 55 19 105.5t53 89t81.5 61.5t104.5 23t104.5 -23t81.5 -61.5t53 -89t19 -105.5zM392 265q0 25 -6.5 51.5t-20.5 47.5t-35.5 34.5t-51.5 13.5t-51.5 -13.5
t-35.5 -34.5t-20.5 -47.5t-6.5 -51.5q0 -26 7 -52t21 -46.5t35.5 -33.5t50.5 -13t50.5 13t35.5 33.5t21 46.5t7 52z" />
    <glyph glyph-name="p" unicode="p" 
d="M554 259q0 -51 -16.5 -99.5t-47.5 -87t-75 -61.5t-98 -23q-34 0 -68.5 12.5t-63.5 37.5v-176q0 -36 -20 -58t-52 -22t-52 22t-20 58v602q0 36 20 58t52 22q30 0 47.5 -18.5t24.5 -47.5q20 33 57.5 49.5t79.5 16.5q58 0 101.5 -25t72.5 -65t43.5 -91.5t14.5 -103.5z
M410 265q0 25 -7 51.5t-21 47.5t-35 34.5t-49 13.5q-29 0 -50 -12.5t-35 -32.5t-21 -45.5t-7 -51.5t6.5 -53t20.5 -48.5t35 -35t51 -13.5q28 0 49 13t35 34t21 46.5t7 51.5z" />
    <glyph glyph-name="q" unicode="q" 
d="M533 -138q0 -36 -20 -58t-52 -22t-52 22t-20 58v176q-29 -25 -63.5 -37.5t-68.5 -12.5q-54 0 -98 23t-75 61.5t-47.5 87t-16.5 99.5q0 52 14.5 103.5t43.5 91.5t72.5 65t101.5 25q42 0 79.5 -16.5t57.5 -49.5q7 29 24.5 47.5t47.5 18.5q32 0 52 -22t20 -58v-602zM389 270
q0 26 -7 51.5t-21 45.5t-35.5 32.5t-49.5 12.5t-49 -13.5t-35 -34.5t-21 -47.5t-7 -51.5q0 -26 7 -51.5t21 -46.5t35 -34t49 -13q30 0 51 13.5t35 35t20.5 48.5t6.5 53z" />
    <glyph glyph-name="r" unicode="r" horiz-adv-x="333" 
d="M356 467q0 -18 -7.5 -28t-19.5 -17t-27.5 -12t-31.5 -13q-16 -7 -31.5 -15t-28 -19t-20 -26t-7.5 -36v-233q0 -36 -20 -58t-52 -22t-52 22t-20 58v404q0 36 23.5 54t50.5 18q29 0 49.5 -12.5t20.5 -47.5h2q20 30 43.5 45t57.5 15q26 0 48 -19t22 -58z" />
    <glyph glyph-name="s" unicode="s" horiz-adv-x="426" 
d="M416 157q0 -36 -14.5 -67t-41.5 -53.5t-65 -35.5t-84 -13q-30 0 -65.5 8t-65.5 23t-50 35.5t-20 44.5q0 8 4 19t12 21t19.5 17t26.5 7q21 0 37.5 -7.5t32.5 -17t34.5 -17t44.5 -7.5q33 0 45 10.5t12 30.5q0 16 -18.5 27.5t-46.5 22.5t-60 23.5t-60 31.5t-46.5 47
t-18.5 69q0 37 14.5 68t40.5 53.5t61.5 34.5t78.5 12q27 0 58.5 -6.5t58.5 -19t45 -32t18 -46.5q0 -25 -16.5 -44.5t-42.5 -19.5q-11 0 -25.5 6.5t-31.5 14.5t-35.5 14.5t-36.5 6.5q-20 0 -34.5 -9.5t-14.5 -30.5q0 -17 18.5 -28.5t46.5 -22.5t60 -23.5t60 -31.5t46.5 -46.5
t18.5 -68.5z" />
    <glyph glyph-name="t" unicode="t" horiz-adv-x="296" 
d="M330 469q0 -34 -20.5 -48.5t-48.5 -14.5h-41v-338q0 -36 -20 -58t-52 -22t-52 22t-20 58v338h-32q-29 0 -46 17t-17 46q0 27 18 45t45 18h32v86q0 36 20 58t52 22t52 -22t20 -58v-86h41q28 0 48.5 -14t20.5 -49z" />
    <glyph glyph-name="u" unicode="u" horiz-adv-x="556" 
d="M515 68q0 -36 -20 -58t-52 -22q-28 0 -45 17t-21 42q-21 -29 -54.5 -44t-84.5 -15q-42 0 -78.5 13t-62.5 38t-41 61t-15 82v282q0 36 20 58t52 22t52 -22t20 -58v-257q0 -51 27.5 -75t66.5 -24q45 0 68.5 28.5t23.5 70.5v257q0 36 20 58t52 22t52 -22t20 -58v-396v0z" />
    <glyph glyph-name="v" unicode="v" horiz-adv-x="465" 
d="M468 474q0 -10 -2 -19t-7 -23l-147 -384q-6 -14 -12 -25t-14.5 -19t-21 -12t-30.5 -4t-30.5 4t-21 12t-14.5 19t-12 25l-147 384q-5 14 -7 23t-2 19q0 35 23 52.5t52 17.5q30 0 44.5 -17t19.5 -34l94 -290h2l94 290q5 17 19.5 34t44.5 17q29 0 52 -17.5t23 -52.5z" />
    <glyph glyph-name="w" unicode="w" horiz-adv-x="768" 
d="M768 474q0 -12 -4 -24.5t-10 -29.5l-125 -359q-11 -32 -31.5 -52.5t-55.5 -20.5q-33 0 -53 17.5t-30 49.5l-74 238h-2l-74 -238q-10 -32 -30 -49.5t-53 -17.5q-35 0 -55.5 20.5t-31.5 52.5l-124 357q-8 22 -11.5 37t-3.5 31q0 24 20 41t52 17q26 0 43 -16t25 -41l85 -281
h2l84 275q9 29 25 46t48 17t48 -17t25 -46l84 -275h2l85 281q8 25 25 41t43 16q32 0 52 -18.5t20 -51.5z" />
    <glyph glyph-name="x" unicode="x" horiz-adv-x="500" 
d="M510 58q0 -32 -19.5 -51t-51.5 -19q-24 0 -36.5 9t-23.5 23l-124 152l-124 -152q-11 -14 -23.5 -23t-36.5 -9q-32 0 -51.5 19t-19.5 51q0 12 6 26t14 23l151 172l-127 143q-9 11 -15.5 24.5t-6.5 27.5q0 15 6.5 27.5t17 22t23.5 15t27 5.5q17 0 29.5 -7t23.5 -21
l106 -132l106 132q11 14 23.5 21t29.5 7q14 0 27 -5.5t23.5 -15t17 -22t6.5 -27.5q0 -14 -6.5 -27.5t-15.5 -24.5l-127 -143l151 -172q8 -9 14 -23t6 -26z" />
    <glyph glyph-name="y" unicode="y" horiz-adv-x="481" 
d="M483 482q0 -23 -7 -37l-241 -606q-9 -23 -25.5 -40t-42.5 -17q-37 0 -56 19.5t-19 42.5q0 11 2.5 21.5t6.5 20.5l63 156l-159 403q-3 8 -5 17t-2 20q0 13 6.5 24.5t16.5 20t22 13t23 4.5q26 0 44.5 -13.5t27.5 -37.5l99 -277l106 277q9 24 27.5 37.5t44.5 13.5
q11 0 23 -4.5t22 -13t16.5 -20t6.5 -24.5z" />
    <glyph glyph-name="z" unicode="z" horiz-adv-x="481" 
d="M470 63q0 -30 -19 -46.5t-46 -16.5h-335q-24 0 -41.5 12t-17.5 37q0 12 4.5 22.5t8.5 16.5l226 318h-167q-27 0 -46 16.5t-19 46.5t19 46.5t46 16.5h327q5 0 13 -1.5t15.5 -6.5t13 -13.5t5.5 -23.5q0 -14 -3.5 -23t-11.5 -20l-227 -318h190q27 0 46 -16.5t19 -46.5z" />
    <glyph glyph-name="braceleft" unicode="{" horiz-adv-x="333" 
d="M326 -109q0 -23 -12.5 -34t-32.5 -11h-62q-66 0 -99.5 31t-33.5 100v194q0 22 -4 35.5t-10.5 20t-15.5 8.5t-18 2q-25 0 -36.5 15t-11.5 33t11.5 33t36.5 15q9 0 18 2t15.5 8.5t10.5 19.5t4 36v194q0 69 33.5 100t99.5 31h62q20 0 32.5 -11t12.5 -34t-12.5 -34t-32.5 -11
h-25q-21 0 -32.5 -13.5t-11.5 -44.5v-189q0 -34 -12 -53.5t-29 -30t-35.5 -13.5t-31.5 -4v-2q13 -1 31.5 -4t35.5 -13.5t29 -30t12 -53.5v-189q0 -31 11.5 -44.5t32.5 -13.5h25q20 0 32.5 -11t12.5 -34z" />
    <glyph glyph-name="bar" unicode="|" horiz-adv-x="222" 
d="M171 48q0 -27 -16 -43.5t-44 -16.5t-44 16.5t-16 43.5v662q0 27 16 43.5t44 16.5t44 -16.5t16 -43.5v-662v0z" />
    <glyph glyph-name="braceright" unicode="}" horiz-adv-x="333" 
d="M343 285q0 -18 -11.5 -33t-36.5 -15q-9 0 -18 -2t-15.5 -8.5t-10.5 -20t-4 -35.5v-194q0 -69 -33.5 -100t-99.5 -31h-62q-20 0 -32.5 11t-12.5 34t12.5 34t32.5 11h25q21 0 32.5 13.5t11.5 44.5v189q0 34 12 53.5t29 30t35.5 13.5t31.5 4v2q-13 1 -31.5 4t-35.5 13.5
t-29 30t-12 53.5v189q0 31 -11.5 44.5t-32.5 13.5h-25q-20 0 -32.5 11t-12.5 34t12.5 34t32.5 11h62q66 0 99.5 -31t33.5 -100v-194q0 -23 4 -36t10.5 -19.5t15.5 -8.5t18 -2q25 0 36.5 -15t11.5 -33z" />
    <glyph glyph-name="asciitilde" unicode="~" horiz-adv-x="600" 
d="M559 291q0 -23 -10 -46.5t-29.5 -42.5t-48 -31t-64.5 -12q-28 0 -57.5 10.5t-57.5 23.5t-53 23.5t-44 10.5q-21 0 -35 -9.5t-25.5 -21t-23 -21t-27.5 -9.5q-24 0 -33.5 15.5t-9.5 33.5q0 23 10 46.5t29.5 42.5t48 31t64.5 12q28 0 57.5 -10.5t57.5 -23.5t53 -23.5
t44 -10.5q21 0 35 9.5t25.5 21t23 21t27.5 9.5q24 0 33.5 -15.5t9.5 -33.5z" />
    <glyph glyph-name="nonbreakingspace" unicode="&#xa0;" horiz-adv-x="268" 
 />
    <glyph glyph-name="sterling" horiz-adv-x="611" 
d="M595 69q0 -32 -20 -50.5t-52 -18.5h-392q-37 0 -57.5 21t-20.5 57q0 15 13.5 32t30 40.5t30 56t13.5 79.5h-52q-32 0 -52 18.5t-20 50.5t20 50.5t52 18.5h21q-5 9 -9.5 23t-8.5 29t-6 29.5t-2 24.5q0 45 20.5 80.5t55 61t80 39t96.5 13.5q52 0 98.5 -13t80.5 -36.5
t54 -55t20 -68.5q0 -35 -22 -55.5t-56 -20.5q-26 0 -40.5 16.5t-30.5 36t-37.5 36t-60.5 16.5q-19 0 -36 -5t-30.5 -14.5t-21.5 -24t-8 -33.5q0 -31 13 -53l15 -26h152q32 0 52 -18.5t20 -50.5t-20 -50.5t-52 -18.5h-129q0 -42 -13.5 -78.5t-37.5 -69.5h278q32 0 52 -18.5
t20 -50.5z" />
    <glyph glyph-name="brokenbar" unicode="&#xa6;" horiz-adv-x="222" 
d="M171 516q0 -27 -16 -43.5t-44 -16.5t-44 16.5t-16 43.5v194q0 27 16 43.5t44 16.5t44 -16.5t16 -43.5v-194zM171 48q0 -27 -16 -43.5t-44 -16.5t-44 16.5t-16 43.5v194q0 27 16 43.5t44 16.5t44 -16.5t16 -43.5v-194z" />
    <glyph glyph-name="section" unicode="&#xa7;" 
d="M554 249q0 -32 -7 -57t-20.5 -46t-33.5 -39t-45 -36q20 -26 31.5 -49.5t11.5 -55.5q0 -44 -17.5 -78t-47 -57.5t-67.5 -36t-79 -12.5q-44 0 -88.5 12.5t-80 33.5t-57.5 48t-22 57q0 33 24 54t56 21q20 0 34.5 -14.5t30 -32.5t35.5 -32.5t50 -14.5q12 0 25 3.5t23.5 11
t17.5 18t7 24.5q0 21 -13.5 36t-35.5 27t-50.5 22t-57.5 22q-30 12 -58 26.5t-50.5 35.5t-36 50t-13.5 69q0 58 22 97t67 75q-23 25 -35 47.5t-12 57.5q0 45 17.5 80t47.5 59t69.5 36.5t83.5 12.5q32 0 74.5 -7.5t81 -24.5t65 -45.5t26.5 -70.5q0 -27 -19.5 -49t-47.5 -22
q-22 0 -39.5 13.5t-35 30t-38 30t-49.5 13.5t-51.5 -19t-22.5 -50q0 -21 14 -34.5t37 -24t53 -20.5t62 -25q31 -14 60.5 -29t52.5 -35t37 -45.5t14 -60.5zM398 229q0 27 -22 45t-52 30l-110 43q-18 -14 -31 -31t-13 -40q0 -25 13 -40.5t38 -26.5l126 -53q22 13 36.5 29.5
t14.5 43.5z" />
    <glyph glyph-name="dieresis" horiz-adv-x="444" 
d="M404 652q0 -30 -21 -51t-51 -21t-51 21t-21 51t21 51t51 21t51 -21t21 -51zM184 652q0 -30 -21 -51t-51 -21t-51 21t-21 51t21 51t51 21t51 -21t21 -51z" />
    <glyph glyph-name="copyright" unicode="&#xa9;" horiz-adv-x="800" 
d="M768 356q0 -76 -29 -143t-79 -117t-117 -79t-143 -29t-143 29t-117 79t-79 117t-29 143t29 143t79 117t117 79t143 29t143 -29t117 -79t79 -117t29 -143zM678 356q0 58 -22 108.5t-59.5 88t-88 59.5t-108.5 22t-108.5 -22t-88 -59.5t-59.5 -88t-22 -108.5t22 -108.5
t59.5 -88t88 -59.5t108.5 -22t108.5 22t88 59.5t59.5 88t22 108.5zM576 269q0 -17 -12.5 -37.5t-35 -38.5t-54.5 -30.5t-71 -12.5q-46 0 -83 15.5t-62.5 43.5t-39.5 65.5t-14 81.5t14 81.5t39.5 65.5t62.5 43.5t83 15.5q39 0 71 -12.5t54.5 -30.5t35 -39t12.5 -37
q0 -27 -7.5 -40.5t-32.5 -13.5q-27 0 -37 14t-17 31q-4 6 -9 12.5t-14 12.5t-22.5 9.5t-33.5 3.5q-45 0 -68 -31t-23 -85t23 -85t68 -31q20 0 33.5 3.5t22.5 9.5t14 12.5t9 12.5q7 17 17 31t37 14q25 0 32.5 -13.5t7.5 -40.5z" />
    <glyph glyph-name="guillemotleft" unicode="&#xab;" horiz-adv-x="500" 
d="M463 128q0 -26 -16.5 -44.5t-43.5 -18.5q-15 0 -28.5 6.5t-21.5 18.5l-103 159q-5 8 -7 17.5t-2 18.5q0 14 8 29.5t16 26.5l97 137q15 17 43 17q27 0 42.5 -16.5t15.5 -38.5q0 -19 -11 -38l-79 -121l79 -119q7 -10 9 -18.5t2 -15.5zM259 128q0 -26 -16.5 -44.5
t-43.5 -18.5q-15 0 -28.5 6.5t-21.5 18.5l-103 159q-5 8 -7 17.5t-2 18.5q0 14 8 29.5t16 26.5l97 137q15 17 43 17q27 0 42.5 -16.5t15.5 -38.5q0 -19 -11 -38l-79 -121l79 -119q7 -10 9 -18.5t2 -15.5z" />
    <glyph glyph-name="logicalnot" unicode="&#xac;" horiz-adv-x="600" 
d="M565 138q0 -27 -16 -43.5t-44 -16.5t-44 16.5t-16 43.5v167h-350q-28 0 -44 16.5t-16 43.5t16 43.5t44 16.5h410q28 0 44 -16.5t16 -43.5v-227v0z" />
    <glyph glyph-name="registered" unicode="&#xae;" horiz-adv-x="800" 
d="M768 356q0 -76 -29 -143t-79 -117t-117 -79t-143 -29t-143 29t-117 79t-79 117t-29 143t29 143t79 117t117 79t143 29t143 -29t117 -79t79 -117t29 -143zM678 356q0 58 -22 108.5t-59.5 88t-88 59.5t-108.5 22t-108.5 -22t-88 -59.5t-59.5 -88t-22 -108.5t22 -108.5
t59.5 -88t88 -59.5t108.5 -22t108.5 22t88 59.5t59.5 88t22 108.5zM560 432q0 -54 -26 -81t-74 -29l71 -116q6 -11 6 -21q0 -35 -47 -35q-24 0 -34.5 15t-20.5 33l-63 118h-30v-118q0 -21 -9.5 -34.5t-35.5 -13.5t-35.5 12t-9.5 36v309q0 17 8.5 29.5t37.5 12.5h113
q30 0 57.5 -5t47.5 -18.5t32 -36t12 -57.5zM470 432q0 27 -14 36t-39 9h-75v-89h75q25 0 39 8.5t14 35.5z" />
    <glyph glyph-name="degree" unicode="&#xb0;" horiz-adv-x="400" 
d="M361 563q0 -33 -12.5 -62.5t-34.5 -51.5t-51.5 -34.5t-62.5 -12.5t-62.5 12.5t-51.5 34.5t-34.5 51.5t-12.5 62.5t12.5 62.5t34.5 51.5t51.5 34.5t62.5 12.5t62.5 -12.5t51.5 -34.5t34.5 -51.5t12.5 -62.5zM283 563q0 34 -24.5 58.5t-58.5 24.5t-58.5 -24.5t-24.5 -58.5
t24.5 -58.5t58.5 -24.5t58.5 24.5t24.5 58.5z" />
    <glyph glyph-name="plusminus" unicode="&#xb1;" horiz-adv-x="600" 
d="M565 334q0 -27 -16 -43.5t-44 -16.5h-145v-64q0 -27 -16 -43.5t-44 -16.5t-44 16.5t-16 43.5v64h-145q-28 0 -44 16.5t-16 43.5t16 43.5t44 16.5h145v64q0 27 16 43.5t44 16.5t44 -16.5t16 -43.5v-64h145q28 0 44 -16.5t16 -43.5zM565 60q0 -27 -16 -43.5t-44 -16.5h-410
q-28 0 -44 16.5t-16 43.5t16 43.5t44 16.5h410q28 0 44 -16.5t16 -43.5z" />
    <glyph glyph-name="acute" horiz-adv-x="444" 
d="M346 711q0 -42 -41 -59l-112 -44q-11 -5 -18 -7.5t-22 -2.5q-11 0 -21 6.5t-17 17t-11 23.5t-4 26q0 11 7.5 22t20.5 18l126 52q21 10 38 10q11 0 21 -6t17.5 -15t11.5 -20t4 -21z" />
    <glyph glyph-name="mu" unicode="&#xb5;" horiz-adv-x="556" 
d="M515 68q0 -36 -20 -58t-52 -22t-52 21.5t-20 53.5h-2q-16 -42 -42.5 -58.5t-49.5 -16.5t-49.5 14t-40.5 36h-2v-176q0 -36 -20 -58t-52 -22t-52 22t-20 58v602q0 36 20 58t52 22t52 -22t20 -58v-263q0 -45 28.5 -69t64.5 -24t64.5 24t28.5 69v263q0 36 20 58t52 22
t52 -22t20 -58v-396v0z" />
    <glyph glyph-name="paragraph" unicode="&#xb6;" horiz-adv-x="620" 
d="M575 -152q0 -27 -16 -43.5t-44 -16.5t-44 16.5t-16 43.5v774h-97v-774q0 -27 -16 -43.5t-44 -16.5t-44 16.5t-16 43.5v515q-109 0 -166 45t-57 126q0 54 19 88.5t52 54.5t78 27.5t97 7.5h254q28 0 44 -16.5t16 -43.5v-804v0z" />
    <glyph glyph-name="periodcentered" unicode="&#xb7;" horiz-adv-x="268" 
d="M212 281q0 -33 -23 -55.5t-55 -22.5t-55 23t-23 55t23 55t55 23q33 0 55.5 -23t22.5 -55z" />
    <glyph glyph-name="guillemotright" unicode="&#xbb;" horiz-adv-x="500" 
d="M463 275q0 -14 -8 -29.5t-16 -26.5l-97 -137q-15 -17 -43 -17q-27 0 -42.5 16.5t-15.5 38.5q0 19 11 38l79 123l-79 117q-7 10 -9 18.5t-2 15.5q0 26 16.5 44.5t43.5 18.5q15 0 28.5 -6.5t21.5 -18.5l103 -159q5 -8 7 -17.5t2 -18.5zM259 275q0 -14 -8 -29.5t-16 -26.5
l-97 -137q-15 -17 -43 -17q-27 0 -42.5 16.5t-15.5 38.5q0 19 11 38l79 123l-79 117q-7 10 -9 18.5t-2 15.5q0 26 16.5 44.5t43.5 18.5q15 0 28.5 -6.5t21.5 -18.5l103 -159q5 -8 7 -17.5t2 -18.5z" />
    <glyph glyph-name="divide" horiz-adv-x="600" 
d="M378 460q0 -32 -23 -55t-55 -23t-55 23t-23 55t23 55t55 23t55 -23t23 -55zM565 253q0 -27 -16 -43.5t-44 -16.5h-410q-28 0 -44 16.5t-16 43.5t16 43.5t44 16.5h410q28 0 44 -16.5t16 -43.5zM378 46q0 -32 -23 -55t-55 -23t-55 23t-23 55t23 55t55 23t55 -23t23 -55z
" />
    <glyph glyph-name="dotlessi" unicode="&#x131;" horiz-adv-x="222" 
d="M183 68q0 -36 -20 -58t-52 -22t-52 22t-20 58v396q0 36 20 58t52 22t52 -22t20 -58v-396v0z" />
    <glyph glyph-name="florin" 
d="M513 656q0 -36 -23 -47t-55 -11q-23 0 -32 -15.5t-14 -38.5l-22 -121h35q33 0 51.5 -16t18.5 -46q0 -37 -24.5 -50.5t-70.5 -13.5h-33l-63 -346q-7 -36 -19 -67t-32 -53.5t-49 -35.5t-70 -13q-18 0 -35.5 2.5t-31 9t-22 19.5t-8.5 34q0 23 8.5 35.5t21 18t26 6.5t23.5 1
q12 0 20.5 7.5t13.5 17.5t7.5 20.5t3.5 16.5l61 327h-25q-35 0 -51.5 18t-16.5 43q0 33 21 49t54 16h40l29 151q14 72 52.5 111t112.5 39q16 0 33.5 -3t32 -10.5t23.5 -20.5t9 -34z" />
    <glyph glyph-name="breve" unicode="&#x2d8;" horiz-adv-x="444" 
d="M221 560q-31 0 -59 8t-49.5 22.5t-34.5 36t-13 48.5q0 20 13 34.5t35 14.5q23 0 33 -10.5t18.5 -23.5t20 -23.5t36.5 -10.5q21 0 32 10.5t20.5 23.5t21 23.5t34.5 10.5q22 0 35 -14.5t13 -34.5q0 -27 -13 -48.5t-34.5 -36t-49.5 -22.5t-59 -8z" />
    <glyph glyph-name="afii10023" unicode="&#xa8;" horiz-adv-x="463" 
d="M451 69q0 -26 -18 -47.5t-53 -21.5h-258q-33 0 -55 20.5t-22 54.5v550q0 38 19 62.5t59 24.5h248q36 0 53.5 -21.5t17.5 -47.5t-18 -47.5t-53 -21.5h-176v-146h164q37 0 55 -21.5t18 -47.5t-18.5 -47.5t-54.5 -21.5h-164v-152h185q36 0 53.5 -21.5t17.5 -47.5zM424 837
q0 -30 -21 -51t-51 -21t-51 21t-21 51t21 51t51 21t51 -21t21 -51zM204 837q0 -30 -21 -51t-51 -21t-51 21t-21 51t21 51t51 21t51 -21t21 -51z" />
    <glyph glyph-name="afii10023" unicode="&#x401;" horiz-adv-x="463" 
d="M451 69q0 -26 -18 -47.5t-53 -21.5h-258q-33 0 -55 20.5t-22 54.5v550q0 38 19 62.5t59 24.5h248q36 0 53.5 -21.5t17.5 -47.5t-18 -47.5t-53 -21.5h-176v-146h164q37 0 55 -21.5t18 -47.5t-18.5 -47.5t-54.5 -21.5h-164v-152h185q36 0 53.5 -21.5t17.5 -47.5zM424 837
q0 -30 -21 -51t-51 -21t-51 21t-21 51t21 51t51 21t51 -21t21 -51zM204 837q0 -30 -21 -51t-51 -21t-51 21t-21 51t21 51t51 21t51 -21t21 -51z" />
    <glyph glyph-name="afii10051" horiz-adv-x="655" 
d="M512 643q0 -26 -16 -47.5t-52 -21.5h-149v-108h132q46 0 86 -13.5t69.5 -40.5t46 -67.5t16.5 -94.5q0 -61 -17.5 -109.5t-48 -82.5t-73.5 -52t-94 -18q-31 0 -53 22t-22 53t22 53t53 22q42 0 61 27.5t19 76.5q0 43 -30 64.5t-75 21.5h-92v-262q0 -32 -21.5 -55t-53.5 -23
t-53.5 22t-21.5 56v508h-89q-36 0 -52 21.5t-16 47.5t18 47.5t50 21.5h388q32 0 50 -21.5t18 -47.5z" />
    <glyph glyph-name="afii10051" unicode="&#x402;" horiz-adv-x="655" 
d="M512 643q0 -26 -16 -47.5t-52 -21.5h-149v-108h132q46 0 86 -13.5t69.5 -40.5t46 -67.5t16.5 -94.5q0 -61 -17.5 -109.5t-48 -82.5t-73.5 -52t-94 -18q-31 0 -53 22t-22 53t22 53t53 22q42 0 61 27.5t19 76.5q0 43 -30 64.5t-75 21.5h-92v-262q0 -32 -21.5 -55t-53.5 -23
t-53.5 22t-21.5 56v508h-89q-36 0 -52 21.5t-16 47.5t18 47.5t50 21.5h388q32 0 50 -21.5t18 -47.5z" />
    <glyph glyph-name="afii10052" horiz-adv-x="444" 
d="M446 643q0 -26 -16.5 -47.5t-50.5 -21.5h-184v-508q0 -38 -21.5 -58t-53.5 -20t-53.5 20t-21.5 58v568q0 31 20 54.5t58 23.5h256q33 0 50 -21.5t17 -47.5zM366 873q0 -42 -41 -59l-112 -44q-11 -5 -18 -7.5t-22 -2.5q-11 0 -21 6.5t-17 17t-11 23.5t-4 26q0 11 7.5 22
t20.5 18l126 52q21 10 38 10q11 0 21 -6t17.5 -15t11.5 -20t4 -21z" />
    <glyph glyph-name="afii10052" unicode="&#x403;" horiz-adv-x="444" 
d="M446 643q0 -26 -16.5 -47.5t-50.5 -21.5h-184v-508q0 -38 -21.5 -58t-53.5 -20t-53.5 20t-21.5 58v568q0 31 20 54.5t58 23.5h256q33 0 50 -21.5t17 -47.5zM366 873q0 -42 -41 -59l-112 -44q-11 -5 -18 -7.5t-22 -2.5q-11 0 -21 6.5t-17 17t-11 23.5t-4 26q0 11 7.5 22
t20.5 18l126 52q21 10 38 10q11 0 21 -6t17.5 -15t11.5 -20t4 -21z" />
    <glyph glyph-name="afii10053" unicode="&#xaa;" horiz-adv-x="611" 
d="M594 106q0 -36 -24.5 -59t-60 -36t-74 -18t-66.5 -5q-77 0 -140 28.5t-108.5 78t-70.5 116.5t-25 145t25 145.5t70.5 117t108.5 77.5t140 28q27 0 64 -5t70.5 -18t57 -34.5t23.5 -54.5q0 -27 -17 -47t-45 -20q-15 0 -29 5.5t-31 12t-39 12t-54 5.5q-37 0 -66.5 -11.5
t-52 -32t-37.5 -48t-23 -60.5h205q37 0 55 -21.5t18 -47.5t-18.5 -47.5t-54.5 -21.5h-208q8 -34 23 -63t38 -50t53 -33t68 -12q32 0 55 6.5t41 14.5t33 14.5t30 6.5q17 0 29.5 -7.5t20.5 -18t12 -22t4 -20.5z" />
    <glyph glyph-name="afii10053" unicode="&#x404;" horiz-adv-x="611" 
d="M594 106q0 -36 -24.5 -59t-60 -36t-74 -18t-66.5 -5q-77 0 -140 28.5t-108.5 78t-70.5 116.5t-25 145t25 145.5t70.5 117t108.5 77.5t140 28q27 0 64 -5t70.5 -18t57 -34.5t23.5 -54.5q0 -27 -17 -47t-45 -20q-15 0 -29 5.5t-31 12t-39 12t-54 5.5q-37 0 -66.5 -11.5
t-52 -32t-37.5 -48t-23 -60.5h205q37 0 55 -21.5t18 -47.5t-18.5 -47.5t-54.5 -21.5h-208q8 -34 23 -63t38 -50t53 -33t68 -12q32 0 55 6.5t41 14.5t33 14.5t30 6.5q17 0 29.5 -7.5t20.5 -18t12 -22t4 -20.5z" />
    <glyph glyph-name="afii10054" unicode="&#xbd;" horiz-adv-x="537" 
d="M518 220q0 -54 -20.5 -97t-55.5 -73t-81.5 -46t-98.5 -16q-29 0 -70.5 4.5t-80 16.5t-65.5 34t-27 57q0 29 18 50t49 21q18 0 37 -6t40 -13.5t44 -13.5t47 -6q51 0 76.5 24.5t25.5 61.5q0 30 -24.5 46t-62 27.5t-80.5 23.5t-80.5 33t-62 56t-24.5 93q0 52 20 94.5
t54 71.5t79 45t95 16q21 0 54.5 -4.5t65 -16t54 -30.5t22.5 -49q0 -29 -18 -51.5t-49 -22.5q-15 0 -29.5 4.5t-30 10.5t-33.5 10.5t-40 4.5q-32 0 -57 -16.5t-25 -48.5q0 -26 24.5 -40t62 -25.5t80.5 -24.5t80.5 -37t62 -64t24.5 -104z" />
    <glyph glyph-name="afii10054" unicode="&#x405;" horiz-adv-x="537" 
d="M518 220q0 -54 -20.5 -97t-55.5 -73t-81.5 -46t-98.5 -16q-29 0 -70.5 4.5t-80 16.5t-65.5 34t-27 57q0 29 18 50t49 21q18 0 37 -6t40 -13.5t44 -13.5t47 -6q51 0 76.5 24.5t25.5 61.5q0 30 -24.5 46t-62 27.5t-80.5 23.5t-80.5 33t-62 56t-24.5 93q0 52 20 94.5
t54 71.5t79 45t95 16q21 0 54.5 -4.5t65 -16t54 -30.5t22.5 -49q0 -29 -18 -51.5t-49 -22.5q-15 0 -29.5 4.5t-30 10.5t-33.5 10.5t-40 4.5q-32 0 -57 -16.5t-25 -48.5q0 -26 24.5 -40t62 -25.5t80.5 -24.5t80.5 -37t62 -64t24.5 -104z" />
    <glyph glyph-name="afii10055" unicode="&#xb2;" horiz-adv-x="240" 
d="M195 66q0 -38 -21.5 -58t-53.5 -20t-53.5 20t-21.5 58v580q0 38 21.5 58t53.5 20t53.5 -20t21.5 -58v-580v0z" />
    <glyph glyph-name="afii10055" unicode="&#x406;" horiz-adv-x="240" 
d="M195 66q0 -38 -21.5 -58t-53.5 -20t-53.5 20t-21.5 58v580q0 38 21.5 58t53.5 20t53.5 -20t21.5 -58v-580v0z" />
    <glyph glyph-name="afii10056" unicode="&#xaf;" horiz-adv-x="240" 
d="M195 66q0 -38 -21.5 -58t-53.5 -20t-53.5 20t-21.5 58v580q0 38 21.5 58t53.5 20t53.5 -20t21.5 -58v-580v0zM303 837q0 -30 -21 -51t-51 -21t-51 21t-21 51t21 51t51 21t51 -21t21 -51zM83 837q0 -30 -21 -51t-51 -21t-51 21t-21 51t21 51t51 21t51 -21t21 -51z" />
    <glyph glyph-name="afii10056" unicode="&#x407;" horiz-adv-x="240" 
d="M195 66q0 -38 -21.5 -58t-53.5 -20t-53.5 20t-21.5 58v580q0 38 21.5 58t53.5 20t53.5 -20t21.5 -58v-580v0zM303 837q0 -30 -21 -51t-51 -21t-51 21t-21 51t21 51t51 21t51 -21t21 -51zM83 837q0 -30 -21 -51t-51 -21t-51 21t-21 51t21 51t51 21t51 -21t21 -51z" />
    <glyph glyph-name="afii10057" unicode="&#xa3;" horiz-adv-x="407" 
d="M368 200q0 -63 -18 -104t-46.5 -65t-64 -33.5t-69.5 -9.5q-26 0 -58 5.5t-60 19t-47 35t-19 54.5q0 21 15.5 41t40.5 20q15 0 29.5 -6t29 -12.5t29.5 -12.5t32 -6q21 0 32.5 8.5t16.5 21.5t6 27.5t1 26.5v436q0 38 21.5 58t53.5 20t53.5 -20t21.5 -58v-446v0z" />
    <glyph glyph-name="afii10057" unicode="&#x408;" horiz-adv-x="407" 
d="M368 200q0 -63 -18 -104t-46.5 -65t-64 -33.5t-69.5 -9.5q-26 0 -58 5.5t-60 19t-47 35t-19 54.5q0 21 15.5 41t40.5 20q15 0 29.5 -6t29 -12.5t29.5 -12.5t32 -6q21 0 32.5 8.5t16.5 21.5t6 27.5t1 26.5v436q0 38 21.5 58t53.5 20t53.5 -20t21.5 -58v-446v0z" />
    <glyph glyph-name="afii10058" unicode="&#x160;" horiz-adv-x="1024" 
d="M1012 222q0 -53 -17 -94t-47.5 -69.5t-73 -43.5t-94.5 -15h-191q-35 0 -57.5 17t-22.5 55v508h-198v-230q0 -42 -6 -86t-19.5 -85.5t-35 -77.5t-51.5 -62q-26 -22 -54.5 -36.5t-64.5 -14.5t-52 21.5t-16 47.5t13.5 41t42.5 29q17 8 33.5 23t30 39t21.5 56.5t8 74.5v314
q0 38 21.5 58t53.5 20h348q32 0 53.5 -20t21.5 -58v-194h103q54 0 100 -13t79.5 -40t52 -68t18.5 -97zM856 224q0 35 -26 59.5t-80 24.5h-91v-176h103q42 0 68 25t26 67z" />
    <glyph glyph-name="afii10058" unicode="&#x409;" horiz-adv-x="1024" 
d="M1012 222q0 -53 -17 -94t-47.5 -69.5t-73 -43.5t-94.5 -15h-191q-35 0 -57.5 17t-22.5 55v508h-198v-230q0 -42 -6 -86t-19.5 -85.5t-35 -77.5t-51.5 -62q-26 -22 -54.5 -36.5t-64.5 -14.5t-52 21.5t-16 47.5t13.5 41t42.5 29q17 8 33.5 23t30 39t21.5 56.5t8 74.5v314
q0 38 21.5 58t53.5 20h348q32 0 53.5 -20t21.5 -58v-194h103q54 0 100 -13t79.5 -40t52 -68t18.5 -97zM856 224q0 35 -26 59.5t-80 24.5h-91v-176h103q42 0 68 25t26 67z" />
    <glyph glyph-name="afii10059" unicode="&#x152;" horiz-adv-x="1024" 
d="M1012 222q0 -53 -17 -94t-47.5 -69.5t-73 -43.5t-94.5 -15h-191q-35 0 -57.5 17t-22.5 55v236h-314v-242q0 -38 -21.5 -58t-53.5 -20t-53.5 20t-21.5 58v580q0 38 21.5 58t53.5 20t53.5 -20t21.5 -58v-207h314v207q0 38 21.5 58t53.5 20t53.5 -20t21.5 -58v-206h103
q54 0 100 -13t79.5 -40t52 -68t18.5 -97zM856 224q0 35 -26 59.5t-80 24.5h-91v-176h103q42 0 68 25t26 67z" />
    <glyph glyph-name="afii10059" unicode="&#x40a;" horiz-adv-x="1024" 
d="M1012 222q0 -53 -17 -94t-47.5 -69.5t-73 -43.5t-94.5 -15h-191q-35 0 -57.5 17t-22.5 55v236h-314v-242q0 -38 -21.5 -58t-53.5 -20t-53.5 20t-21.5 58v580q0 38 21.5 58t53.5 20t53.5 -20t21.5 -58v-207h314v207q0 38 21.5 58t53.5 20t53.5 -20t21.5 -58v-206h103
q54 0 100 -13t79.5 -40t52 -68t18.5 -97zM856 224q0 35 -26 59.5t-80 24.5h-91v-176h103q42 0 68 25t26 67z" />
    <glyph glyph-name="afii10060" horiz-adv-x="680" 
d="M645 66q0 -38 -21.5 -58t-53.5 -20t-53.5 20t-21.5 58v152q0 52 -20 81t-78 29h-102v-262q0 -38 -21.5 -58t-53.5 -20t-53.5 20t-21.5 58v508h-89q-36 0 -52 21.5t-16 47.5t18 47.5t50 21.5h388q32 0 50 -21.5t18 -47.5t-16 -47.5t-52 -21.5h-149v-108h112
q118 0 178 -51.5t60 -168.5v-180v0z" />
    <glyph glyph-name="afii10060" unicode="&#x40b;" horiz-adv-x="680" 
d="M645 66q0 -38 -21.5 -58t-53.5 -20t-53.5 20t-21.5 58v152q0 52 -20 81t-78 29h-102v-262q0 -38 -21.5 -58t-53.5 -20t-53.5 20t-21.5 58v508h-89q-36 0 -52 21.5t-16 47.5t18 47.5t50 21.5h388q32 0 50 -21.5t18 -47.5t-16 -47.5t-52 -21.5h-149v-108h112
q118 0 178 -51.5t60 -168.5v-180v0z" />
    <glyph glyph-name="afii10061" horiz-adv-x="611" 
d="M613 57q0 -35 -23.5 -52t-54.5 -17q-22 0 -38.5 12t-37.5 35l-264 286v-261q0 -29 -20.5 -50.5t-54.5 -21.5q-32 0 -53.5 19.5t-21.5 52.5v590q0 31 20.5 52.5t54.5 21.5q32 0 53.5 -19.5t21.5 -54.5v-222l252 268q8 9 22.5 18.5t35.5 9.5q29 0 51.5 -20t22.5 -52
q0 -20 -12 -37.5t-37 -42.5l-195 -192l236 -247q17 -18 29.5 -35.5t12.5 -40.5zM436 873q0 -42 -41 -59l-112 -44q-11 -5 -18 -7.5t-22 -2.5q-11 0 -21 6.5t-17 17t-11 23.5t-4 26q0 11 7.5 22t20.5 18l126 52q21 10 38 10q11 0 21 -6t17.5 -15t11.5 -20t4 -21z" />
    <glyph glyph-name="afii10061" unicode="&#x40c;" horiz-adv-x="611" 
d="M613 57q0 -35 -23.5 -52t-54.5 -17q-22 0 -38.5 12t-37.5 35l-264 286v-261q0 -29 -20.5 -50.5t-54.5 -21.5q-32 0 -53.5 19.5t-21.5 52.5v590q0 31 20.5 52.5t54.5 21.5q32 0 53.5 -19.5t21.5 -54.5v-222l252 268q8 9 22.5 18.5t35.5 9.5q29 0 51.5 -20t22.5 -52
q0 -20 -12 -37.5t-37 -42.5l-195 -192l236 -247q17 -18 29.5 -35.5t12.5 -40.5zM436 873q0 -42 -41 -59l-112 -44q-11 -5 -18 -7.5t-22 -2.5q-11 0 -21 6.5t-17 17t-11 23.5t-4 26q0 11 7.5 22t20.5 18l126 52q21 10 38 10q11 0 21 -6t17.5 -15t11.5 -20t4 -21z" />
    <glyph glyph-name="afii10062" unicode="&#xa1;" horiz-adv-x="542" 
d="M544 652q0 -13 -8 -34l-268 -586q-11 -23 -28 -33.5t-36 -10.5q-15 0 -29 5t-25.5 14.5t-18.5 22.5t-7 30q0 13 8 34l60 133l-189 390q-8 18 -8 35q0 16 7 29t18.5 22.5t25.5 15t29 5.5q19 0 36 -10.5t28 -33.5l135 -275l126 275q11 23 28.5 33.5t37.5 10.5q30 0 54 -20
t24 -52zM274 755q-31 0 -61.5 8t-55 22.5t-39.5 36t-15 48.5q0 20 13 34.5t35 14.5q23 0 33 -10.5t19 -23.5t23.5 -23.5t47.5 -10.5t47.5 10.5t23.5 23.5t19 23.5t33 10.5q22 0 35 -14.5t13 -34.5q0 -27 -15 -48.5t-39.5 -36t-55 -22.5t-61.5 -8z" />
    <glyph glyph-name="afii10062" unicode="&#x40e;" horiz-adv-x="542" 
d="M544 652q0 -13 -8 -34l-268 -586q-11 -23 -28 -33.5t-36 -10.5q-15 0 -29 5t-25.5 14.5t-18.5 22.5t-7 30q0 13 8 34l60 133l-189 390q-8 18 -8 35q0 16 7 29t18.5 22.5t25.5 15t29 5.5q19 0 36 -10.5t28 -33.5l135 -275l126 275q11 23 28.5 33.5t37.5 10.5q30 0 54 -20
t24 -52zM274 755q-31 0 -61.5 8t-55 22.5t-39.5 36t-15 48.5q0 20 13 34.5t35 14.5q23 0 33 -10.5t19 -23.5t23.5 -23.5t47.5 -10.5t47.5 10.5t23.5 23.5t19 23.5t33 10.5q22 0 35 -14.5t13 -34.5q0 -27 -15 -48.5t-39.5 -36t-55 -22.5t-61.5 -8z" />
    <glyph glyph-name="afii10145" horiz-adv-x="704" 
d="M659 78q0 -38 -21.5 -58t-53.5 -20h-160v-112q0 -38 -21.5 -58t-53.5 -20t-53.5 20t-21.5 58v112h-154q-32 0 -53.5 20t-21.5 58v568q0 38 21.5 58t53.5 20t53.5 -20t21.5 -58v-514h314v514q0 38 21.5 58t53.5 20t53.5 -20t21.5 -58v-568v0z" />
    <glyph glyph-name="afii10145" unicode="&#x40f;" horiz-adv-x="704" 
d="M659 78q0 -38 -21.5 -58t-53.5 -20h-160v-112q0 -38 -21.5 -58t-53.5 -20t-53.5 20t-21.5 58v112h-154q-32 0 -53.5 20t-21.5 58v568q0 38 21.5 58t53.5 20t53.5 -20t21.5 -58v-514h314v514q0 38 21.5 58t53.5 20t53.5 -20t21.5 -58v-568v0z" />
    <glyph glyph-name="afii10017" unicode="&#xc0;" horiz-adv-x="630" 
d="M630 54q0 -29 -20.5 -47.5t-48.5 -18.5q-32 0 -48.5 14.5t-24.5 37.5l-32 100h-278l-32 -99q-8 -23 -24.5 -38t-47.5 -15q-30 0 -52 20t-22 50q0 12 2.5 20.5t4.5 12.5l203 550q13 35 41 59t66 24q40 0 67 -23.5t40 -59.5l198 -550q5 -12 6.5 -22t1.5 -15zM318 568h-2
l-95 -290h190z" />
    <glyph glyph-name="afii10017" unicode="&#x410;" horiz-adv-x="630" 
d="M630 54q0 -29 -20.5 -47.5t-48.5 -18.5q-32 0 -48.5 14.5t-24.5 37.5l-32 100h-278l-32 -99q-8 -23 -24.5 -38t-47.5 -15q-30 0 -52 20t-22 50q0 12 2.5 20.5t4.5 12.5l203 550q13 35 41 59t66 24q40 0 67 -23.5t40 -59.5l198 -550q5 -12 6.5 -22t1.5 -15zM318 568h-2
l-95 -290h190z" />
    <glyph glyph-name="afii10018" unicode="&#xc1;" 
d="M563 217q0 -53 -17 -93.5t-47.5 -68t-73 -41.5t-94.5 -14h-206q-35 0 -57.5 20.5t-22.5 55.5v561q0 36 22 55.5t57 19.5h298q36 0 53.5 -21.5t17.5 -47.5t-18 -47.5t-53 -21.5h-227v-144h118q54 0 100 -12t79.5 -38t52 -66.5t18.5 -96.5zM407 219q0 35 -26 57t-80 22
h-106v-166h118q42 0 68 22.5t26 64.5z" />
    <glyph glyph-name="afii10018" unicode="&#x411;" 
d="M563 217q0 -53 -17 -93.5t-47.5 -68t-73 -41.5t-94.5 -14h-206q-35 0 -57.5 20.5t-22.5 55.5v561q0 36 22 55.5t57 19.5h298q36 0 53.5 -21.5t17.5 -47.5t-18 -47.5t-53 -21.5h-227v-144h118q54 0 100 -12t79.5 -38t52 -66.5t18.5 -96.5zM407 219q0 35 -26 57t-80 22
h-106v-166h118q42 0 68 22.5t26 64.5z" />
    <glyph glyph-name="afii10019" unicode="&#xc2;" 
d="M563 217q0 -53 -17 -93.5t-47.5 -68t-73 -41.5t-94.5 -14h-206q-35 0 -57.5 20.5t-22.5 55.5v561q0 36 22 55.5t57 19.5h192q39 0 73.5 -12.5t60 -35.5t40 -55.5t14.5 -72.5q0 -54 -22.5 -89t-70.5 -58v-2q31 -4 59 -19t48.5 -37.5t32.5 -51.5t12 -62zM354 509
q0 35 -24 53t-57 18h-78v-150h78q37 0 59 20.5t22 58.5zM407 219q0 35 -26 57t-80 22h-106v-166h118q42 0 68 22.5t26 64.5z" />
    <glyph glyph-name="afii10019" unicode="&#x412;" 
d="M563 217q0 -53 -17 -93.5t-47.5 -68t-73 -41.5t-94.5 -14h-206q-35 0 -57.5 20.5t-22.5 55.5v561q0 36 22 55.5t57 19.5h192q39 0 73.5 -12.5t60 -35.5t40 -55.5t14.5 -72.5q0 -54 -22.5 -89t-70.5 -58v-2q31 -4 59 -19t48.5 -37.5t32.5 -51.5t12 -62zM354 509
q0 35 -24 53t-57 18h-78v-150h78q37 0 59 20.5t22 58.5zM407 219q0 35 -26 57t-80 22h-106v-166h118q42 0 68 22.5t26 64.5z" />
    <glyph glyph-name="afii10020" unicode="&#xc3;" horiz-adv-x="444" 
d="M446 643q0 -26 -16.5 -47.5t-50.5 -21.5h-184v-508q0 -38 -21.5 -58t-53.5 -20t-53.5 20t-21.5 58v568q0 31 20 54.5t58 23.5h256q33 0 50 -21.5t17 -47.5z" />
    <glyph glyph-name="afii10020" unicode="&#x413;" horiz-adv-x="444" 
d="M446 643q0 -26 -16.5 -47.5t-50.5 -21.5h-184v-508q0 -38 -21.5 -58t-53.5 -20t-53.5 20t-21.5 58v568q0 31 20 54.5t58 23.5h256q33 0 50 -21.5t17 -47.5z" />
    <glyph glyph-name="afii10021" unicode="&#xc4;" horiz-adv-x="734" 
d="M729 -84q0 -38 -21.5 -58t-53.5 -20t-53.5 20t-21.5 58v84h-424v-84q0 -38 -21.5 -58t-53.5 -20t-53.5 20t-21.5 58v138q0 38 22 58t53 20q11 0 23.5 35.5t23 88t17.5 112t7 108.5v158q0 38 21.5 58t53.5 20h338q32 0 53.5 -20t21.5 -58v-502h15q32 0 53.5 -20t21.5 -58
v-138zM489 580h-188v-94q0 -45 -4.5 -95.5t-12.5 -99.5t-18.5 -90.5t-22.5 -68.5h246v448z" />
    <glyph glyph-name="afii10021" unicode="&#x414;" horiz-adv-x="734" 
d="M729 -84q0 -38 -21.5 -58t-53.5 -20t-53.5 20t-21.5 58v84h-424v-84q0 -38 -21.5 -58t-53.5 -20t-53.5 20t-21.5 58v138q0 38 22 58t53 20q11 0 23.5 35.5t23 88t17.5 112t7 108.5v158q0 38 21.5 58t53.5 20h338q32 0 53.5 -20t21.5 -58v-502h15q32 0 53.5 -20t21.5 -58
v-138zM489 580h-188v-94q0 -45 -4.5 -95.5t-12.5 -99.5t-18.5 -90.5t-22.5 -68.5h246v448z" />
    <glyph glyph-name="afii10022" unicode="&#xc5;" horiz-adv-x="463" 
d="M451 69q0 -26 -18 -47.5t-53 -21.5h-258q-33 0 -55 20.5t-22 54.5v550q0 38 19 62.5t59 24.5h248q36 0 53.5 -21.5t17.5 -47.5t-18 -47.5t-53 -21.5h-176v-146h164q37 0 55 -21.5t18 -47.5t-18.5 -47.5t-54.5 -21.5h-164v-152h185q36 0 53.5 -21.5t17.5 -47.5z" />
    <glyph glyph-name="afii10022" unicode="&#x415;" horiz-adv-x="463" 
d="M451 69q0 -26 -18 -47.5t-53 -21.5h-258q-33 0 -55 20.5t-22 54.5v550q0 38 19 62.5t59 24.5h248q36 0 53.5 -21.5t17.5 -47.5t-18 -47.5t-53 -21.5h-176v-146h164q37 0 55 -21.5t18 -47.5t-18.5 -47.5t-54.5 -21.5h-164v-152h185q36 0 53.5 -21.5t17.5 -47.5z" />
    <glyph glyph-name="afii10024" unicode="&#xc6;" horiz-adv-x="980" 
d="M978 57q0 -35 -23.5 -52t-54.5 -17q-22 0 -38.5 12t-37.5 35l-259 286v-261q0 -29 -20.5 -50.5t-54.5 -21.5q-32 0 -53.5 19.5t-21.5 52.5v261l-259 -286q-21 -23 -37.5 -35t-38.5 -12q-31 0 -54.5 17t-23.5 52q0 23 12.5 40.5t29.5 35.5l231 247l-189 192
q-25 25 -37 42.5t-12 37.5q0 32 22.5 52t51.5 20q21 0 35.5 -9.5t22.5 -18.5l246 -268v222q0 31 20.5 52.5t54.5 21.5q32 0 53.5 -19.5t21.5 -54.5v-222l246 268q8 9 22.5 18.5t35.5 9.5q29 0 51.5 -20t22.5 -52q0 -20 -12 -37.5t-37 -42.5l-189 -192l231 -247
q17 -18 29.5 -35.5t12.5 -40.5z" />
    <glyph glyph-name="afii10024" unicode="&#x416;" horiz-adv-x="980" 
d="M978 57q0 -35 -23.5 -52t-54.5 -17q-22 0 -38.5 12t-37.5 35l-259 286v-261q0 -29 -20.5 -50.5t-54.5 -21.5q-32 0 -53.5 19.5t-21.5 52.5v261l-259 -286q-21 -23 -37.5 -35t-38.5 -12q-31 0 -54.5 17t-23.5 52q0 23 12.5 40.5t29.5 35.5l231 247l-189 192
q-25 25 -37 42.5t-12 37.5q0 32 22.5 52t51.5 20q21 0 35.5 -9.5t22.5 -18.5l246 -268v222q0 31 20.5 52.5t54.5 21.5q32 0 53.5 -19.5t21.5 -54.5v-222l246 268q8 9 22.5 18.5t35.5 9.5q29 0 51.5 -20t22.5 -52q0 -20 -12 -37.5t-37 -42.5l-189 -192l231 -247
q17 -18 29.5 -35.5t12.5 -40.5z" />
    <glyph glyph-name="afii10025" unicode="&#xc7;" horiz-adv-x="537" 
d="M29 618q0 30 23.5 50t58 32.5t73 18t67.5 5.5q54 0 94 -14.5t66.5 -39t39.5 -58t13 -71.5q0 -48 -20 -90t-68 -63q29 -7 53 -25t40.5 -42.5t25.5 -53.5t9 -58q0 -45 -18 -85t-51 -70.5t-79.5 -48t-103.5 -17.5q-29 0 -70 5t-79 18.5t-64.5 36.5t-26.5 58q0 29 18 50
t49 21q18 0 33.5 -8t34.5 -17.5t43 -17.5t58 -8q39 0 66.5 26.5t27.5 66.5q0 28 -8.5 45.5t-23 27.5t-32.5 13.5t-36 3.5h-30q-29 0 -50 21t-21 50t21 50t50 21h40q25 0 43.5 16t18.5 52q0 29 -19 48t-53 19q-26 0 -46.5 -6.5t-37.5 -14.5t-32 -14.5t-30 -6.5
q-31 0 -49 22.5t-18 51.5z" />
    <glyph glyph-name="afii10025" unicode="&#x417;" horiz-adv-x="537" 
d="M29 618q0 30 23.5 50t58 32.5t73 18t67.5 5.5q54 0 94 -14.5t66.5 -39t39.5 -58t13 -71.5q0 -48 -20 -90t-68 -63q29 -7 53 -25t40.5 -42.5t25.5 -53.5t9 -58q0 -45 -18 -85t-51 -70.5t-79.5 -48t-103.5 -17.5q-29 0 -70 5t-79 18.5t-64.5 36.5t-26.5 58q0 29 18 50
t49 21q18 0 33.5 -8t34.5 -17.5t43 -17.5t58 -8q39 0 66.5 26.5t27.5 66.5q0 28 -8.5 45.5t-23 27.5t-32.5 13.5t-36 3.5h-30q-29 0 -50 21t-21 50t21 50t50 21h40q25 0 43.5 16t18.5 52q0 29 -19 48t-53 19q-26 0 -46.5 -6.5t-37.5 -14.5t-32 -14.5t-30 -6.5
q-31 0 -49 22.5t-18 51.5z" />
    <glyph glyph-name="afii10026" unicode="&#xc8;" horiz-adv-x="704" 
d="M659 66q0 -38 -21.5 -58t-53.5 -20t-53.5 20t-21.5 58v379h-2l-324 -424q-13 -17 -31 -25t-32 -8q-32 0 -53.5 20t-21.5 58v580q0 38 21.5 58t53.5 20t53.5 -20t21.5 -58v-384h2l324 429q13 17 31 25t32 8q32 0 53.5 -20t21.5 -58v-580v0z" />
    <glyph glyph-name="afii10026" unicode="&#x418;" horiz-adv-x="704" 
d="M659 66q0 -38 -21.5 -58t-53.5 -20t-53.5 20t-21.5 58v379h-2l-324 -424q-13 -17 -31 -25t-32 -8q-32 0 -53.5 20t-21.5 58v580q0 38 21.5 58t53.5 20t53.5 -20t21.5 -58v-384h2l324 429q13 17 31 25t32 8q32 0 53.5 -20t21.5 -58v-580v0z" />
    <glyph glyph-name="afii10027" unicode="&#xc9;" horiz-adv-x="704" 
d="M659 66q0 -38 -21.5 -58t-53.5 -20t-53.5 20t-21.5 58v379h-2l-324 -424q-13 -17 -31 -25t-32 -8q-32 0 -53.5 20t-21.5 58v580q0 38 21.5 58t53.5 20t53.5 -20t21.5 -58v-384h2l324 429q13 17 31 25t32 8q32 0 53.5 -20t21.5 -58v-580v0zM352 755q-31 0 -61.5 8
t-55 22.5t-39.5 36t-15 48.5q0 20 13 34.5t35 14.5q23 0 33 -10.5t19 -23.5t23.5 -23.5t47.5 -10.5t47.5 10.5t23.5 23.5t19 23.5t33 10.5q22 0 35 -14.5t13 -34.5q0 -27 -15 -48.5t-39.5 -36t-55 -22.5t-61.5 -8z" />
    <glyph glyph-name="afii10027" unicode="&#x419;" horiz-adv-x="704" 
d="M659 66q0 -38 -21.5 -58t-53.5 -20t-53.5 20t-21.5 58v379h-2l-324 -424q-13 -17 -31 -25t-32 -8q-32 0 -53.5 20t-21.5 58v580q0 38 21.5 58t53.5 20t53.5 -20t21.5 -58v-384h2l324 429q13 17 31 25t32 8q32 0 53.5 -20t21.5 -58v-580v0zM352 755q-31 0 -61.5 8
t-55 22.5t-39.5 36t-15 48.5q0 20 13 34.5t35 14.5q23 0 33 -10.5t19 -23.5t23.5 -23.5t47.5 -10.5t47.5 10.5t23.5 23.5t19 23.5t33 10.5q22 0 35 -14.5t13 -34.5q0 -27 -15 -48.5t-39.5 -36t-55 -22.5t-61.5 -8z" />
    <glyph glyph-name="afii10028" unicode="&#xca;" horiz-adv-x="611" 
d="M613 57q0 -35 -23.5 -52t-54.5 -17q-22 0 -38.5 12t-37.5 35l-264 286v-261q0 -29 -20.5 -50.5t-54.5 -21.5q-32 0 -53.5 19.5t-21.5 52.5v590q0 31 20.5 52.5t54.5 21.5q32 0 53.5 -19.5t21.5 -54.5v-222l252 268q8 9 22.5 18.5t35.5 9.5q29 0 51.5 -20t22.5 -52
q0 -20 -12 -37.5t-37 -42.5l-195 -192l236 -247q17 -18 29.5 -35.5t12.5 -40.5z" />
    <glyph glyph-name="afii10028" unicode="&#x41a;" horiz-adv-x="611" 
d="M613 57q0 -35 -23.5 -52t-54.5 -17q-22 0 -38.5 12t-37.5 35l-264 286v-261q0 -29 -20.5 -50.5t-54.5 -21.5q-32 0 -53.5 19.5t-21.5 52.5v590q0 31 20.5 52.5t54.5 21.5q32 0 53.5 -19.5t21.5 -54.5v-222l252 268q8 9 22.5 18.5t35.5 9.5q29 0 51.5 -20t22.5 -52
q0 -20 -12 -37.5t-37 -42.5l-195 -192l236 -247q17 -18 29.5 -35.5t12.5 -40.5z" />
    <glyph glyph-name="afii10029" unicode="&#xcb;" horiz-adv-x="704" 
d="M659 66q0 -38 -21.5 -58t-53.5 -20t-53.5 20t-21.5 58v514h-198v-230q0 -42 -6 -86t-19.5 -85.5t-35 -77.5t-51.5 -62q-26 -22 -54.5 -36.5t-64.5 -14.5t-52 21.5t-16 47.5t13.5 41t42.5 29q17 8 33.5 23t30 39t21.5 56.5t8 74.5v314q0 38 21.5 58t53.5 20h348
q32 0 53.5 -20t21.5 -58v-568v0z" />
    <glyph glyph-name="afii10029" unicode="&#x41b;" horiz-adv-x="704" 
d="M659 66q0 -38 -21.5 -58t-53.5 -20t-53.5 20t-21.5 58v514h-198v-230q0 -42 -6 -86t-19.5 -85.5t-35 -77.5t-51.5 -62q-26 -22 -54.5 -36.5t-64.5 -14.5t-52 21.5t-16 47.5t13.5 41t42.5 29q17 8 33.5 23t30 39t21.5 56.5t8 74.5v314q0 38 21.5 58t53.5 20h348
q32 0 53.5 -20t21.5 -58v-568v0z" />
    <glyph glyph-name="afii10030" unicode="&#xcc;" horiz-adv-x="870" 
d="M846 60q0 -33 -21 -52.5t-51 -19.5q-38 0 -55.5 17.5t-22.5 52.5l-59 413h-2l-120 -425q-3 -9 -8.5 -19t-14.5 -19t-23 -14.5t-34 -5.5t-34 5.5t-23 14.5t-14.5 19t-8.5 19l-120 425h-2l-59 -413q-5 -35 -22.5 -52.5t-55.5 -17.5q-30 0 -51 19.5t-21 52.5v8t1 9l93 570
q2 13 10 27t21 25t30 18t37 7q38 0 65 -22.5t35 -49.5l118 -402h2l118 402q8 27 35 49.5t65 22.5q19 0 36.5 -7t30.5 -18t21 -25t10 -27l93 -570q1 -5 1 -9v-8z" />
    <glyph glyph-name="afii10030" unicode="&#x41c;" horiz-adv-x="870" 
d="M846 60q0 -33 -21 -52.5t-51 -19.5q-38 0 -55.5 17.5t-22.5 52.5l-59 413h-2l-120 -425q-3 -9 -8.5 -19t-14.5 -19t-23 -14.5t-34 -5.5t-34 5.5t-23 14.5t-14.5 19t-8.5 19l-120 425h-2l-59 -413q-5 -35 -22.5 -52.5t-55.5 -17.5q-30 0 -51 19.5t-21 52.5v8t1 9l93 570
q2 13 10 27t21 25t30 18t37 7q38 0 65 -22.5t35 -49.5l118 -402h2l118 402q8 27 35 49.5t65 22.5q19 0 36.5 -7t30.5 -18t21 -25t10 -27l93 -570q1 -5 1 -9v-8z" />
    <glyph glyph-name="afii10031" unicode="&#xcd;" horiz-adv-x="704" 
d="M659 66q0 -38 -21.5 -58t-53.5 -20t-53.5 20t-21.5 58v224h-314v-224q0 -38 -21.5 -58t-53.5 -20t-53.5 20t-21.5 58v580q0 38 21.5 58t53.5 20t53.5 -20t21.5 -58v-218h314v218q0 38 21.5 58t53.5 20t53.5 -20t21.5 -58v-580v0z" />
    <glyph glyph-name="afii10031" unicode="&#x41d;" horiz-adv-x="704" 
d="M659 66q0 -38 -21.5 -58t-53.5 -20t-53.5 20t-21.5 58v224h-314v-224q0 -38 -21.5 -58t-53.5 -20t-53.5 20t-21.5 58v580q0 38 21.5 58t53.5 20t53.5 -20t21.5 -58v-218h314v218q0 38 21.5 58t53.5 20t53.5 -20t21.5 -58v-580v0z" />
    <glyph glyph-name="afii10032" unicode="&#xce;" horiz-adv-x="722" 
d="M705 356q0 -78 -25 -145t-70 -116.5t-108.5 -78t-140.5 -28.5t-140 28.5t-108.5 78t-70.5 116.5t-25 145t25 145.5t70.5 117t108.5 77.5t140 28q75 0 138.5 -29t109 -79t71 -117t25.5 -143zM549 356q0 45 -12 87t-35.5 73.5t-59 50.5t-81.5 19q-47 0 -82 -19t-58.5 -50.5
t-35.5 -73.5t-12 -87q0 -46 11.5 -87.5t35 -73t58.5 -50.5t83 -19t83 19t58.5 50.5t35 73t11.5 87.5z" />
    <glyph glyph-name="afii10032" unicode="&#x41e;" horiz-adv-x="722" 
d="M705 356q0 -78 -25 -145t-70 -116.5t-108.5 -78t-140.5 -28.5t-140 28.5t-108.5 78t-70.5 116.5t-25 145t25 145.5t70.5 117t108.5 77.5t140 28q75 0 138.5 -29t109 -79t71 -117t25.5 -143zM549 356q0 45 -12 87t-35.5 73.5t-59 50.5t-81.5 19q-47 0 -82 -19t-58.5 -50.5
t-35.5 -73.5t-12 -87q0 -46 11.5 -87.5t35 -73t58.5 -50.5t83 -19t83 19t58.5 50.5t35 73t11.5 87.5z" />
    <glyph glyph-name="afii10033" unicode="&#xcf;" horiz-adv-x="704" 
d="M659 66q0 -38 -21.5 -58t-53.5 -20t-53.5 20t-21.5 58v514h-314v-514q0 -38 -21.5 -58t-53.5 -20t-53.5 20t-21.5 58v568q0 38 21.5 58t53.5 20h464q32 0 53.5 -20t21.5 -58v-568v0z" />
    <glyph glyph-name="afii10033" unicode="&#x41f;" horiz-adv-x="704" 
d="M659 66q0 -38 -21.5 -58t-53.5 -20t-53.5 20t-21.5 58v514h-314v-514q0 -38 -21.5 -58t-53.5 -20t-53.5 20t-21.5 58v568q0 38 21.5 58t53.5 20h464q32 0 53.5 -20t21.5 -58v-568v0z" />
    <glyph glyph-name="afii10034" unicode="&#xd0;" horiz-adv-x="556" 
d="M556 473q0 -55 -20 -99t-54 -74.5t-79.5 -47t-96.5 -16.5h-111v-170q0 -38 -21.5 -58t-53.5 -20t-53.5 20t-21.5 58v568q0 35 20 56.5t58 21.5h177q55 0 102 -17t81 -48.5t53.5 -75.5t19.5 -98zM400 474q0 45 -27.5 75.5t-75.5 30.5h-102v-212h102q48 0 75.5 30.5
t27.5 75.5z" />
    <glyph glyph-name="afii10034" unicode="&#x420;" horiz-adv-x="556" 
d="M556 473q0 -55 -20 -99t-54 -74.5t-79.5 -47t-96.5 -16.5h-111v-170q0 -38 -21.5 -58t-53.5 -20t-53.5 20t-21.5 58v568q0 35 20 56.5t58 21.5h177q55 0 102 -17t81 -48.5t53.5 -75.5t19.5 -98zM400 474q0 45 -27.5 75.5t-75.5 30.5h-102v-212h102q48 0 75.5 30.5
t27.5 75.5z" />
    <glyph glyph-name="afii10035" unicode="&#xd1;" horiz-adv-x="611" 
d="M586 106q0 -36 -24.5 -59t-60 -36t-74 -18t-66.5 -5q-77 0 -140 28.5t-108.5 78t-70.5 116.5t-25 145t25 145.5t70.5 117t108.5 77.5t140 28q27 0 64 -5t70.5 -18t57 -34.5t23.5 -54.5q0 -27 -17 -47t-45 -20q-15 0 -29 5.5t-31 12t-39 12t-54 5.5q-47 0 -82 -18.5
t-58.5 -49.5t-35.5 -72t-12 -87q0 -45 12 -85t36 -70t59 -48t81 -18q32 0 55 6.5t41 14.5t33 14.5t30 6.5q17 0 29.5 -7.5t20.5 -18t12 -22t4 -20.5z" />
    <glyph glyph-name="afii10035" unicode="&#x421;" horiz-adv-x="611" 
d="M586 106q0 -36 -24.5 -59t-60 -36t-74 -18t-66.5 -5q-77 0 -140 28.5t-108.5 78t-70.5 116.5t-25 145t25 145.5t70.5 117t108.5 77.5t140 28q27 0 64 -5t70.5 -18t57 -34.5t23.5 -54.5q0 -27 -17 -47t-45 -20q-15 0 -29 5.5t-31 12t-39 12t-54 5.5q-47 0 -82 -18.5
t-58.5 -49.5t-35.5 -72t-12 -87q0 -45 12 -85t36 -70t59 -48t81 -18q32 0 55 6.5t41 14.5t33 14.5t30 6.5q17 0 29.5 -7.5t20.5 -18t12 -22t4 -20.5z" />
    <glyph glyph-name="afii10036" unicode="&#xd2;" horiz-adv-x="480" 
d="M492 643q0 -26 -16 -47.5t-52 -21.5h-109v-508q0 -38 -21.5 -58t-53.5 -20t-53.5 20t-21.5 58v508h-109q-36 0 -52 21.5t-16 47.5t18 47.5t50 21.5h368q32 0 50 -21.5t18 -47.5z" />
    <glyph glyph-name="afii10036" unicode="&#x422;" horiz-adv-x="480" 
d="M492 643q0 -26 -16 -47.5t-52 -21.5h-109v-508q0 -38 -21.5 -58t-53.5 -20t-53.5 20t-21.5 58v508h-109q-36 0 -52 21.5t-16 47.5t18 47.5t50 21.5h368q32 0 50 -21.5t18 -47.5z" />
    <glyph glyph-name="afii10037" unicode="&#xd3;" horiz-adv-x="542" 
d="M544 652q0 -13 -8 -34l-268 -586q-11 -23 -28 -33.5t-36 -10.5q-15 0 -29 5t-25.5 14.5t-18.5 22.5t-7 30q0 13 8 34l60 133l-189 390q-8 18 -8 35q0 16 7 29t18.5 22.5t25.5 15t29 5.5q19 0 36 -10.5t28 -33.5l135 -275l126 275q11 23 28.5 33.5t37.5 10.5q30 0 54 -20
t24 -52z" />
    <glyph glyph-name="afii10037" unicode="&#x423;" horiz-adv-x="542" 
d="M544 652q0 -13 -8 -34l-268 -586q-11 -23 -28 -33.5t-36 -10.5q-15 0 -29 5t-25.5 14.5t-18.5 22.5t-7 30q0 13 8 34l60 133l-189 390q-8 18 -8 35q0 16 7 29t18.5 22.5t25.5 15t29 5.5q19 0 36 -10.5t28 -33.5l135 -275l126 275q11 23 28.5 33.5t37.5 10.5q30 0 54 -20
t24 -52z" />
    <glyph glyph-name="afii10038" unicode="&#xd4;" horiz-adv-x="835" 
d="M819 359q0 -57 -19 -107.5t-53.5 -88t-81.5 -59.5t-102 -22q-12 0 -34.5 3t-36.5 7v-26q0 -38 -21.5 -58t-53.5 -20t-53.5 20t-21.5 58v26q-14 -4 -36.5 -7t-34.5 -3q-56 0 -102.5 22t-81 59.5t-53.5 88t-19 107.5t19 107.5t52.5 88.5t80.5 60t104 22q6 0 16 -1l20 -2
t19.5 -2.5t15.5 -2.5v17q0 38 21.5 58t53.5 20t53.5 -20t21.5 -58v-17q6 1 15.5 2.5t19.5 2.5l20 2t16 1q57 0 104 -22t80.5 -60t52.5 -88.5t19 -107.5zM663 359q0 31 -11 57t-30 44.5t-44 28.5t-52 10q-11 0 -20.5 -2.5t-17.5 -4.5v-264q9 -3 17.5 -5.5t20.5 -2.5
q27 0 52 10t44 28t30 43.5t11 57.5zM346 492q-8 2 -17.5 4.5t-20.5 2.5q-27 0 -52 -10t-44 -28.5t-30 -44.5t-11 -57q0 -32 11 -57.5t30 -43.5t44 -28t52 -10q12 0 20.5 2.5t17.5 5.5v264z" />
    <glyph glyph-name="afii10038" unicode="&#x424;" horiz-adv-x="835" 
d="M819 359q0 -57 -19 -107.5t-53.5 -88t-81.5 -59.5t-102 -22q-12 0 -34.5 3t-36.5 7v-26q0 -38 -21.5 -58t-53.5 -20t-53.5 20t-21.5 58v26q-14 -4 -36.5 -7t-34.5 -3q-56 0 -102.5 22t-81 59.5t-53.5 88t-19 107.5t19 107.5t52.5 88.5t80.5 60t104 22q6 0 16 -1l20 -2
t19.5 -2.5t15.5 -2.5v17q0 38 21.5 58t53.5 20t53.5 -20t21.5 -58v-17q6 1 15.5 2.5t19.5 2.5l20 2t16 1q57 0 104 -22t80.5 -60t52.5 -88.5t19 -107.5zM663 359q0 31 -11 57t-30 44.5t-44 28.5t-52 10q-11 0 -20.5 -2.5t-17.5 -4.5v-264q9 -3 17.5 -5.5t20.5 -2.5
q27 0 52 10t44 28t30 43.5t11 57.5zM346 492q-8 2 -17.5 4.5t-20.5 2.5q-27 0 -52 -10t-44 -28.5t-30 -44.5t-11 -57q0 -32 11 -57.5t30 -43.5t44 -28t52 -10q12 0 20.5 2.5t17.5 5.5v264z" />
    <glyph glyph-name="afii10039" unicode="&#xd5;" horiz-adv-x="612" 
d="M613 58q0 -32 -21.5 -51t-54.5 -19q-38 0 -62 33l-169 234l-168 -234q-24 -33 -62 -33q-33 0 -54.5 19t-21.5 51q0 16 5.5 29.5t11.5 21.5l202 272l-166 226q-16 20 -16 44q0 33 22 53t54 20q19 0 36.5 -11t28.5 -26l128 -182l128 182q11 15 28.5 26t36.5 11q32 0 54 -20
t22 -53q0 -24 -16 -44l-166 -226l203 -272q6 -8 11.5 -21.5t5.5 -29.5z" />
    <glyph glyph-name="afii10039" unicode="&#x425;" horiz-adv-x="612" 
d="M613 58q0 -32 -21.5 -51t-54.5 -19q-38 0 -62 33l-169 234l-168 -234q-24 -33 -62 -33q-33 0 -54.5 19t-21.5 51q0 16 5.5 29.5t11.5 21.5l202 272l-166 226q-16 20 -16 44q0 33 22 53t54 20q19 0 36.5 -11t28.5 -26l128 -182l128 182q11 15 28.5 26t36.5 11q32 0 54 -20
t22 -53q0 -24 -16 -44l-166 -226l203 -272q6 -8 11.5 -21.5t5.5 -29.5z" />
    <glyph glyph-name="afii10040" unicode="&#xd6;" horiz-adv-x="754" 
d="M759 -84q0 -38 -21.5 -58t-53.5 -20t-53.5 20t-21.5 58v84h-489q-32 0 -53.5 20t-21.5 58v568q0 38 21.5 58t53.5 20t53.5 -20t21.5 -58v-514h314v514q0 38 21.5 58t53.5 20t53.5 -20t21.5 -58v-514h25q32 0 53.5 -20t21.5 -58v-138v0z" />
    <glyph glyph-name="afii10040" unicode="&#x426;" horiz-adv-x="754" 
d="M759 -84q0 -38 -21.5 -58t-53.5 -20t-53.5 20t-21.5 58v84h-489q-32 0 -53.5 20t-21.5 58v568q0 38 21.5 58t53.5 20t53.5 -20t21.5 -58v-514h314v514q0 38 21.5 58t53.5 20t53.5 -20t21.5 -58v-514h25q32 0 53.5 -20t21.5 -58v-138v0z" />
    <glyph glyph-name="afii10041" unicode="&#xd7;" horiz-adv-x="630" 
d="M585 66q0 -38 -21.5 -58t-53.5 -20t-53.5 20t-21.5 58v200q-30 -10 -65 -15t-67 -5q-59 0 -108 16t-84.5 45.5t-55.5 72t-20 96.5v170q0 38 21.5 58t53.5 20t53.5 -20t21.5 -58v-162q0 -52 35 -76t93 -24q29 0 62 5t60 15v242q0 38 21.5 58t53.5 20t53.5 -20t21.5 -58
v-580v0z" />
    <glyph glyph-name="afii10041" unicode="&#x427;" horiz-adv-x="630" 
d="M585 66q0 -38 -21.5 -58t-53.5 -20t-53.5 20t-21.5 58v200q-30 -10 -65 -15t-67 -5q-59 0 -108 16t-84.5 45.5t-55.5 72t-20 96.5v170q0 38 21.5 58t53.5 20t53.5 -20t21.5 -58v-162q0 -52 35 -76t93 -24q29 0 62 5t60 15v242q0 38 21.5 58t53.5 20t53.5 -20t21.5 -58
v-580v0z" />
    <glyph glyph-name="afii10042" unicode="&#xd8;" horiz-adv-x="1020" 
d="M983 78q0 -38 -21.5 -58t-53.5 -20h-788q-32 0 -53.5 20t-21.5 58v568q0 38 21.5 58t53.5 20t53.5 -20t21.5 -58v-514h244v514q0 38 21.5 58t53.5 20t53.5 -20t21.5 -58v-514h244v514q0 38 21.5 58t53.5 20t53.5 -20t21.5 -58v-568v0z" />
    <glyph glyph-name="afii10042" unicode="&#x428;" horiz-adv-x="1020" 
d="M983 78q0 -38 -21.5 -58t-53.5 -20h-788q-32 0 -53.5 20t-21.5 58v568q0 38 21.5 58t53.5 20t53.5 -20t21.5 -58v-514h244v514q0 38 21.5 58t53.5 20t53.5 -20t21.5 -58v-514h244v514q0 38 21.5 58t53.5 20t53.5 -20t21.5 -58v-568v0z" />
    <glyph glyph-name="afii10043" unicode="&#xd9;" horiz-adv-x="1070" 
d="M1083 -84q0 -38 -21.5 -58t-53.5 -20t-53.5 20t-21.5 58v84h-813q-32 0 -53.5 20t-21.5 58v568q0 38 21.5 58t53.5 20t53.5 -20t21.5 -58v-514h244v514q0 38 21.5 58t53.5 20t53.5 -20t21.5 -58v-514h244v514q0 38 21.5 58t53.5 20t53.5 -20t21.5 -58v-514h25
q32 0 53.5 -20t21.5 -58v-138v0z" />
    <glyph glyph-name="afii10043" unicode="&#x429;" horiz-adv-x="1070" 
d="M1083 -84q0 -38 -21.5 -58t-53.5 -20t-53.5 20t-21.5 58v84h-813q-32 0 -53.5 20t-21.5 58v568q0 38 21.5 58t53.5 20t53.5 -20t21.5 -58v-514h244v514q0 38 21.5 58t53.5 20t53.5 -20t21.5 -58v-514h244v514q0 38 21.5 58t53.5 20t53.5 -20t21.5 -58v-514h25
q32 0 53.5 -20t21.5 -58v-138v0z" />
    <glyph glyph-name="afii10044" unicode="&#xda;" horiz-adv-x="651" 
d="M643 222q0 -53 -17 -94t-47.5 -69.5t-73 -43.5t-94.5 -15h-186q-35 0 -57.5 20.5t-22.5 55.5v498h-89q-36 0 -52 21.5t-16 47.5t18 47.5t50 21.5h164q32 0 53.5 -20t21.5 -58v-194h98q54 0 100 -13t79.5 -40t52 -68t18.5 -97zM487 224q0 35 -26 59.5t-80 24.5h-86v-176
h98q42 0 68 25t26 67z" />
    <glyph glyph-name="afii10044" unicode="&#x42a;" horiz-adv-x="651" 
d="M643 222q0 -53 -17 -94t-47.5 -69.5t-73 -43.5t-94.5 -15h-186q-35 0 -57.5 20.5t-22.5 55.5v498h-89q-36 0 -52 21.5t-16 47.5t18 47.5t50 21.5h164q32 0 53.5 -20t21.5 -58v-194h98q54 0 100 -13t79.5 -40t52 -68t18.5 -97zM487 224q0 35 -26 59.5t-80 24.5h-86v-176
h98q42 0 68 25t26 67z" />
    <glyph glyph-name="afii10045" unicode="&#xdb;" horiz-adv-x="825" 
d="M780 66q0 -38 -21.5 -58t-53.5 -20t-53.5 20t-21.5 58v580q0 38 21.5 58t53.5 20t53.5 -20t21.5 -58v-580zM548 222q0 -53 -17 -94t-47.5 -69.5t-73 -43.5t-94.5 -15h-191q-35 0 -57.5 20.5t-22.5 55.5v570q0 38 21.5 58t53.5 20t53.5 -20t21.5 -58v-206h103
q54 0 100 -13t79.5 -40t52 -68t18.5 -97zM392 224q0 35 -26 59.5t-80 24.5h-91v-176h103q42 0 68 25t26 67z" />
    <glyph glyph-name="afii10045" unicode="&#x42b;" horiz-adv-x="825" 
d="M780 66q0 -38 -21.5 -58t-53.5 -20t-53.5 20t-21.5 58v580q0 38 21.5 58t53.5 20t53.5 -20t21.5 -58v-580zM548 222q0 -53 -17 -94t-47.5 -69.5t-73 -43.5t-94.5 -15h-191q-35 0 -57.5 20.5t-22.5 55.5v570q0 38 21.5 58t53.5 20t53.5 -20t21.5 -58v-206h103
q54 0 100 -13t79.5 -40t52 -68t18.5 -97zM392 224q0 35 -26 59.5t-80 24.5h-91v-176h103q42 0 68 25t26 67z" />
    <glyph glyph-name="afii10046" unicode="&#xdc;" horiz-adv-x="556" 
d="M548 222q0 -53 -17 -94t-47.5 -69.5t-73 -43.5t-94.5 -15h-191q-35 0 -57.5 20.5t-22.5 55.5v570q0 38 21.5 58t53.5 20t53.5 -20t21.5 -58v-206h103q54 0 100 -13t79.5 -40t52 -68t18.5 -97zM392 224q0 35 -26 59.5t-80 24.5h-91v-176h103q42 0 68 25t26 67z" />
    <glyph glyph-name="afii10046" unicode="&#x42c;" horiz-adv-x="556" 
d="M548 222q0 -53 -17 -94t-47.5 -69.5t-73 -43.5t-94.5 -15h-191q-35 0 -57.5 20.5t-22.5 55.5v570q0 38 21.5 58t53.5 20t53.5 -20t21.5 -58v-206h103q54 0 100 -13t79.5 -40t52 -68t18.5 -97zM392 224q0 35 -26 59.5t-80 24.5h-91v-176h103q42 0 68 25t26 67z" />
    <glyph glyph-name="afii10047" unicode="&#xdd;" horiz-adv-x="611" 
d="M597 356q0 -78 -25 -145t-70.5 -116.5t-109 -78t-139.5 -28.5q-28 0 -66.5 5t-74 18t-60 36t-24.5 59q0 9 4 20.5t12 22t20.5 18t29.5 7.5q15 0 30 -6.5t33 -14.5t41 -14.5t55 -6.5q37 0 67.5 12t53.5 33t38.5 50t22.5 63h-208q-36 0 -54.5 21.5t-18.5 47.5t18 47.5
t55 21.5h205q-8 33 -23 60.5t-37.5 48t-52 32t-66.5 11.5q-32 0 -54 -5.5t-39 -12t-31 -12t-29 -5.5q-28 0 -45 20t-17 47q0 33 23.5 54.5t57 34.5t70.5 18t64 5q76 0 139.5 -28t109 -77.5t70.5 -117t25 -145.5z" />
    <glyph glyph-name="afii10047" unicode="&#x42d;" horiz-adv-x="611" 
d="M597 356q0 -78 -25 -145t-70.5 -116.5t-109 -78t-139.5 -28.5q-28 0 -66.5 5t-74 18t-60 36t-24.5 59q0 9 4 20.5t12 22t20.5 18t29.5 7.5q15 0 30 -6.5t33 -14.5t41 -14.5t55 -6.5q37 0 67.5 12t53.5 33t38.5 50t22.5 63h-208q-36 0 -54.5 21.5t-18.5 47.5t18 47.5
t55 21.5h205q-8 33 -23 60.5t-37.5 48t-52 32t-66.5 11.5q-32 0 -54 -5.5t-39 -12t-31 -12t-29 -5.5q-28 0 -45 20t-17 47q0 33 23.5 54.5t57 34.5t70.5 18t64 5q76 0 139.5 -28t109 -77.5t70.5 -117t25 -145.5z" />
    <glyph glyph-name="afii10048" unicode="&#xde;" horiz-adv-x="1000" 
d="M976 356q0 -78 -25 -145t-70 -116.5t-108.5 -78t-140.5 -28.5q-68 0 -125.5 22.5t-101.5 63t-73 96t-39 120.5h-98v-224q0 -38 -21.5 -58t-53.5 -20t-53.5 20t-21.5 58v580q0 38 21.5 58t53.5 20t53.5 -20t21.5 -58v-218h99q11 64 40 118.5t72.5 94t100.5 61.5t125 22
q75 0 138.5 -29t109 -79t71 -117t25.5 -143zM820 356q0 45 -12 87t-35.5 73.5t-59 50.5t-81.5 19q-47 0 -82 -19t-58.5 -50.5t-35.5 -73.5t-12 -87q0 -46 11.5 -87.5t35 -73t58.5 -50.5t83 -19t83 19t58.5 50.5t35 73t11.5 87.5z" />
    <glyph glyph-name="afii10048" unicode="&#x42e;" horiz-adv-x="1000" 
d="M976 356q0 -78 -25 -145t-70 -116.5t-108.5 -78t-140.5 -28.5q-68 0 -125.5 22.5t-101.5 63t-73 96t-39 120.5h-98v-224q0 -38 -21.5 -58t-53.5 -20t-53.5 20t-21.5 58v580q0 38 21.5 58t53.5 20t53.5 -20t21.5 -58v-218h99q11 64 40 118.5t72.5 94t100.5 61.5t125 22
q75 0 138.5 -29t109 -79t71 -117t25.5 -143zM820 356q0 45 -12 87t-35.5 73.5t-59 50.5t-81.5 19q-47 0 -82 -19t-58.5 -50.5t-35.5 -73.5t-12 -87q0 -46 11.5 -87.5t35 -73t58.5 -50.5t83 -19t83 19t58.5 50.5t35 73t11.5 87.5z" />
    <glyph glyph-name="afii10049" unicode="&#xdf;" horiz-adv-x="556" 
d="M526 66q0 -38 -21.5 -58t-53.5 -20t-53.5 20t-21.5 58v223h-2l-227 -275q-12 -14 -28 -20t-30 -6q-17 0 -30.5 6.5t-23.5 17.5t-15.5 24.5t-5.5 28.5q0 22 20 44l175 188q-38 6 -72 21t-59 38.5t-39.5 56t-14.5 73.5q0 59 17 101.5t49.5 70.5t78.5 41t104 13h176
q38 0 57.5 -21t19.5 -57v-568zM376 574h-103q-42 0 -67.5 -22.5t-25.5 -65.5q0 -42 25.5 -65.5t67.5 -23.5h103v177z" />
    <glyph glyph-name="afii10049" unicode="&#x42f;" horiz-adv-x="556" 
d="M526 66q0 -38 -21.5 -58t-53.5 -20t-53.5 20t-21.5 58v223h-2l-227 -275q-12 -14 -28 -20t-30 -6q-17 0 -30.5 6.5t-23.5 17.5t-15.5 24.5t-5.5 28.5q0 22 20 44l175 188q-38 6 -72 21t-59 38.5t-39.5 56t-14.5 73.5q0 59 17 101.5t49.5 70.5t78.5 41t104 13h176
q38 0 57.5 -21t19.5 -57v-568zM376 574h-103q-42 0 -67.5 -22.5t-25.5 -65.5q0 -42 25.5 -65.5t67.5 -23.5h103v177z" />
    <glyph glyph-name="afii10065" unicode="&#xe0;" horiz-adv-x="531" 
d="M495 65q0 -32 -19 -54.5t-51 -22.5q-23 0 -41.5 12.5t-26.5 46.5q-9 -15 -24.5 -26t-34 -18.5t-38.5 -11t-38 -3.5q-44 0 -80.5 11t-62.5 32.5t-41 54t-15 74.5q0 62 32.5 99t81.5 56.5t106.5 25.5t107.5 6v39q0 21 -16.5 29.5t-46.5 8.5q-31 0 -51 -7.5t-34.5 -17
t-26 -17t-25.5 -7.5q-34 0 -48.5 19.5t-14.5 41.5t19.5 41.5t49 34.5t64.5 23.5t67 8.5q100 0 153.5 -41.5t53.5 -119.5v-318zM357 239h-67.5t-63 -6.5t-47 -23t-18.5 -49.5q0 -15 7.5 -25t20 -16t28 -8.5t31.5 -2.5q57 0 83 28t26 80v23z" />
    <glyph glyph-name="afii10065" unicode="&#x430;" horiz-adv-x="531" 
d="M495 65q0 -32 -19 -54.5t-51 -22.5q-23 0 -41.5 12.5t-26.5 46.5q-9 -15 -24.5 -26t-34 -18.5t-38.5 -11t-38 -3.5q-44 0 -80.5 11t-62.5 32.5t-41 54t-15 74.5q0 62 32.5 99t81.5 56.5t106.5 25.5t107.5 6v39q0 21 -16.5 29.5t-46.5 8.5q-31 0 -51 -7.5t-34.5 -17
t-26 -17t-25.5 -7.5q-34 0 -48.5 19.5t-14.5 41.5t19.5 41.5t49 34.5t64.5 23.5t67 8.5q100 0 153.5 -41.5t53.5 -119.5v-318zM357 239h-67.5t-63 -6.5t-47 -23t-18.5 -49.5q0 -15 7.5 -25t20 -16t28 -8.5t31.5 -2.5q57 0 83 28t26 80v23z" />
    <glyph glyph-name="afii10066" unicode="&#xe1;" horiz-adv-x="556" 
d="M536 254q0 -54 -18.5 -102.5t-52.5 -84.5t-81.5 -57.5t-105.5 -21.5q-48 0 -86.5 13t-68.5 36.5t-51 56t-34 70.5t-15.5 80t-2.5 87q0 100 22.5 170.5t58.5 105.5q15 15 33 29.5t47.5 27t74 22t111.5 14.5q17 2 33.5 13t33.5 11q29 0 47.5 -19t18.5 -42
q0 -30 -27.5 -56.5t-81.5 -30.5q-35 -2 -62.5 -4.5t-50.5 -7t-43 -11.5t-40 -17q-17 -9 -33.5 -29t-18.5 -48h3q18 23 56.5 43t95.5 20q53 0 97 -21t75.5 -57.5t48.5 -85.5t17 -104zM392 259q0 25 -6.5 50t-20.5 45.5t-35.5 33t-51.5 12.5t-51.5 -12.5t-35.5 -33
t-20.5 -45.5t-6.5 -50t7 -49.5t21 -44.5t35.5 -32.5t50.5 -12.5t50.5 12.5t35.5 32.5t21 44.5t7 49.5z" />
    <glyph glyph-name="afii10066" unicode="&#x431;" horiz-adv-x="556" 
d="M536 254q0 -54 -18.5 -102.5t-52.5 -84.5t-81.5 -57.5t-105.5 -21.5q-48 0 -86.5 13t-68.5 36.5t-51 56t-34 70.5t-15.5 80t-2.5 87q0 100 22.5 170.5t58.5 105.5q15 15 33 29.5t47.5 27t74 22t111.5 14.5q17 2 33.5 13t33.5 11q29 0 47.5 -19t18.5 -42
q0 -30 -27.5 -56.5t-81.5 -30.5q-35 -2 -62.5 -4.5t-50.5 -7t-43 -11.5t-40 -17q-17 -9 -33.5 -29t-18.5 -48h3q18 23 56.5 43t95.5 20q53 0 97 -21t75.5 -57.5t48.5 -85.5t17 -104zM392 259q0 25 -6.5 50t-20.5 45.5t-35.5 33t-51.5 12.5t-51.5 -12.5t-35.5 -33
t-20.5 -45.5t-6.5 -50t7 -49.5t21 -44.5t35.5 -32.5t50.5 -12.5t50.5 12.5t35.5 32.5t21 44.5t7 49.5z" />
    <glyph glyph-name="afii10067" unicode="&#xe2;" horiz-adv-x="521" 
d="M488 162q0 -79 -48 -120.5t-126 -41.5h-204q-28 0 -48.5 19.5t-20.5 47.5v399q0 28 20.5 47t48.5 19h193q29 0 54.5 -9.5t44.5 -26.5t30 -41.5t11 -54.5q0 -39 -16.5 -65.5t-52.5 -43.5v-2q24 -3 45 -14t36 -28.5t24 -39t9 -45.5zM301 380q0 26 -17.5 39.5t-42.5 13.5
h-58v-112h58q28 0 44 15.5t16 43.5zM341 164q0 26 -20 42.5t-59 16.5h-79v-124h88q30 0 50 16.5t20 48.5z" />
    <glyph glyph-name="afii10067" unicode="&#x432;" horiz-adv-x="521" 
d="M488 162q0 -79 -48 -120.5t-126 -41.5h-204q-28 0 -48.5 19.5t-20.5 47.5v399q0 28 20.5 47t48.5 19h193q29 0 54.5 -9.5t44.5 -26.5t30 -41.5t11 -54.5q0 -39 -16.5 -65.5t-52.5 -43.5v-2q24 -3 45 -14t36 -28.5t24 -39t9 -45.5zM301 380q0 26 -17.5 39.5t-42.5 13.5
h-58v-112h58q28 0 44 15.5t16 43.5zM341 164q0 26 -20 42.5t-59 16.5h-79v-124h88q30 0 50 16.5t20 48.5z" />
    <glyph glyph-name="afii10068" unicode="&#xe3;" horiz-adv-x="410" 
d="M410 469q0 -34 -20.5 -48.5t-48.5 -14.5h-161v-338q0 -36 -20 -58t-52 -22t-52 22t-20 58v401q0 26 18 44.5t45 18.5h242q28 0 48.5 -14t20.5 -49z" />
    <glyph glyph-name="afii10068" unicode="&#x433;" horiz-adv-x="410" 
d="M410 469q0 -34 -20.5 -48.5t-48.5 -14.5h-161v-338q0 -36 -20 -58t-52 -22t-52 22t-20 58v401q0 26 18 44.5t45 18.5h242q28 0 48.5 -14t20.5 -49z" />
    <glyph glyph-name="afii10069" unicode="&#xe4;" horiz-adv-x="598" 
d="M600 -72q0 -36 -20 -58t-52 -22t-52 22t-20 58v72h-308v-72q0 -36 -20 -58t-52 -22t-52 22t-20 58v118q0 36 20 58t52 22h8q20 72 28 152t8 174q0 39 20 59.5t52 20.5h256q32 0 52 -22t20 -58v-326h8q32 0 52 -22t20 -58v-118zM384 416h-123q-2 -84 -11 -159t-26 -139
h160v298z" />
    <glyph glyph-name="afii10069" unicode="&#x434;" horiz-adv-x="598" 
d="M600 -72q0 -36 -20 -58t-52 -22t-52 22t-20 58v72h-308v-72q0 -36 -20 -58t-52 -22t-52 22t-20 58v118q0 36 20 58t52 22h8q20 72 28 152t8 174q0 39 20 59.5t52 20.5h256q32 0 52 -22t20 -58v-326h8q32 0 52 -22t20 -58v-118zM384 416h-123q-2 -84 -11 -159t-26 -139
h160v298z" />
    <glyph glyph-name="afii10070" unicode="&#xe5;" horiz-adv-x="537" 
d="M527 282q0 -32 -15 -48t-48 -16h-307q8 -54 46.5 -79t89.5 -25q28 0 51.5 9t43.5 20t37 20t31 9q23 0 41 -19.5t18 -42.5t-21.5 -45t-55.5 -39t-76 -27.5t-82 -10.5q-61 0 -110.5 21t-85 58t-55 87.5t-19.5 110.5q0 55 19 105.5t53 89t81.5 61.5t104.5 23q58 0 106 -24
t82 -62t52.5 -84.5t18.5 -91.5zM383 314q-6 48 -35 79t-80 31q-48 0 -78.5 -32t-35.5 -78h229z" />
    <glyph glyph-name="afii10070" unicode="&#x435;" horiz-adv-x="537" 
d="M527 282q0 -32 -15 -48t-48 -16h-307q8 -54 46.5 -79t89.5 -25q28 0 51.5 9t43.5 20t37 20t31 9q23 0 41 -19.5t18 -42.5t-21.5 -45t-55.5 -39t-76 -27.5t-82 -10.5q-61 0 -110.5 21t-85 58t-55 87.5t-19.5 110.5q0 55 19 105.5t53 89t81.5 61.5t104.5 23q58 0 106 -24
t82 -62t52.5 -84.5t18.5 -91.5zM383 314q-6 48 -35 79t-80 31q-48 0 -78.5 -32t-35.5 -78h229z" />
    <glyph glyph-name="afii10072" unicode="&#xe6;" horiz-adv-x="786" 
d="M786 56q0 -29 -19.5 -48.5t-48.5 -19.5q-20 0 -36 13.5t-33 30.5l-182 193h-2v-157q0 -36 -20 -58t-52 -22t-52 22t-20 58v157h-2l-182 -193q-17 -17 -33 -30.5t-36 -13.5q-29 0 -48.5 19.5t-19.5 48.5q0 12 3.5 24.5t14.5 23.5l181 175l-139 143q-13 14 -20.5 27.5
t-7.5 29.5q0 24 17 44.5t44 20.5q14 0 32.5 -7.5t32.5 -23.5l163 -187v138q0 36 20 58t52 22t52 -22t20 -58v-138l164 187q14 16 32.5 23.5t32.5 7.5q27 0 44 -20.5t17 -44.5q0 -16 -7.5 -29.5t-20.5 -27.5l-140 -143l181 -175q11 -11 14.5 -23.5t3.5 -24.5z" />
    <glyph glyph-name="afii10072" unicode="&#x436;" horiz-adv-x="786" 
d="M786 56q0 -29 -19.5 -48.5t-48.5 -19.5q-20 0 -36 13.5t-33 30.5l-182 193h-2v-157q0 -36 -20 -58t-52 -22t-52 22t-20 58v157h-2l-182 -193q-17 -17 -33 -30.5t-36 -13.5q-29 0 -48.5 19.5t-19.5 48.5q0 12 3.5 24.5t14.5 23.5l181 175l-139 143q-13 14 -20.5 27.5
t-7.5 29.5q0 24 17 44.5t44 20.5q14 0 32.5 -7.5t32.5 -23.5l163 -187v138q0 36 20 58t52 22t52 -22t20 -58v-138l164 187q14 16 32.5 23.5t32.5 7.5q27 0 44 -20.5t17 -44.5q0 -16 -7.5 -29.5t-20.5 -27.5l-140 -143l181 -175q11 -11 14.5 -23.5t3.5 -24.5z" />
    <glyph glyph-name="afii10073" unicode="&#xe7;" horiz-adv-x="467" 
d="M202 221q-26 0 -43.5 16.5t-17.5 42.5t17.5 41t43.5 15q15 0 30 2t27 7t19.5 14t7.5 24q0 16 -12.5 28.5t-46.5 12.5q-25 0 -43.5 -6t-33.5 -12.5t-28.5 -12.5t-28.5 -6q-26 0 -42.5 15.5t-16.5 40.5q0 27 19.5 46t49.5 31t66 18t70 6q43 0 76.5 -10.5t57 -29.5t35.5 -44
t12 -55q0 -35 -18.5 -66.5t-51.5 -48.5q42 -14 67 -52t25 -83q0 -34 -14.5 -64.5t-40.5 -53t-64 -36t-84 -13.5q-42 0 -82 8t-71.5 22.5t-50.5 35t-19 44.5q0 23 17 43t48 20q21 0 35.5 -8t29.5 -17t34 -17t49 -8q36 0 54.5 16t18.5 40q0 36 -27.5 45t-72.5 9z" />
    <glyph glyph-name="afii10073" unicode="&#x437;" horiz-adv-x="467" 
d="M202 221q-26 0 -43.5 16.5t-17.5 42.5t17.5 41t43.5 15q15 0 30 2t27 7t19.5 14t7.5 24q0 16 -12.5 28.5t-46.5 12.5q-25 0 -43.5 -6t-33.5 -12.5t-28.5 -12.5t-28.5 -6q-26 0 -42.5 15.5t-16.5 40.5q0 27 19.5 46t49.5 31t66 18t70 6q43 0 76.5 -10.5t57 -29.5t35.5 -44
t12 -55q0 -35 -18.5 -66.5t-51.5 -48.5q42 -14 67 -52t25 -83q0 -34 -14.5 -64.5t-40.5 -53t-64 -36t-84 -13.5q-42 0 -82 8t-71.5 22.5t-50.5 35t-19 44.5q0 23 17 43t48 20q21 0 35.5 -8t29.5 -17t34 -17t49 -8q36 0 54.5 16t18.5 40q0 36 -27.5 45t-72.5 9z" />
    <glyph glyph-name="afii10074" unicode="&#xe8;" horiz-adv-x="556" 
d="M515 68q0 -36 -20 -58t-52 -22t-52 22t-20 58v218h-2l-197 -265q-12 -16 -26 -24.5t-33 -8.5q-32 0 -52 22t-20 58v396q0 36 20 58t52 22t52 -22t20 -58v-214h2l184 250q15 20 33.5 32t38.5 12q32 0 52 -22t20 -58v-396v0z" />
    <glyph glyph-name="afii10074" unicode="&#x438;" horiz-adv-x="556" 
d="M515 68q0 -36 -20 -58t-52 -22t-52 22t-20 58v218h-2l-197 -265q-12 -16 -26 -24.5t-33 -8.5q-32 0 -52 22t-20 58v396q0 36 20 58t52 22t52 -22t20 -58v-214h2l184 250q15 20 33.5 32t38.5 12q32 0 52 -22t20 -58v-396v0z" />
    <glyph glyph-name="afii10075" unicode="&#xe9;" horiz-adv-x="556" 
d="M515 68q0 -36 -20 -58t-52 -22t-52 22t-20 58v218h-2l-197 -265q-12 -16 -26 -24.5t-33 -8.5q-32 0 -52 22t-20 58v396q0 36 20 58t52 22t52 -22t20 -58v-214h2l184 250q15 20 33.5 32t38.5 12q32 0 52 -22t20 -58v-396v0zM279 560q-31 0 -59 8t-49.5 22.5t-34.5 36
t-13 48.5q0 20 13 34.5t35 14.5q23 0 33 -10.5t18.5 -23.5t20 -23.5t36.5 -10.5q21 0 32 10.5t20.5 23.5t21 23.5t34.5 10.5q22 0 35 -14.5t13 -34.5q0 -27 -13 -48.5t-34.5 -36t-49.5 -22.5t-59 -8z" />
    <glyph glyph-name="afii10075" unicode="&#x439;" horiz-adv-x="556" 
d="M515 68q0 -36 -20 -58t-52 -22t-52 22t-20 58v218h-2l-197 -265q-12 -16 -26 -24.5t-33 -8.5q-32 0 -52 22t-20 58v396q0 36 20 58t52 22t52 -22t20 -58v-214h2l184 250q15 20 33.5 32t38.5 12q32 0 52 -22t20 -58v-396v0zM279 560q-31 0 -59 8t-49.5 22.5t-34.5 36
t-13 48.5q0 20 13 34.5t35 14.5q23 0 33 -10.5t18.5 -23.5t20 -23.5t36.5 -10.5q21 0 32 10.5t20.5 23.5t21 23.5t34.5 10.5q22 0 35 -14.5t13 -34.5q0 -27 -13 -48.5t-34.5 -36t-49.5 -22.5t-59 -8z" />
    <glyph glyph-name="afii10076" unicode="&#xea;" horiz-adv-x="505" 
d="M505 56q0 -29 -19.5 -48.5t-48.5 -19.5q-20 0 -36 13.5t-33 30.5l-181 193h-2v-157q0 -36 -20 -58t-52 -22t-52 22t-20 58v396q0 36 20 58t52 22t52 -22t20 -58v-138l163 187q14 16 32.5 23.5t32.5 7.5q27 0 44 -20.5t17 -44.5q0 -16 -7.5 -29.5t-20.5 -27.5l-139 -143
l180 -175q11 -11 14.5 -23.5t3.5 -24.5z" />
    <glyph glyph-name="afii10076" unicode="&#x43a;" horiz-adv-x="505" 
d="M505 56q0 -29 -19.5 -48.5t-48.5 -19.5q-20 0 -36 13.5t-33 30.5l-181 193h-2v-157q0 -36 -20 -58t-52 -22t-52 22t-20 58v396q0 36 20 58t52 22t52 -22t20 -58v-138l163 187q14 16 32.5 23.5t32.5 7.5q27 0 44 -20.5t17 -44.5q0 -16 -7.5 -29.5t-20.5 -27.5l-139 -143
l180 -175q11 -11 14.5 -23.5t3.5 -24.5z" />
    <glyph glyph-name="afii10077" unicode="&#xeb;" horiz-adv-x="556" 
d="M515 68q0 -36 -20 -58t-52 -22t-52 22t-20 58v338h-122v-155q0 -131 -51.5 -197t-132.5 -66q-30 0 -46.5 20t-16.5 44q0 20 11.5 36t32.5 23q11 3 21.5 10.5t19 22t13.5 36.5t5 54v218q0 36 20 58t52 22h266q32 0 52 -22t20 -58v-384v0z" />
    <glyph glyph-name="afii10077" unicode="&#x43b;" horiz-adv-x="556" 
d="M515 68q0 -36 -20 -58t-52 -22t-52 22t-20 58v338h-122v-155q0 -131 -51.5 -197t-132.5 -66q-30 0 -46.5 20t-16.5 44q0 20 11.5 36t32.5 23q11 3 21.5 10.5t19 22t13.5 36.5t5 54v218q0 36 20 58t52 22h266q32 0 52 -22t20 -58v-384v0z" />
    <glyph glyph-name="afii10078" unicode="&#xec;" horiz-adv-x="722" 
d="M697 57q0 -29 -19 -49t-49 -20q-37 0 -54 19t-21 45l-37 269h-2l-81 -282q-4 -16 -20.5 -33.5t-54.5 -17.5q-19 0 -32 5t-22 12.5t-14 16.5t-7 17l-80 282h-2l-36 -269q-4 -26 -21 -45t-54 -19q-29 0 -48.5 20t-19.5 49q0 11 1 14l72 410q4 22 28.5 42.5t61.5 20.5
q35 0 59 -19t31 -40l83 -269h2l82 269q7 21 31 40t59 19q19 0 35 -6t28 -15t19 -20t9 -22l72 -410q1 -3 1 -14z" />
    <glyph glyph-name="afii10078" unicode="&#x43c;" horiz-adv-x="722" 
d="M697 57q0 -29 -19 -49t-49 -20q-37 0 -54 19t-21 45l-37 269h-2l-81 -282q-4 -16 -20.5 -33.5t-54.5 -17.5q-19 0 -32 5t-22 12.5t-14 16.5t-7 17l-80 282h-2l-36 -269q-4 -26 -21 -45t-54 -19q-29 0 -48.5 20t-19.5 49q0 11 1 14l72 410q4 22 28.5 42.5t61.5 20.5
q35 0 59 -19t31 -40l83 -269h2l82 269q7 21 31 40t59 19q19 0 35 -6t28 -15t19 -20t9 -22l72 -410q1 -3 1 -14z" />
    <glyph glyph-name="afii10079" unicode="&#xed;" horiz-adv-x="556" 
d="M515 68q0 -36 -20 -58t-52 -22t-52 22t-20 58v146h-186v-146q0 -36 -20 -58t-52 -22t-52 22t-20 58v396q0 36 20 58t52 22t52 -22t20 -58v-124h186v124q0 36 20 58t52 22t52 -22t20 -58v-396v0z" />
    <glyph glyph-name="afii10079" unicode="&#x43d;" horiz-adv-x="556" 
d="M515 68q0 -36 -20 -58t-52 -22t-52 22t-20 58v146h-186v-146q0 -36 -20 -58t-52 -22t-52 22t-20 58v396q0 36 20 58t52 22t52 -22t20 -58v-124h186v124q0 36 20 58t52 22t52 -22t20 -58v-396v0z" />
    <glyph glyph-name="afii10080" unicode="&#xee;" horiz-adv-x="556" 
d="M536 265q0 -56 -18.5 -106.5t-52.5 -88.5t-81.5 -60t-105.5 -22t-105.5 22t-81.5 60t-52.5 88.5t-18.5 106.5q0 55 19 105.5t53 89t81.5 61.5t104.5 23t104.5 -23t81.5 -61.5t53 -89t19 -105.5zM392 265q0 25 -6.5 51.5t-20.5 47.5t-35.5 34.5t-51.5 13.5t-51.5 -13.5
t-35.5 -34.5t-20.5 -47.5t-6.5 -51.5q0 -26 7 -52t21 -46.5t35.5 -33.5t50.5 -13t50.5 13t35.5 33.5t21 46.5t7 52z" />
    <glyph glyph-name="afii10080" unicode="&#x43e;" horiz-adv-x="556" 
d="M536 265q0 -56 -18.5 -106.5t-52.5 -88.5t-81.5 -60t-105.5 -22t-105.5 22t-81.5 60t-52.5 88.5t-18.5 106.5q0 55 19 105.5t53 89t81.5 61.5t104.5 23t104.5 -23t81.5 -61.5t53 -89t19 -105.5zM392 265q0 25 -6.5 51.5t-20.5 47.5t-35.5 34.5t-51.5 13.5t-51.5 -13.5
t-35.5 -34.5t-20.5 -47.5t-6.5 -51.5q0 -26 7 -52t21 -46.5t35.5 -33.5t50.5 -13t50.5 13t35.5 33.5t21 46.5t7 52z" />
    <glyph glyph-name="afii10081" unicode="&#xef;" horiz-adv-x="556" 
d="M515 68q0 -36 -20 -58t-52 -22t-52 22t-20 58v338h-186v-338q0 -36 -20 -58t-52 -22t-52 22t-20 58v384q0 36 20 58t52 22h330q32 0 52 -22t20 -58v-384v0z" />
    <glyph glyph-name="afii10081" unicode="&#x43f;" horiz-adv-x="556" 
d="M515 68q0 -36 -20 -58t-52 -22t-52 22t-20 58v338h-186v-338q0 -36 -20 -58t-52 -22t-52 22t-20 58v384q0 36 20 58t52 22h330q32 0 52 -22t20 -58v-384v0z" />
    <glyph glyph-name="afii10082" unicode="&#xf0;" 
d="M554 259q0 -51 -16.5 -99.5t-47.5 -87t-75 -61.5t-98 -23q-34 0 -68.5 12.5t-63.5 37.5v-176q0 -36 -20 -58t-52 -22t-52 22t-20 58v602q0 36 20 58t52 22q30 0 47.5 -18.5t24.5 -47.5q20 33 57.5 49.5t79.5 16.5q58 0 101.5 -25t72.5 -65t43.5 -91.5t14.5 -103.5z
M410 265q0 25 -7 51.5t-21 47.5t-35 34.5t-49 13.5q-29 0 -50 -12.5t-35 -32.5t-21 -45.5t-7 -51.5t6.5 -53t20.5 -48.5t35 -35t51 -13.5q28 0 49 13t35 34t21 46.5t7 51.5z" />
    <glyph glyph-name="afii10082" unicode="&#x440;" 
d="M554 259q0 -51 -16.5 -99.5t-47.5 -87t-75 -61.5t-98 -23q-34 0 -68.5 12.5t-63.5 37.5v-176q0 -36 -20 -58t-52 -22t-52 22t-20 58v602q0 36 20 58t52 22q30 0 47.5 -18.5t24.5 -47.5q20 33 57.5 49.5t79.5 16.5q58 0 101.5 -25t72.5 -65t43.5 -91.5t14.5 -103.5z
M410 265q0 25 -7 51.5t-21 47.5t-35 34.5t-49 13.5q-29 0 -50 -12.5t-35 -32.5t-21 -45.5t-7 -51.5t6.5 -53t20.5 -48.5t35 -35t51 -13.5q28 0 49 13t35 34t21 46.5t7 51.5z" />
    <glyph glyph-name="afii10083" unicode="&#xf1;" horiz-adv-x="463" 
d="M454 87q0 -28 -20 -47t-48.5 -30.5t-58.5 -16.5t-49 -5q-58 0 -105.5 22t-81.5 60t-52.5 88.5t-18.5 106.5q0 55 19 105.5t53 89t81.5 61.5t104.5 23q21 0 51.5 -4.5t58 -15t47 -28t19.5 -43.5q0 -11 -4 -23.5t-11 -22.5t-17 -16.5t-23 -6.5q-14 0 -27 4.5t-26.5 9.5
t-28.5 9.5t-32 4.5q-31 0 -53.5 -12.5t-37.5 -33t-22.5 -47t-7.5 -54.5q0 -27 8 -53t23.5 -46.5t38 -33t51.5 -12.5q14 0 30 4.5t31 10.5t27.5 10.5t18.5 4.5q26 0 44 -18.5t18 -44.5z" />
    <glyph glyph-name="afii10083" unicode="&#x441;" horiz-adv-x="463" 
d="M454 87q0 -28 -20 -47t-48.5 -30.5t-58.5 -16.5t-49 -5q-58 0 -105.5 22t-81.5 60t-52.5 88.5t-18.5 106.5q0 55 19 105.5t53 89t81.5 61.5t104.5 23q21 0 51.5 -4.5t58 -15t47 -28t19.5 -43.5q0 -11 -4 -23.5t-11 -22.5t-17 -16.5t-23 -6.5q-14 0 -27 4.5t-26.5 9.5
t-28.5 9.5t-32 4.5q-31 0 -53.5 -12.5t-37.5 -33t-22.5 -47t-7.5 -54.5q0 -27 8 -53t23.5 -46.5t38 -33t51.5 -12.5q14 0 30 4.5t31 10.5t27.5 10.5t18.5 4.5q26 0 44 -18.5t18 -44.5z" />
    <glyph glyph-name="afii10084" unicode="&#xf2;" horiz-adv-x="478" 
d="M478 469q0 -34 -20.5 -48.5t-48.5 -14.5h-101v-338q0 -36 -20 -58t-52 -22t-52 22t-20 58v338h-101q-29 0 -46 17t-17 46q0 27 18 45t45 18h346q28 0 48.5 -14t20.5 -49z" />
    <glyph glyph-name="afii10084" unicode="&#x442;" horiz-adv-x="478" 
d="M478 469q0 -34 -20.5 -48.5t-48.5 -14.5h-101v-338q0 -36 -20 -58t-52 -22t-52 22t-20 58v338h-101q-29 0 -46 17t-17 46q0 27 18 45t45 18h346q28 0 48.5 -14t20.5 -49z" />
    <glyph glyph-name="afii10085" unicode="&#xf3;" horiz-adv-x="481" 
d="M483 482q0 -23 -7 -37l-241 -606q-9 -23 -25.5 -40t-42.5 -17q-37 0 -56 19.5t-19 42.5q0 11 2.5 21.5t6.5 20.5l63 156l-159 403q-3 8 -5 17t-2 20q0 13 6.5 24.5t16.5 20t22 13t23 4.5q26 0 44.5 -13.5t27.5 -37.5l99 -277l106 277q9 24 27.5 37.5t44.5 13.5
q11 0 23 -4.5t22 -13t16.5 -20t6.5 -24.5z" />
    <glyph glyph-name="afii10085" unicode="&#x443;" horiz-adv-x="481" 
d="M483 482q0 -23 -7 -37l-241 -606q-9 -23 -25.5 -40t-42.5 -17q-37 0 -56 19.5t-19 42.5q0 11 2.5 21.5t6.5 20.5l63 156l-159 403q-3 8 -5 17t-2 20q0 13 6.5 24.5t16.5 20t22 13t23 4.5q26 0 44.5 -13.5t27.5 -37.5l99 -277l106 277q9 24 27.5 37.5t44.5 13.5
q11 0 23 -4.5t22 -13t16.5 -20t6.5 -24.5z" />
    <glyph glyph-name="afii10086" unicode="&#xf4;" horiz-adv-x="848" 
d="M827 259q0 -51 -14.5 -99.5t-42 -87t-68.5 -61.5t-93 -23q-29 0 -59 10.5t-55 32.5v-169q0 -36 -20 -58t-52 -22t-52 22t-20 58v169q-25 -22 -55 -32.5t-59 -10.5q-52 0 -92.5 23t-68.5 61.5t-42.5 87t-14.5 99.5q0 52 12.5 103.5t39 91.5t66.5 65t96 25q32 0 65 -13.5
t53 -39.5v153q0 36 20 58t52 22t52 -22t20 -58v-153q20 26 53 39.5t65 13.5q55 0 95.5 -25t67 -65t39 -91.5t12.5 -103.5zM683 265q0 25 -6.5 51.5t-19 47.5t-32 34.5t-44.5 13.5q-35 0 -55 -17.5t-31 -45.5v-162q11 -29 31.5 -48t54.5 -19q26 0 45.5 13t32 34t18.5 46.5
t6 51.5zM351 349q-11 28 -32 45.5t-54 17.5q-26 0 -45.5 -13.5t-32 -34.5t-18.5 -47.5t-6 -51.5q0 -26 6 -51.5t18.5 -46.5t32 -34t45.5 -13q31 0 53 19t33 48v162z" />
    <glyph glyph-name="afii10086" unicode="&#x444;" horiz-adv-x="848" 
d="M827 259q0 -51 -14.5 -99.5t-42 -87t-68.5 -61.5t-93 -23q-29 0 -59 10.5t-55 32.5v-169q0 -36 -20 -58t-52 -22t-52 22t-20 58v169q-25 -22 -55 -32.5t-59 -10.5q-52 0 -92.5 23t-68.5 61.5t-42.5 87t-14.5 99.5q0 52 12.5 103.5t39 91.5t66.5 65t96 25q32 0 65 -13.5
t53 -39.5v153q0 36 20 58t52 22t52 -22t20 -58v-153q20 26 53 39.5t65 13.5q55 0 95.5 -25t67 -65t39 -91.5t12.5 -103.5zM683 265q0 25 -6.5 51.5t-19 47.5t-32 34.5t-44.5 13.5q-35 0 -55 -17.5t-31 -45.5v-162q11 -29 31.5 -48t54.5 -19q26 0 45.5 13t32 34t18.5 46.5
t6 51.5zM351 349q-11 28 -32 45.5t-54 17.5q-26 0 -45.5 -13.5t-32 -34.5t-18.5 -47.5t-6 -51.5q0 -26 6 -51.5t18.5 -46.5t32 -34t45.5 -13q31 0 53 19t33 48v162z" />
    <glyph glyph-name="afii10087" unicode="&#xf5;" horiz-adv-x="505" 
d="M510 58q0 -32 -19.5 -51t-51.5 -19q-24 0 -36.5 9t-23.5 23l-124 152l-124 -152q-11 -14 -23.5 -23t-36.5 -9q-32 0 -51.5 19t-19.5 51q0 12 6 26t14 23l151 172l-127 143q-9 11 -15.5 24.5t-6.5 27.5q0 15 6.5 27.5t17 22t23.5 15t27 5.5q17 0 29.5 -7t23.5 -21
l106 -132l106 132q11 14 23.5 21t29.5 7q14 0 27 -5.5t23.5 -15t17 -22t6.5 -27.5q0 -14 -6.5 -27.5t-15.5 -24.5l-127 -143l151 -172q8 -9 14 -23t6 -26z" />
    <glyph glyph-name="afii10087" unicode="&#x445;" horiz-adv-x="505" 
d="M510 58q0 -32 -19.5 -51t-51.5 -19q-24 0 -36.5 9t-23.5 23l-124 152l-124 -152q-11 -14 -23.5 -23t-36.5 -9q-32 0 -51.5 19t-19.5 51q0 12 6 26t14 23l151 172l-127 143q-9 11 -15.5 24.5t-6.5 27.5q0 15 6.5 27.5t17 22t23.5 15t27 5.5q17 0 29.5 -7t23.5 -21
l106 -132l106 132q11 14 23.5 21t29.5 7q14 0 27 -5.5t23.5 -15t17 -22t6.5 -27.5q0 -14 -6.5 -27.5t-15.5 -24.5l-127 -143l151 -172q8 -9 14 -23t6 -26z" />
    <glyph glyph-name="afii10088" unicode="&#xf6;" horiz-adv-x="593" 
d="M595 -72q0 -36 -20 -58t-52 -22t-52 22t-20 58v72h-338q-32 0 -52 22t-20 58v378q0 36 20 58t52 22t52 -22t20 -58v-332h186v332q0 36 20 58t52 22t52 -22t20 -58v-332h8q32 0 52 -22t20 -58v-118v0z" />
    <glyph glyph-name="afii10088" unicode="&#x446;" horiz-adv-x="593" 
d="M595 -72q0 -36 -20 -58t-52 -22t-52 22t-20 58v72h-338q-32 0 -52 22t-20 58v378q0 36 20 58t52 22t52 -22t20 -58v-332h186v332q0 36 20 58t52 22t52 -22t20 -58v-332h8q32 0 52 -22t20 -58v-118v0z" />
    <glyph glyph-name="afii10089" unicode="&#xf7;" horiz-adv-x="521" 
d="M481 68q0 -36 -20 -58t-52 -22t-52 22t-20 58v125q-23 -8 -53 -12.5t-54 -4.5q-44 0 -79.5 13t-61 37t-39 57t-13.5 73v108q0 36 20 58t52 22t52 -22t20 -58v-102q0 -30 20.5 -45t57.5 -15q41 0 78 17v145q0 36 20 58t52 22t52 -22t20 -58v-396v0z" />
    <glyph glyph-name="afii10089" unicode="&#x447;" horiz-adv-x="521" 
d="M481 68q0 -36 -20 -58t-52 -22t-52 22t-20 58v125q-23 -8 -53 -12.5t-54 -4.5q-44 0 -79.5 13t-61 37t-39 57t-13.5 73v108q0 36 20 58t52 22t52 -22t20 -58v-102q0 -30 20.5 -45t57.5 -15q41 0 78 17v145q0 36 20 58t52 22t52 -22t20 -58v-396v0z" />
    <glyph glyph-name="afii10090" unicode="&#xf8;" horiz-adv-x="800" 
d="M765 80q0 -36 -20 -58t-52 -22h-580q-32 0 -52 22t-20 58v384q0 36 20 58t52 22t52 -22t20 -58v-338h146v338q0 36 20 58t52 22t52 -22t20 -58v-338h146v338q0 36 20 58t52 22t52 -22t20 -58v-384v0z" />
    <glyph glyph-name="afii10090" unicode="&#x448;" horiz-adv-x="800" 
d="M765 80q0 -36 -20 -58t-52 -22h-580q-32 0 -52 22t-20 58v384q0 36 20 58t52 22t52 -22t20 -58v-338h146v338q0 36 20 58t52 22t52 -22t20 -58v-338h146v338q0 36 20 58t52 22t52 -22t20 -58v-384v0z" />
    <glyph glyph-name="afii10091" unicode="&#xf9;" horiz-adv-x="845" 
d="M845 -72q0 -36 -20 -58t-52 -22t-52 22t-20 58v72h-588q-32 0 -52 22t-20 58v384q0 36 20 58t52 22t52 -22t20 -58v-338h146v338q0 36 20 58t52 22t52 -22t20 -58v-338h146v338q0 36 20 58t52 22t52 -22t20 -58v-338h8q32 0 52 -22t20 -58v-118v0z" />
    <glyph glyph-name="afii10091" unicode="&#x449;" horiz-adv-x="845" 
d="M845 -72q0 -36 -20 -58t-52 -22t-52 22t-20 58v72h-588q-32 0 -52 22t-20 58v384q0 36 20 58t52 22t52 -22t20 -58v-338h146v338q0 36 20 58t52 22t52 -22t20 -58v-338h146v338q0 36 20 58t52 22t52 -22t20 -58v-338h8q32 0 52 -22t20 -58v-118v0z" />
    <glyph glyph-name="afii10092" unicode="&#xfa;" horiz-adv-x="603" 
d="M583 171q0 -41 -13 -72.5t-36.5 -53.5t-56.5 -33.5t-73 -11.5h-188q-32 0 -52 22t-20 58v326h-81q-29 0 -46 17t-17 46q0 27 18 45t45 18h153q32 0 52 -22t20 -58v-112h102q42 0 77.5 -10t61 -31t40 -53t14.5 -75zM439 173q0 20 -15.5 34t-46.5 14h-89v-102h95
q25 0 40.5 14.5t15.5 39.5z" />
    <glyph glyph-name="afii10092" unicode="&#x44a;" horiz-adv-x="603" 
d="M583 171q0 -41 -13 -72.5t-36.5 -53.5t-56.5 -33.5t-73 -11.5h-188q-32 0 -52 22t-20 58v326h-81q-29 0 -46 17t-17 46q0 27 18 45t45 18h153q32 0 52 -22t20 -58v-112h102q42 0 77.5 -10t61 -31t40 -53t14.5 -75zM439 173q0 20 -15.5 34t-46.5 14h-89v-102h95
q25 0 40.5 14.5t15.5 39.5z" />
    <glyph glyph-name="afii10093" unicode="&#xfb;" horiz-adv-x="732" 
d="M695 68q0 -36 -20 -58t-52 -22t-52 22t-20 58v396q0 36 20 58t52 22t52 -22t20 -58v-396zM480 171q0 -41 -13 -72.5t-36.5 -53.5t-56.5 -33.5t-73 -11.5h-188q-32 0 -52 22t-20 58v384q0 36 20 58t52 22t52 -22t20 -58v-124h102q42 0 77.5 -10t61 -31t40 -53t14.5 -75z
M336 173q0 20 -15.5 34t-46.5 14h-89v-102h95q25 0 40.5 14.5t15.5 39.5z" />
    <glyph glyph-name="afii10093" unicode="&#x44b;" horiz-adv-x="732" 
d="M695 68q0 -36 -20 -58t-52 -22t-52 22t-20 58v396q0 36 20 58t52 22t52 -22t20 -58v-396zM480 171q0 -41 -13 -72.5t-36.5 -53.5t-56.5 -33.5t-73 -11.5h-188q-32 0 -52 22t-20 58v384q0 36 20 58t52 22t52 -22t20 -58v-124h102q42 0 77.5 -10t61 -31t40 -53t14.5 -75z
M336 173q0 20 -15.5 34t-46.5 14h-89v-102h95q25 0 40.5 14.5t15.5 39.5z" />
    <glyph glyph-name="afii10094" unicode="&#xfc;" horiz-adv-x="500" 
d="M480 171q0 -41 -13 -72.5t-36.5 -53.5t-56.5 -33.5t-73 -11.5h-188q-32 0 -52 22t-20 58v384q0 36 20 58t52 22t52 -22t20 -58v-124h102q42 0 77.5 -10t61 -31t40 -53t14.5 -75zM336 173q0 20 -15.5 34t-46.5 14h-89v-102h95q25 0 40.5 14.5t15.5 39.5z" />
    <glyph glyph-name="afii10094" unicode="&#x44c;" horiz-adv-x="500" 
d="M480 171q0 -41 -13 -72.5t-36.5 -53.5t-56.5 -33.5t-73 -11.5h-188q-32 0 -52 22t-20 58v384q0 36 20 58t52 22t52 -22t20 -58v-124h102q42 0 77.5 -10t61 -31t40 -53t14.5 -75zM336 173q0 20 -15.5 34t-46.5 14h-89v-102h95q25 0 40.5 14.5t15.5 39.5z" />
    <glyph glyph-name="afii10095" unicode="&#xfd;" horiz-adv-x="463" 
d="M447 265q0 -56 -18.5 -106.5t-52.5 -88.5t-81.5 -60t-105.5 -22q-20 0 -49.5 5t-58 16.5t-48.5 30.5t-20 47q0 26 18 44.5t44 18.5q6 0 18.5 -4.5t27.5 -10.5t31 -10.5t30 -4.5q46 0 75 29t40 71h-111q-25 0 -43.5 13.5t-18.5 43.5q0 31 18.5 44t43.5 13h105
q-14 34 -40.5 56t-68.5 22q-17 0 -32 -4.5t-28.5 -9.5t-26.5 -9.5t-27 -4.5q-13 0 -23 6.5t-17 16.5t-11 22.5t-4 23.5q0 26 19.5 43.5t47 28t58 15t51.5 4.5q57 0 104.5 -23t81.5 -61.5t53 -89t19 -105.5z" />
    <glyph glyph-name="afii10095" unicode="&#x44d;" horiz-adv-x="463" 
d="M447 265q0 -56 -18.5 -106.5t-52.5 -88.5t-81.5 -60t-105.5 -22q-20 0 -49.5 5t-58 16.5t-48.5 30.5t-20 47q0 26 18 44.5t44 18.5q6 0 18.5 -4.5t27.5 -10.5t31 -10.5t30 -4.5q46 0 75 29t40 71h-111q-25 0 -43.5 13.5t-18.5 43.5q0 31 18.5 44t43.5 13h105
q-14 34 -40.5 56t-68.5 22q-17 0 -32 -4.5t-28.5 -9.5t-26.5 -9.5t-27 -4.5q-13 0 -23 6.5t-17 16.5t-11 22.5t-4 23.5q0 26 19.5 43.5t47 28t58 15t51.5 4.5q57 0 104.5 -23t81.5 -61.5t53 -89t19 -105.5z" />
    <glyph glyph-name="afii10096" unicode="&#xfe;" horiz-adv-x="778" 
d="M754 265q0 -56 -18.5 -106.5t-52.5 -88.5t-81.5 -60t-105.5 -22q-51 0 -94.5 17.5t-76 48t-54 71.5t-29.5 89h-57v-146q0 -36 -20 -58t-52 -22t-52 22t-20 58v396q0 36 20 58t52 22t52 -22t20 -58v-124h62q11 43 34 80t55 64.5t72.5 43.5t87.5 16q57 0 104.5 -23
t81.5 -61.5t53 -89t19 -105.5zM610 265q0 25 -6.5 51.5t-20.5 47.5t-35.5 34.5t-51.5 13.5t-51.5 -13.5t-35.5 -34.5t-20.5 -47.5t-6.5 -51.5q0 -26 7 -52t21 -46.5t35.5 -33.5t50.5 -13t50.5 13t35.5 33.5t21 46.5t7 52z" />
    <glyph glyph-name="afii10096" unicode="&#x44e;" horiz-adv-x="778" 
d="M754 265q0 -56 -18.5 -106.5t-52.5 -88.5t-81.5 -60t-105.5 -22q-51 0 -94.5 17.5t-76 48t-54 71.5t-29.5 89h-57v-146q0 -36 -20 -58t-52 -22t-52 22t-20 58v396q0 36 20 58t52 22t52 -22t20 -58v-124h62q11 43 34 80t55 64.5t72.5 43.5t87.5 16q57 0 104.5 -23
t81.5 -61.5t53 -89t19 -105.5zM610 265q0 25 -6.5 51.5t-20.5 47.5t-35.5 34.5t-51.5 13.5t-51.5 -13.5t-35.5 -34.5t-20.5 -47.5t-6.5 -51.5q0 -26 7 -52t21 -46.5t35.5 -33.5t50.5 -13t50.5 13t35.5 33.5t21 46.5t7 52z" />
    <glyph glyph-name="afii10097" unicode="&#xff;" horiz-adv-x="480" 
d="M441 74q0 -36 -20 -58t-52 -22t-52 22t-20 58v128h-2l-153 -185q-11 -13 -25.5 -18t-26.5 -5q-30 0 -49 21.5t-19 47.5q0 22 18 40l114 122q-51 13 -85.5 47t-34.5 91q0 88 49 128.5t137 40.5h149q32 0 52 -22t20 -58v-378zM297 429h-49q-31 0 -50.5 -17t-19.5 -49
t19.5 -49t50.5 -17h49v132z" />
    <glyph glyph-name="afii10097" unicode="&#x44f;" horiz-adv-x="480" 
d="M441 74q0 -36 -20 -58t-52 -22t-52 22t-20 58v128h-2l-153 -185q-11 -13 -25.5 -18t-26.5 -5q-30 0 -49 21.5t-19 47.5q0 22 18 40l114 122q-51 13 -85.5 47t-34.5 91q0 88 49 128.5t137 40.5h149q32 0 52 -22t20 -58v-378zM297 429h-49q-31 0 -50.5 -17t-19.5 -49
t19.5 -49t50.5 -17h49v132z" />
    <glyph glyph-name="afii10071" unicode="&#xb8;" horiz-adv-x="537" 
d="M527 282q0 -32 -15 -48t-48 -16h-307q8 -54 46.5 -79t89.5 -25q28 0 51.5 9t43.5 20t37 20t31 9q23 0 41 -19.5t18 -42.5t-21.5 -45t-55.5 -39t-76 -27.5t-82 -10.5q-61 0 -110.5 21t-85 58t-55 87.5t-19.5 110.5q0 55 19 105.5t53 89t81.5 61.5t104.5 23q58 0 106 -24
t82 -62t52.5 -84.5t18.5 -91.5zM383 314q-6 48 -35 79t-80 31q-48 0 -78.5 -32t-35.5 -78h229zM454 652q0 -30 -21 -51t-51 -21t-51 21t-21 51t21 51t51 21t51 -21t21 -51zM234 652q0 -30 -21 -51t-51 -21t-51 21t-21 51t21 51t51 21t51 -21t21 -51z" />
    <glyph glyph-name="afii10071" unicode="&#x451;" horiz-adv-x="537" 
d="M527 282q0 -32 -15 -48t-48 -16h-307q8 -54 46.5 -79t89.5 -25q28 0 51.5 9t43.5 20t37 20t31 9q23 0 41 -19.5t18 -42.5t-21.5 -45t-55.5 -39t-76 -27.5t-82 -10.5q-61 0 -110.5 21t-85 58t-55 87.5t-19.5 110.5q0 55 19 105.5t53 89t81.5 61.5t104.5 23q58 0 106 -24
t82 -62t52.5 -84.5t18.5 -91.5zM383 314q-6 48 -35 79t-80 31q-48 0 -78.5 -32t-35.5 -78h229zM454 652q0 -30 -21 -51t-51 -21t-51 21t-21 51t21 51t51 21t51 -21t21 -51zM234 652q0 -30 -21 -51t-51 -21t-51 21t-21 51t21 51t51 21t51 -21t21 -51z" />
    <glyph glyph-name="afii10099" horiz-adv-x="561" 
d="M234 -141q0 27 17 47q28 31 53 60t44.5 62t31 73.5t11.5 94.5q0 39 -7.5 63.5t-20 39t-30 20t-36.5 5.5q-45 0 -68.5 -28.5t-23.5 -70.5v-157q0 -36 -20 -58t-52 -22t-52 22t-20 58v448h-25q-26 0 -41 15.5t-15 41.5q0 24 16 40.5t40 16.5h25v60q0 36 20 58t52 22t52 -22
t20 -58v-60h173q25 0 43.5 -13t18.5 -44q0 -30 -18.5 -43.5t-43.5 -13.5h-173v-122h2q12 14 27.5 23.5t33 15.5t35.5 8.5t35 2.5q42 0 78.5 -12t62.5 -37.5t41 -64t15 -92.5q0 -78 -16 -141.5t-40.5 -114.5t-55 -92t-60.5 -75q-10 -13 -25 -20.5t-32 -7.5q-30 0 -51 21
t-21 51z" />
    <glyph glyph-name="afii10099" unicode="&#x452;" horiz-adv-x="561" 
d="M234 -141q0 27 17 47q28 31 53 60t44.5 62t31 73.5t11.5 94.5q0 39 -7.5 63.5t-20 39t-30 20t-36.5 5.5q-45 0 -68.5 -28.5t-23.5 -70.5v-157q0 -36 -20 -58t-52 -22t-52 22t-20 58v448h-25q-26 0 -41 15.5t-15 41.5q0 24 16 40.5t40 16.5h25v60q0 36 20 58t52 22t52 -22
t20 -58v-60h173q25 0 43.5 -13t18.5 -44q0 -30 -18.5 -43.5t-43.5 -13.5h-173v-122h2q12 14 27.5 23.5t33 15.5t35.5 8.5t35 2.5q42 0 78.5 -12t62.5 -37.5t41 -64t15 -92.5q0 -78 -16 -141.5t-40.5 -114.5t-55 -92t-60.5 -75q-10 -13 -25 -20.5t-32 -7.5q-30 0 -51 21
t-21 51z" />
    <glyph glyph-name="afii10100" unicode="&#x192;" horiz-adv-x="410" 
d="M410 469q0 -34 -20.5 -48.5t-48.5 -14.5h-161v-338q0 -36 -20 -58t-52 -22t-52 22t-20 58v401q0 26 18 44.5t45 18.5h242q28 0 48.5 -14t20.5 -49zM346 711q0 -42 -41 -59l-112 -44q-11 -5 -18 -7.5t-22 -2.5q-11 0 -21 6.5t-17 17t-11 23.5t-4 26q0 11 7.5 22t20.5 18
l126 52q21 10 38 10q11 0 21 -6t17.5 -15t11.5 -20t4 -21z" />
    <glyph glyph-name="afii10100" unicode="&#x453;" horiz-adv-x="410" 
d="M410 469q0 -34 -20.5 -48.5t-48.5 -14.5h-161v-338q0 -36 -20 -58t-52 -22t-52 22t-20 58v401q0 26 18 44.5t45 18.5h242q28 0 48.5 -14t20.5 -49zM346 711q0 -42 -41 -59l-112 -44q-11 -5 -18 -7.5t-22 -2.5q-11 0 -21 6.5t-17 17t-11 23.5t-4 26q0 11 7.5 22t20.5 18
l126 52q21 10 38 10q11 0 21 -6t17.5 -15t11.5 -20t4 -21z" />
    <glyph glyph-name="afii10101" unicode="&#xba;" horiz-adv-x="463" 
d="M451 87q0 -28 -20 -47t-48.5 -30.5t-58.5 -16.5t-49 -5q-58 0 -105.5 22t-81.5 60t-52.5 88.5t-18.5 106.5q0 55 19 105.5t53 89t81.5 61.5t104.5 23q21 0 51.5 -4.5t58 -15t47 -28t19.5 -43.5q0 -11 -4 -23.5t-11 -22.5t-17 -16.5t-23 -6.5q-14 0 -27 4.5t-26.5 9.5
t-28.5 9.5t-32 4.5q-42 0 -68.5 -22t-40.5 -56h105q25 0 43.5 -13t18.5 -44q0 -30 -18.5 -43.5t-43.5 -13.5h-111q11 -42 40 -71t75 -29q14 0 30 4.5t31 10.5t27.5 10.5t18.5 4.5q26 0 44 -18.5t18 -44.5z" />
    <glyph glyph-name="afii10101" unicode="&#x454;" horiz-adv-x="463" 
d="M451 87q0 -28 -20 -47t-48.5 -30.5t-58.5 -16.5t-49 -5q-58 0 -105.5 22t-81.5 60t-52.5 88.5t-18.5 106.5q0 55 19 105.5t53 89t81.5 61.5t104.5 23q21 0 51.5 -4.5t58 -15t47 -28t19.5 -43.5q0 -11 -4 -23.5t-11 -22.5t-17 -16.5t-23 -6.5q-14 0 -27 4.5t-26.5 9.5
t-28.5 9.5t-32 4.5q-42 0 -68.5 -22t-40.5 -56h105q25 0 43.5 -13t18.5 -44q0 -30 -18.5 -43.5t-43.5 -13.5h-111q11 -42 40 -71t75 -29q14 0 30 4.5t31 10.5t27.5 10.5t18.5 4.5q26 0 44 -18.5t18 -44.5z" />
    <glyph glyph-name="afii10102" unicode="&#xbe;" horiz-adv-x="426" 
d="M416 157q0 -36 -14.5 -67t-41.5 -53.5t-65 -35.5t-84 -13q-30 0 -65.5 8t-65.5 23t-50 35.5t-20 44.5q0 8 4 19t12 21t19.5 17t26.5 7q21 0 37.5 -7.5t32.5 -17t34.5 -17t44.5 -7.5q33 0 45 10.5t12 30.5q0 16 -18.5 27.5t-46.5 22.5t-60 23.5t-60 31.5t-46.5 47
t-18.5 69q0 37 14.5 68t40.5 53.5t61.5 34.5t78.5 12q27 0 58.5 -6.5t58.5 -19t45 -32t18 -46.5q0 -25 -16.5 -44.5t-42.5 -19.5q-11 0 -25.5 6.5t-31.5 14.5t-35.5 14.5t-36.5 6.5q-20 0 -34.5 -9.5t-14.5 -30.5q0 -17 18.5 -28.5t46.5 -22.5t60 -23.5t60 -31.5t46.5 -46.5
t18.5 -68.5z" />
    <glyph glyph-name="afii10102" unicode="&#x455;" horiz-adv-x="426" 
d="M416 157q0 -36 -14.5 -67t-41.5 -53.5t-65 -35.5t-84 -13q-30 0 -65.5 8t-65.5 23t-50 35.5t-20 44.5q0 8 4 19t12 21t19.5 17t26.5 7q21 0 37.5 -7.5t32.5 -17t34.5 -17t44.5 -7.5q33 0 45 10.5t12 30.5q0 16 -18.5 27.5t-46.5 22.5t-60 23.5t-60 31.5t-46.5 47
t-18.5 69q0 37 14.5 68t40.5 53.5t61.5 34.5t78.5 12q27 0 58.5 -6.5t58.5 -19t45 -32t18 -46.5q0 -25 -16.5 -44.5t-42.5 -19.5q-11 0 -25.5 6.5t-31.5 14.5t-35.5 14.5t-36.5 6.5q-20 0 -34.5 -9.5t-14.5 -30.5q0 -17 18.5 -28.5t46.5 -22.5t60 -23.5t60 -31.5t46.5 -46.5
t18.5 -68.5z" />
    <glyph glyph-name="afii10103" unicode="&#xb3;" horiz-adv-x="222" 
d="M192 675q0 -34 -23.5 -58.5t-57.5 -24.5q-16 0 -30.5 7t-26 18t-18 26t-6.5 32q0 15 6.5 29.5t18 25.5t26 17.5t30.5 6.5t30.5 -6.5t26 -17.5t18 -25t6.5 -30zM183 68q0 -36 -20 -58t-52 -22t-52 22t-20 58v396q0 36 20 58t52 22t52 -22t20 -58v-396z" />
    <glyph glyph-name="afii10103" unicode="&#x456;" horiz-adv-x="222" 
d="M192 675q0 -34 -23.5 -58.5t-57.5 -24.5q-16 0 -30.5 7t-26 18t-18 26t-6.5 32q0 15 6.5 29.5t18 25.5t26 17.5t30.5 6.5t30.5 -6.5t26 -17.5t18 -25t6.5 -30zM183 68q0 -36 -20 -58t-52 -22t-52 22t-20 58v396q0 36 20 58t52 22t52 -22t20 -58v-396z" />
    <glyph glyph-name="afii10104" unicode="&#xbf;" horiz-adv-x="222" 
d="M183 68q0 -36 -20 -58t-52 -22t-52 22t-20 58v396q0 36 20 58t52 22t52 -22t20 -58v-396v0zM294 652q0 -30 -21 -51t-51 -21t-51 21t-21 51t21 51t51 21t51 -21t21 -51zM74 652q0 -30 -21 -51t-51 -21t-51 21t-21 51t21 51t51 21t51 -21t21 -51z" />
    <glyph glyph-name="afii10104" unicode="&#x457;" horiz-adv-x="222" 
d="M183 68q0 -36 -20 -58t-52 -22t-52 22t-20 58v396q0 36 20 58t52 22t52 -22t20 -58v-396v0zM294 652q0 -30 -21 -51t-51 -21t-51 21t-21 51t21 51t51 21t51 -21t21 -51zM74 652q0 -30 -21 -51t-51 -21t-51 21t-21 51t21 51t51 21t51 -21t21 -51z" />
    <glyph glyph-name="afii10105" unicode="&#xbc;" horiz-adv-x="222" 
d="M192 675q0 -34 -23.5 -58.5t-57.5 -24.5q-16 0 -30.5 7t-26 18t-18 26t-6.5 32q0 15 6.5 29.5t18 25.5t26 17.5t30.5 6.5t30.5 -6.5t26 -17.5t18 -25t6.5 -30zM183 -138q0 -36 -20 -58t-52 -22t-52 22t-20 58v602q0 36 20 58t52 22t52 -22t20 -58v-602z" />
    <glyph glyph-name="afii10105" unicode="&#x458;" horiz-adv-x="222" 
d="M192 675q0 -34 -23.5 -58.5t-57.5 -24.5q-16 0 -30.5 7t-26 18t-18 26t-6.5 32q0 15 6.5 29.5t18 25.5t26 17.5t30.5 6.5t30.5 -6.5t26 -17.5t18 -25t6.5 -30zM183 -138q0 -36 -20 -58t-52 -22t-52 22t-20 58v602q0 36 20 58t52 22t52 -22t20 -58v-602z" />
    <glyph glyph-name="afii10106" unicode="&#x161;" horiz-adv-x="830" 
d="M810 171q0 -41 -13 -72.5t-36.5 -53.5t-56.5 -33.5t-73 -11.5h-188q-32 0 -52 22t-20 58v326h-122v-155q0 -131 -51.5 -197t-132.5 -66q-30 0 -46.5 20t-16.5 44q0 20 11.5 36t32.5 23q11 3 21.5 10.5t19 22t13.5 36.5t5 54v218q0 36 20 58t52 22h266q32 0 52 -22t20 -58
v-112h102q42 0 77.5 -10t61 -31t40 -53t14.5 -75zM666 173q0 20 -15.5 34t-46.5 14h-89v-102h95q25 0 40.5 14.5t15.5 39.5z" />
    <glyph glyph-name="afii10106" unicode="&#x459;" horiz-adv-x="830" 
d="M810 171q0 -41 -13 -72.5t-36.5 -53.5t-56.5 -33.5t-73 -11.5h-188q-32 0 -52 22t-20 58v326h-122v-155q0 -131 -51.5 -197t-132.5 -66q-30 0 -46.5 20t-16.5 44q0 20 11.5 36t32.5 23q11 3 21.5 10.5t19 22t13.5 36.5t5 54v218q0 36 20 58t52 22h266q32 0 52 -22t20 -58
v-112h102q42 0 77.5 -10t61 -31t40 -53t14.5 -75zM666 173q0 20 -15.5 34t-46.5 14h-89v-102h95q25 0 40.5 14.5t15.5 39.5z" />
    <glyph glyph-name="afii10107" unicode="&#x153;" horiz-adv-x="830" 
d="M810 171q0 -41 -13 -72.5t-36.5 -53.5t-56.5 -33.5t-73 -11.5h-188q-32 0 -52 22t-20 58v141h-186v-153q0 -36 -20 -58t-52 -22t-52 22t-20 58v396q0 36 20 58t52 22t52 -22t20 -58v-124h186v124q0 36 20 58t52 22t52 -22t20 -58v-124h102q42 0 77.5 -10t61 -31t40 -53
t14.5 -75zM666 173q0 20 -15.5 34t-46.5 14h-89v-102h95q25 0 40.5 14.5t15.5 39.5z" />
    <glyph glyph-name="afii10107" unicode="&#x45a;" horiz-adv-x="830" 
d="M810 171q0 -41 -13 -72.5t-36.5 -53.5t-56.5 -33.5t-73 -11.5h-188q-32 0 -52 22t-20 58v141h-186v-153q0 -36 -20 -58t-52 -22t-52 22t-20 58v396q0 36 20 58t52 22t52 -22t20 -58v-124h186v124q0 36 20 58t52 22t52 -22t20 -58v-124h102q42 0 77.5 -10t61 -31t40 -53
t14.5 -75zM666 173q0 20 -15.5 34t-46.5 14h-89v-102h95q25 0 40.5 14.5t15.5 39.5z" />
    <glyph glyph-name="afii10108" horiz-adv-x="576" 
d="M535 68q0 -36 -20 -58t-52 -22t-52 22t-20 58v157q0 51 -27.5 75t-66.5 24q-45 0 -68.5 -28.5t-23.5 -70.5v-157q0 -36 -20 -58t-52 -22t-52 22t-20 58v448h-25q-26 0 -41 15.5t-15 41.5q0 24 16 40.5t40 16.5h25v60q0 36 20 58t52 22t52 -22t20 -58v-60h173
q25 0 43.5 -13t18.5 -44q0 -30 -18.5 -43.5t-43.5 -13.5h-173v-122h2q12 14 27.5 23.5t33 15.5t35.5 8.5t35 2.5q42 0 78.5 -13t62.5 -38t41 -61t15 -82v-182v0z" />
    <glyph glyph-name="afii10108" unicode="&#x45b;" horiz-adv-x="576" 
d="M535 68q0 -36 -20 -58t-52 -22t-52 22t-20 58v157q0 51 -27.5 75t-66.5 24q-45 0 -68.5 -28.5t-23.5 -70.5v-157q0 -36 -20 -58t-52 -22t-52 22t-20 58v448h-25q-26 0 -41 15.5t-15 41.5q0 24 16 40.5t40 16.5h25v60q0 36 20 58t52 22t52 -22t20 -58v-60h173
q25 0 43.5 -13t18.5 -44q0 -30 -18.5 -43.5t-43.5 -13.5h-173v-122h2q12 14 27.5 23.5t33 15.5t35.5 8.5t35 2.5q42 0 78.5 -13t62.5 -38t41 -61t15 -82v-182v0z" />
    <glyph glyph-name="afii10109" horiz-adv-x="505" 
d="M505 56q0 -29 -19.5 -48.5t-48.5 -19.5q-20 0 -36 13.5t-33 30.5l-181 193h-2v-157q0 -36 -20 -58t-52 -22t-52 22t-20 58v396q0 36 20 58t52 22t52 -22t20 -58v-138l163 187q14 16 32.5 23.5t32.5 7.5q27 0 44 -20.5t17 -44.5q0 -16 -7.5 -29.5t-20.5 -27.5l-139 -143
l180 -175q11 -11 14.5 -23.5t3.5 -24.5zM386 711q0 -42 -41 -59l-112 -44q-11 -5 -18 -7.5t-22 -2.5q-11 0 -21 6.5t-17 17t-11 23.5t-4 26q0 11 7.5 22t20.5 18l126 52q21 10 38 10q11 0 21 -6t17.5 -15t11.5 -20t4 -21z" />
    <glyph glyph-name="afii10109" unicode="&#x45c;" horiz-adv-x="505" 
d="M505 56q0 -29 -19.5 -48.5t-48.5 -19.5q-20 0 -36 13.5t-33 30.5l-181 193h-2v-157q0 -36 -20 -58t-52 -22t-52 22t-20 58v396q0 36 20 58t52 22t52 -22t20 -58v-138l163 187q14 16 32.5 23.5t32.5 7.5q27 0 44 -20.5t17 -44.5q0 -16 -7.5 -29.5t-20.5 -27.5l-139 -143
l180 -175q11 -11 14.5 -23.5t3.5 -24.5zM386 711q0 -42 -41 -59l-112 -44q-11 -5 -18 -7.5t-22 -2.5q-11 0 -21 6.5t-17 17t-11 23.5t-4 26q0 11 7.5 22t20.5 18l126 52q21 10 38 10q11 0 21 -6t17.5 -15t11.5 -20t4 -21z" />
    <glyph glyph-name="afii10110" unicode="&#xa2;" horiz-adv-x="481" 
d="M483 482q0 -23 -7 -37l-241 -606q-9 -23 -25.5 -40t-42.5 -17q-37 0 -56 19.5t-19 42.5q0 11 2.5 21.5t6.5 20.5l63 156l-159 403q-3 8 -5 17t-2 20q0 13 6.5 24.5t16.5 20t22 13t23 4.5q26 0 44.5 -13.5t27.5 -37.5l99 -277l106 277q9 24 27.5 37.5t44.5 13.5
q11 0 23 -4.5t22 -13t16.5 -20t6.5 -24.5zM239 560q-31 0 -59 8t-49.5 22.5t-34.5 36t-13 48.5q0 20 13 34.5t35 14.5q23 0 33 -10.5t18.5 -23.5t20 -23.5t36.5 -10.5q21 0 32 10.5t20.5 23.5t21 23.5t34.5 10.5q22 0 35 -14.5t13 -34.5q0 -27 -13 -48.5t-34.5 -36
t-49.5 -22.5t-59 -8z" />
    <glyph glyph-name="afii10110" unicode="&#x45e;" horiz-adv-x="481" 
d="M483 482q0 -23 -7 -37l-241 -606q-9 -23 -25.5 -40t-42.5 -17q-37 0 -56 19.5t-19 42.5q0 11 2.5 21.5t6.5 20.5l63 156l-159 403q-3 8 -5 17t-2 20q0 13 6.5 24.5t16.5 20t22 13t23 4.5q26 0 44.5 -13.5t27.5 -37.5l99 -277l106 277q9 24 27.5 37.5t44.5 13.5
q11 0 23 -4.5t22 -13t16.5 -20t6.5 -24.5zM239 560q-31 0 -59 8t-49.5 22.5t-34.5 36t-13 48.5q0 20 13 34.5t35 14.5q23 0 33 -10.5t18.5 -23.5t20 -23.5t36.5 -10.5q21 0 32 10.5t20.5 23.5t21 23.5t34.5 10.5q22 0 35 -14.5t13 -34.5q0 -27 -13 -48.5t-34.5 -36
t-49.5 -22.5t-59 -8z" />
    <glyph glyph-name="afii10193" unicode="&#x178;" horiz-adv-x="556" 
d="M515 80q0 -36 -20 -58t-52 -22h-92v-114q0 -36 -20 -58t-52 -22t-52 22t-20 58v114h-94q-32 0 -52 22t-20 58v384q0 36 20 58t52 22t52 -22t20 -58v-338h186v338q0 36 20 58t52 22t52 -22t20 -58v-384v0z" />
    <glyph glyph-name="afii10193" unicode="&#x45f;" horiz-adv-x="556" 
d="M515 80q0 -36 -20 -58t-52 -22h-92v-114q0 -36 -20 -58t-52 -22t-52 22t-20 58v114h-94q-32 0 -52 22t-20 58v384q0 36 20 58t52 22t52 -22t20 -58v-338h186v338q0 36 20 58t52 22t52 -22t20 -58v-384v0z" />
    <glyph glyph-name="afii10050" unicode="&#xa5;" horiz-adv-x="444" 
d="M446 643q0 -26 -16.5 -47.5t-50.5 -21.5h-184v-507q0 -38 -21.5 -58t-53.5 -20t-53.5 20t-21.5 58v567q0 31 20 54.5t58 23.5h179v49q0 36 20 58t52 22t52 -22t20 -58v-118v0z" />
    <glyph glyph-name="afii10050" unicode="&#x490;" horiz-adv-x="444" 
d="M446 643q0 -26 -16.5 -47.5t-50.5 -21.5h-184v-507q0 -38 -21.5 -58t-53.5 -20t-53.5 20t-21.5 58v567q0 31 20 54.5t58 23.5h179v49q0 36 20 58t52 22t52 -22t20 -58v-118v0z" />
    <glyph glyph-name="afii10098" unicode="&#xb4;" horiz-adv-x="410" 
d="M410 469q0 -34 -20.5 -48.5t-48.5 -14.5h-161v-338q0 -36 -20 -58t-52 -22t-52 22t-20 58v401q0 26 18 44.5t45 18.5h167v55q0 36 20 58t52 22t52 -22t20 -58v-118v0z" />
    <glyph glyph-name="afii10098" unicode="&#x491;" horiz-adv-x="410" 
d="M410 469q0 -34 -20.5 -48.5t-48.5 -14.5h-161v-338q0 -36 -20 -58t-52 -22t-52 22t-20 58v401q0 26 18 44.5t45 18.5h167v55q0 36 20 58t52 22t52 -22t20 -58v-118v0z" />
    <glyph glyph-name="endash" unicode="&#x2013;" horiz-adv-x="500" 
d="M500 290q0 -27 -16 -43.5t-44 -16.5h-380q-28 0 -44 16.5t-16 43.5t16 43.5t44 16.5h380q28 0 44 -16.5t16 -43.5z" />
    <glyph glyph-name="emdash" unicode="&#x2014;" horiz-adv-x="1000" 
d="M1000 290q0 -27 -16 -43.5t-44 -16.5h-880q-28 0 -44 16.5t-16 43.5t16 43.5t44 16.5h880q28 0 44 -16.5t16 -43.5z" />
    <glyph glyph-name="quoteleft" unicode="&#x2018;" horiz-adv-x="240" 
d="M231 658q0 -11 -4 -21t-9 -19l-84 -150q-10 -17 -27.5 -25.5t-29.5 -8.5q-27 0 -47.5 19.5t-20.5 46.5q0 11 3.5 20.5t8.5 19.5l83 150q10 17 28 25.5t30 8.5q27 0 48 -19.5t21 -46.5z" />
    <glyph glyph-name="quoteright" unicode="&#x2019;" horiz-adv-x="240" 
d="M231 658q0 -11 -4 -21t-9 -19l-84 -150q-10 -17 -27.5 -25.5t-29.5 -8.5q-27 0 -47.5 19.5t-20.5 46.5q0 11 3.5 20.5t8.5 19.5l83 150q10 17 28 25.5t30 8.5q27 0 48 -19.5t21 -46.5z" />
    <glyph glyph-name="quotesinglbase" unicode="&#x201a;" horiz-adv-x="240" 
d="M231 90q0 -11 -4 -20.5t-9 -19.5l-84 -150q-10 -17 -27.5 -25.5t-29.5 -8.5q-27 0 -47.5 19.5t-20.5 46.5q0 11 3.5 20.5t8.5 19.5l83 150q10 17 28 25.5t30 8.5q27 0 48 -19.5t21 -46.5z" />
    <glyph glyph-name="quotedblleft" unicode="&#x201c;" horiz-adv-x="444" 
d="M435 658q0 -11 -4 -21t-9 -19l-84 -150q-10 -17 -27.5 -25.5t-29.5 -8.5q-27 0 -47.5 19.5t-20.5 46.5q0 11 3.5 20.5t8.5 19.5l83 150q10 17 28 25.5t30 8.5q27 0 48 -19.5t21 -46.5zM231 658q0 -11 -4 -21t-9 -19l-84 -150q-10 -17 -27.5 -25.5t-29.5 -8.5
q-27 0 -47.5 19.5t-20.5 46.5q0 11 3.5 20.5t8.5 19.5l83 150q10 17 28 25.5t30 8.5q27 0 48 -19.5t21 -46.5z" />
    <glyph glyph-name="quotedblright" unicode="&#x201d;" horiz-adv-x="444" 
d="M435 658q0 -11 -4 -21t-9 -19l-84 -150q-10 -17 -27.5 -25.5t-29.5 -8.5q-27 0 -47.5 19.5t-20.5 46.5q0 11 3.5 20.5t8.5 19.5l83 150q10 17 28 25.5t30 8.5q27 0 48 -19.5t21 -46.5zM231 658q0 -11 -4 -21t-9 -19l-84 -150q-10 -17 -27.5 -25.5t-29.5 -8.5
q-27 0 -47.5 19.5t-20.5 46.5q0 11 3.5 20.5t8.5 19.5l83 150q10 17 28 25.5t30 8.5q27 0 48 -19.5t21 -46.5z" />
    <glyph glyph-name="quotedblbase" unicode="&#x201e;" horiz-adv-x="444" 
d="M435 90q0 -11 -4 -21t-9 -19l-84 -150q-10 -17 -27.5 -25.5t-29.5 -8.5q-27 0 -47.5 19.5t-20.5 46.5q0 11 3.5 20.5t8.5 19.5l83 150q10 17 28 25.5t30 8.5q27 0 48 -19.5t21 -46.5zM231 90q0 -11 -4 -21t-9 -19l-84 -150q-10 -17 -27.5 -25.5t-29.5 -8.5
q-27 0 -47.5 19.5t-20.5 46.5q0 11 3.5 20.5t8.5 19.5l83 150q10 17 28 25.5t30 8.5q27 0 48 -19.5t21 -46.5z" />
    <glyph glyph-name="dagger" unicode="&#x2020;" horiz-adv-x="630" 
d="M605 439q0 -30 -15.5 -46.5t-41.5 -16.5h-164v-525q0 -33 -18.5 -51t-50.5 -18t-50.5 18t-18.5 51v525h-164q-26 0 -41.5 16.5t-15.5 46.5t15.5 46.5t41.5 16.5h164v153q0 33 18.5 51t50.5 18t50.5 -18t18.5 -51v-153h164q26 0 41.5 -16.5t15.5 -46.5z" />
    <glyph glyph-name="daggerdbl" unicode="&#x2021;" horiz-adv-x="630" 
d="M605 69q0 -30 -15.5 -46.5t-41.5 -16.5h-164v-155q0 -33 -18.5 -51t-50.5 -18t-50.5 18t-18.5 51v155h-164q-26 0 -41.5 16.5t-15.5 46.5t15.5 46.5t41.5 16.5h164v244h-164q-26 0 -41.5 16.5t-15.5 46.5t15.5 46.5t41.5 16.5h164v153q0 33 18.5 51t50.5 18t50.5 -18
t18.5 -51v-153h164q26 0 41.5 -16.5t15.5 -46.5t-15.5 -46.5t-41.5 -16.5h-164v-244h164q26 0 41.5 -16.5t15.5 -46.5z" />
    <glyph glyph-name="bullet" unicode="&#x2022;" horiz-adv-x="500" 
d="M428 356q0 -37 -14 -69.5t-38 -56.5t-56.5 -38t-69.5 -14t-69.5 14t-56.5 38t-38 56.5t-14 69.5t14 69.5t38 56.5t56.5 38t69.5 14t69.5 -14t56.5 -38t38 -56.5t14 -69.5z" />
    <glyph glyph-name="ellipsis" unicode="&#x2026;" horiz-adv-x="1000" 
d="M911 66q0 -32 -23 -55t-55 -23t-55 23t-23 55t23 55t55 23t55 -23t23 -55zM578 66q0 -32 -23 -55t-55 -23t-55 23t-23 55t23 55t55 23t55 -23t23 -55zM245 66q0 -32 -23 -55t-55 -23t-55 23t-23 55t23 55t55 23t55 -23t23 -55z" />
    <glyph glyph-name="perthousand" unicode="&#x2030;" horiz-adv-x="1074" 
d="M1043 149q0 -33 -11.5 -62t-32 -51t-49 -35t-61.5 -13t-61.5 13t-49 35t-32 51t-11.5 62t11.5 62t32 51.5t49 35.5t61.5 13t61.5 -13t49 -35.5t32 -51.5t11.5 -62zM339 562q0 -33 -11.5 -62t-32 -51t-49 -35t-61.5 -13t-61.5 13t-49 35t-32 51t-11.5 62t11.5 62t32 51.5
t49 35.5t61.5 13t61.5 -13t49 -35.5t32 -51.5t11.5 -62zM585 674q0 -6 -1 -12.5t-7 -17.5l-336 -629q-11 -16 -19 -24.5t-26 -8.5q-20 0 -38.5 16t-18.5 39q0 11 3.5 21t6.5 16l331 624q10 19 19.5 25.5t26.5 6.5q23 0 41 -16.5t18 -39.5zM691 149q0 -33 -11.5 -62t-32 -51
t-49 -35t-61.5 -13t-61.5 13t-49 35t-32 51t-11.5 62t11.5 62t32 51.5t49 35.5t61.5 13t61.5 -13t49 -35.5t32 -51.5t11.5 -62zM941 149q0 24 -13.5 42t-38.5 18t-38.5 -18t-13.5 -42t13.5 -41.5t38.5 -17.5t38.5 17.5t13.5 41.5zM237 562q0 24 -13.5 42t-38.5 18t-38.5 -18
t-13.5 -42t13.5 -41.5t38.5 -17.5t38.5 17.5t13.5 41.5zM589 149q0 24 -13.5 42t-38.5 18t-38.5 -18t-13.5 -42t13.5 -41.5t38.5 -17.5t38.5 17.5t13.5 41.5z" />
    <glyph glyph-name="guilsinglleft" unicode="&#x2039;" horiz-adv-x="296" 
d="M259 128q0 -26 -16.5 -44.5t-43.5 -18.5q-15 0 -28.5 6.5t-21.5 18.5l-103 159q-5 8 -7 17.5t-2 18.5q0 14 8 29.5t16 26.5l97 137q15 17 43 17q27 0 42.5 -16.5t15.5 -38.5q0 -19 -11 -38l-79 -121l79 -119q7 -10 9 -18.5t2 -15.5z" />
    <glyph glyph-name="guilsinglright" unicode="&#x203a;" horiz-adv-x="296" 
d="M259 275q0 -14 -8 -29.5t-16 -26.5l-97 -137q-15 -17 -43 -17q-27 0 -42.5 16.5t-15.5 38.5q0 10 2 19.5t9 18.5l79 121l-79 119q-7 10 -9 18.5t-2 15.5q0 26 16.5 44.5t43.5 18.5q15 0 28.5 -6.5t21.5 -18.5l103 -159q5 -8 7 -17.5t2 -18.5z" />
    <glyph glyph-name="Euro" horiz-adv-x="611" 
d="M438 280q0 -34 -20.5 -48.5t-52.5 -14.5h-113q23 -38 61 -61.5t92 -23.5q31 0 52.5 6.5t38 14.5t30 14.5t28.5 6.5q17 0 29.5 -7.5t20.5 -18t12 -22t4 -20.5q0 -36 -23 -59t-56.5 -36t-70.5 -18t-65 -5q-58 0 -108.5 16.5t-92 47t-72 72.5t-48.5 93h-20q-29 0 -46 17
t-17 46q0 26 17 44t43 19v13v21q-28 1 -44 17.5t-16 45.5q0 27 18 45t45 18h23q18 50 48.5 90.5t71.5 69.5t91 45t107 16q27 0 62.5 -5t67 -18t53.5 -34.5t22 -54.5q0 -27 -17 -47t-45 -20q-15 0 -27.5 5.5t-27.5 12t-35.5 12t-52.5 5.5q-51 0 -87.5 -21t-59.5 -56h147
q32 0 52.5 -14t20.5 -49q0 -34 -20.5 -48.5t-52.5 -14.5h-187q-1 -6 -1 -12v-12v-10h148q32 0 52.5 -14t20.5 -49z" />
    <glyph glyph-name="Euro" unicode="&#x20ac;" horiz-adv-x="611" 
d="M438 280q0 -34 -20.5 -48.5t-52.5 -14.5h-113q23 -38 61 -61.5t92 -23.5q31 0 52.5 6.5t38 14.5t30 14.5t28.5 6.5q17 0 29.5 -7.5t20.5 -18t12 -22t4 -20.5q0 -36 -23 -59t-56.5 -36t-70.5 -18t-65 -5q-58 0 -108.5 16.5t-92 47t-72 72.5t-48.5 93h-20q-29 0 -46 17
t-17 46q0 26 17 44t43 19v13v21q-28 1 -44 17.5t-16 45.5q0 27 18 45t45 18h23q18 50 48.5 90.5t71.5 69.5t91 45t107 16q27 0 62.5 -5t67 -18t53.5 -34.5t22 -54.5q0 -27 -17 -47t-45 -20q-15 0 -27.5 5.5t-27.5 12t-35.5 12t-52.5 5.5q-51 0 -87.5 -21t-59.5 -56h147
q32 0 52.5 -14t20.5 -49q0 -34 -20.5 -48.5t-52.5 -14.5h-187q-1 -6 -1 -12v-12v-10h148q32 0 52.5 -14t20.5 -49z" />
    <glyph glyph-name="afii61352" unicode="&#xb9;" horiz-adv-x="1085" 
d="M1033 377q0 -34 -12 -64t-34 -52.5t-53 -36t-68 -13.5q-38 0 -69 13.5t-53 36t-34 52.5t-12 64q0 33 12.5 63t34.5 53.5t53 37t68 13.5t68 -13.5t53 -37t34 -53.5t12 -63zM1033 117q0 -18 -10.5 -28.5t-29.5 -10.5h-255q-18 0 -29 10.5t-11 28.5t11 28.5t29 10.5h255
q19 0 29.5 -10.5t10.5 -28.5zM646 66q0 -38 -21.5 -58t-53.5 -20q-14 0 -33 9.5t-30 23.5l-317 424h-2v-379q0 -38 -21.5 -58t-53.5 -20t-53.5 20t-21.5 58v580q0 38 21.5 58t53.5 20q14 0 33.5 -9.5t29.5 -23.5l317 -429h2v384q0 38 21.5 58t53.5 20t53.5 -20t21.5 -58
v-580zM937 377q0 15 -4 31t-12.5 29t-22 21t-32.5 8t-32.5 -8t-22.5 -21t-13 -29t-4 -31t4.5 -31t13.5 -28.5t22.5 -20.5t31.5 -8t31 8t22 20.5t13.5 28.5t4.5 31z" />
    <glyph glyph-name="afii61352" unicode="&#x2116;" horiz-adv-x="1085" 
d="M1033 377q0 -34 -12 -64t-34 -52.5t-53 -36t-68 -13.5q-38 0 -69 13.5t-53 36t-34 52.5t-12 64q0 33 12.5 63t34.5 53.5t53 37t68 13.5t68 -13.5t53 -37t34 -53.5t12 -63zM1033 117q0 -18 -10.5 -28.5t-29.5 -10.5h-255q-18 0 -29 10.5t-11 28.5t11 28.5t29 10.5h255
q19 0 29.5 -10.5t10.5 -28.5zM646 66q0 -38 -21.5 -58t-53.5 -20q-14 0 -33 9.5t-30 23.5l-317 424h-2v-379q0 -38 -21.5 -58t-53.5 -20t-53.5 20t-21.5 58v580q0 38 21.5 58t53.5 20q14 0 33.5 -9.5t29.5 -23.5l317 -429h2v384q0 38 21.5 58t53.5 20t53.5 -20t21.5 -58
v-580zM937 377q0 15 -4 31t-12.5 29t-22 21t-32.5 8t-32.5 -8t-22.5 -21t-13 -29t-4 -31t4.5 -31t13.5 -28.5t22.5 -20.5t31.5 -8t31 8t22 20.5t13.5 28.5t4.5 31z" />
    <glyph glyph-name="trademark" unicode="&#x2122;" horiz-adv-x="1000" 
d="M958 360q0 -27 -11 -43.5t-43 -16.5t-43 16.5t-11 43.5v208h-2l-72 -208q-9 -26 -20.5 -43t-42.5 -17t-42.5 17t-20.5 43l-72 208h-2v-208q0 -27 -11 -43.5t-43 -16.5t-43 16.5t-11 43.5v296q0 26 18.5 44t66.5 18q14 0 26.5 -1.5t23.5 -8t21 -19t18 -33.5l71 -182
l71 182q8 21 18 33.5t21 19t23.5 8t26.5 1.5q48 0 66.5 -18t18.5 -44v-296zM410 667q0 -23 -12.5 -34t-32.5 -11h-79v-262q0 -27 -16 -43.5t-44 -16.5t-44 16.5t-16 43.5v262h-79q-20 0 -32.5 11t-12.5 34t12.5 34t32.5 11h278q20 0 32.5 -11t12.5 -34z" />
    <glyph glyph-name="Delta" unicode="&#x2206;" horiz-adv-x="592" 
d="M594 72q0 -30 -21.5 -50t-50.5 -22h-447q-30 0 -53.5 20t-23.5 52q0 20 7 37l217 557q10 24 25.5 41t48.5 17t48.5 -17t25.5 -41l217 -557q7 -17 7 -37zM174 132h244l-122 333z" />
    <glyph glyph-name="notequal" unicode="&#x2260;" horiz-adv-x="800" 
d="M762 356q0 -75 -28.5 -141t-77.5 -115t-115 -77.5t-141 -28.5t-141 28.5t-115 77.5t-77.5 115t-28.5 141t28.5 141t77.5 115t115 77.5t141 28.5t141 -28.5t115 -77.5t77.5 -115t28.5 -141zM680 356q0 59 -22.5 111t-60.5 91t-89 61.5t-108 22.5t-108 -22.5t-89 -61.5
t-60.5 -91t-22.5 -111t22.5 -111t60.5 -91t89 -61.5t108 -22.5t108 22.5t89 61.5t60.5 91t22.5 111zM557 439q0 -60 -34.5 -89t-122.5 -29h-53v-143q0 -32 -33 -32t-33 32v355q0 25 23 25h102q75 0 113 -25.5t38 -93.5zM491 444q0 19 -8.5 29.5t-21.5 16t-29.5 7t-32.5 1.5
h-52v-117h46q19 0 37 1.5t31.5 8t21.5 19t8 34.5z" />
    <glyph glyph-name="hyphenminus" horiz-adv-x="389" 
d="M358 289q0 -26 -14.5 -44t-42.5 -18h-213q-28 0 -42.5 18t-14.5 44q0 27 14.5 45.5t42.5 18.5h213q28 0 42.5 -18.5t14.5 -45.5z" />
    <glyph glyph-name="acute.cap" horiz-adv-x="444" 
d="M346 873q0 -42 -41 -59l-112 -44q-11 -5 -18 -7.5t-22 -2.5q-11 0 -21 6.5t-17 17t-11 23.5t-4 26q0 11 7.5 22t20.5 18l126 52q21 10 38 10q11 0 21 -6t17.5 -15t11.5 -20t4 -21z" />
    <glyph glyph-name="breve.cap" horiz-adv-x="444" 
d="M222 755q-31 0 -61.5 8t-55 22.5t-39.5 36t-15 48.5q0 20 13 34.5t35 14.5q23 0 33 -10.5t19 -23.5t23.5 -23.5t47.5 -10.5t47.5 10.5t23.5 23.5t19 23.5t33 10.5q22 0 35 -14.5t13 -34.5q0 -27 -15 -48.5t-39.5 -36t-55 -22.5t-61.5 -8z" />
    <glyph glyph-name="dieresis.cap" horiz-adv-x="444" 
d="M404 837q0 -30 -21 -51t-51 -21t-51 21t-21 51t21 51t51 21t51 -21t21 -51zM184 837q0 -30 -21 -51t-51 -21t-51 21t-21 51t21 51t51 21t51 -21t21 -51z" />
    </font>
</defs>
</svg>
